<?xml version="1.0" encoding="iso-8859-1"?>
<!-- Generator: Adobe Illustrator 17.0.0, SVG Export Plug-In . SVG Version: 6.00 Build 0)  -->
<!DOCTYPE svg PUBLIC "-//W3C//DTD SVG 1.1//EN" "http://www.w3.org/Graphics/SVG/1.1/DTD/svg11.dtd">
<svg version="1.1" id="Layer_10" xmlns="http://www.w3.org/2000/svg" xmlns:xlink="http://www.w3.org/1999/xlink" x="0px" y="0px"
	 width="91px" height="102px" viewBox="0 0 91 102" style="enable-background:new 0 0 91 102;" xml:space="preserve">
<path d="M16,93H6V68.7c3,1.2,6,2,10,2.5V93z M32,93H21V71.7c1,0.1,2.4,0.1,3.5,0.1c2.4,0,4.5-0.2,7.5-0.4V93z M47,93H37V70.5
	c3-0.8,7-1.9,10-3.3V93z M63,93H52V64.7c4-2.1,8-4.6,11-7.5V93z M78,93H68V51.6C73,45.4,76.4,38,78,30h0V93z M75.8,27
	c-5,32-39.6,49.4-69.7,38.9c-1-0.4-0.6-1.9,0.4-1.8C30.7,68,52,50,55.7,27H44.6l10.2-8.6l10.1-8.7L75,18.3L85.2,27H75.8z"/>
</svg>
