<?xml version="1.0" encoding="iso-8859-1"?>
<!-- Generator: Adobe Illustrator 17.0.0, SVG Export Plug-In . SVG Version: 6.00 Build 0)  -->
<!DOCTYPE svg PUBLIC "-//W3C//DTD SVG 1.1//EN" "http://www.w3.org/Graphics/SVG/1.1/DTD/svg11.dtd">
<svg version="1.1" id="Layer_10" xmlns="http://www.w3.org/2000/svg" xmlns:xlink="http://www.w3.org/1999/xlink" x="0px" y="0px" viewBox="0 0 91 102" style="enable-background:new 0 0 91 102;" xml:space="preserve">
<path d="M6.2,72.3c-1-1-1-2.7,0-3.7c0.1-0.1,27.2-24.9,27.2-24.9c0.4-0.4,1-0.4,1.4,0c0.4,0.4,0.4,1,0,1.4c0,0-24.7,27-24.9,27.2
	C8.9,73.3,7.2,73.3,6.2,72.3z M83,14.5v47c0,1.1-0.7,2.5-1.9,2.5H64.7l7.3,27c0.6,2.2-0.7,4.2-2.9,4.8c-0.4,0.1-0.7,0.2-1,0.2
	c-1.8,0-3.4-1.1-3.9-2.9L56.8,66H34.8l-7.3,27.1c-0.6,2.2-2.8,3.3-4.9,2.7c-2.2-0.6-3.4-2.7-2.9-4.8l7.3-27h-3.6c1.1-2,2.3-3,3.7-4
	H79V15H12v42.3c-1,1.5-2,2.7-4,3.7V14.5c-1-0.7-1.8-2-1.8-3.5c0-2.2,2-4,4.3-4h70.7c2.2,0,4,1.8,4,4C85.1,12.5,84,13.8,83,14.5z
	 M41,51.9V36.8c0-2.2,1.8-4,4-4c2.2,0,4,1.8,4,4v15.2c0,2.2-1.8,4-4,4C42.8,56,41,54.2,41,51.9z M54,51.9V22.6c0-2.2,1.8-4,4-4
	c2.2,0,4,1.8,4,4v29.3c0,2.2-1.8,4-4,4C55.8,56,54,54.2,54,51.9z M67,51.9V30.7c0-2.2,1.8-4,4-4c2.2,0,4,1.8,4,4v21.2
	c0,2.2-1.8,4-4,4C68.8,56,67,54.2,67,51.9z"/>
</svg>
