<?xml version="1.0" encoding="iso-8859-1"?>
<!-- Generator: Adobe Illustrator 17.0.0, SVG Export Plug-In . SVG Version: 6.00 Build 0)  -->
<!DOCTYPE svg PUBLIC "-//W3C//DTD SVG 1.1//EN" "http://www.w3.org/Graphics/SVG/1.1/DTD/svg11.dtd">
<svg version="1.1" id="Layer_4" xmlns="http://www.w3.org/2000/svg" xmlns:xlink="http://www.w3.org/1999/xlink" x="0px" y="0px"
	 width="35px" height="34px" viewBox="0 0 35 34" style="enable-background:new 0 0 35 34;" xml:space="preserve">
<g>
	<path d="M33,8.5c0,1.4-1.8,2.5-4,2.5H7c-2.2,0-4-1.1-4-2.5l0,0C3,7.1,4.8,6,7,6h22C31.2,6,33,7.1,33,8.5L33,8.5z M33,17.5
		c0-1.4-1.8-2.5-4-2.5H7c-2.2,0-4,1.1-4,2.5l0,0C3,18.9,4.8,20,7,20h22C31.2,20,33,18.9,33,17.5L33,17.5z M33,26.5
		c0-1.4-1.8-2.5-4-2.5H7c-2.2,0-4,1.1-4,2.5l0,0C3,27.9,4.8,29,7,29h22C31.2,29,33,27.9,33,26.5L33,26.5z"/>
</g>
</svg>
