<?xml version="1.0" encoding="iso-8859-1"?>
<!-- Generator: Adobe Illustrator 17.0.0, SVG Export Plug-In . SVG Version: 6.00 Build 0)  -->
<!DOCTYPE svg PUBLIC "-//W3C//DTD SVG 1.1//EN" "http://www.w3.org/Graphics/SVG/1.1/DTD/svg11.dtd">
<svg version="1.1" id="Layer_10" xmlns="http://www.w3.org/2000/svg" xmlns:xlink="http://www.w3.org/1999/xlink" x="0px" y="0px"
	 width="91px" height="102px" viewBox="0 0 91 102" style="enable-background:new 0 0 91 102;" xml:space="preserve">
<g>
	<path d="M75.1,82.2h-5v-3.4c0-0.2-0.2-0.4-0.4-0.4c-0.2,0-0.3,0.2-0.3,0.4v3.4h-6.3v-3.4c0-0.2-0.2-0.4-0.4-0.4
		c-0.2,0-0.3,0.2-0.3,0.4v3.4h-6.3v-3.4c0-0.2-0.2-0.4-0.4-0.4c-0.2,0-0.3,0.2-0.3,0.4v3.4h-6.3v-3.4c0-0.2-0.2-0.4-0.4-0.4
		c-0.2,0-0.3,0.2-0.3,0.4v3.4h-6.3v-3.4c0-0.2-0.2-0.4-0.4-0.4c-0.2,0-0.3,0.2-0.3,0.4v3.4h-6.3v-3.4c0-0.2-0.2-0.4-0.4-0.4
		c-0.2,0-0.3,0.2-0.3,0.4v3.4h-6.3v-3.4c0-0.2-0.2-0.4-0.4-0.4c-0.2,0-0.3,0.2-0.3,0.4v3.4h-6.3v-3.4c0-0.2-0.2-0.4-0.4-0.4
		c-0.2,0-0.3,0.2-0.3,0.4v3.4H7.9v-7.9h2.8c0.2,0,0.3-0.2,0.3-0.4c0-0.2-0.2-0.3-0.3-0.3H7.9v-6.3h2.8c0.2,0,0.3-0.2,0.3-0.4
		c0-0.2-0.2-0.3-0.3-0.3H7.9v-6.3h2.8c0.2,0,0.3-0.2,0.3-0.4c0-0.2-0.2-0.3-0.3-0.3H7.9v-6.3h2.8c0.2,0,0.3-0.2,0.3-0.4
		c0-0.2-0.2-0.3-0.3-0.3H7.9v-6.3h2.8c0.2,0,0.3-0.2,0.3-0.4c0-0.2-0.2-0.3-0.3-0.3H7.9v-6.3h2.8c0.2,0,0.3-0.2,0.3-0.4
		c0-0.2-0.2-0.3-0.3-0.3H7.9v-6.3h2.8c0.2,0,0.3-0.2,0.3-0.4c0-0.2-0.2-0.3-0.3-0.3H7.9v-6.3h2.8c0.2,0,0.3-0.2,0.3-0.4
		c0-0.2-0.2-0.3-0.3-0.3H7.9V19c0-0.6-0.5-1-1-1c-0.6,0-1,0.5-1,1v64.2c0,0.6,0.5,1,1,1h68.3c0.6,0,1-0.5,1-1
		C76.1,82.6,75.7,82.2,75.1,82.2L75.1,82.2z M75.1,82.2"/>
	<rect x="16.7" y="27.4" width="7.2" height="47.3"/>
	<path d="M39,49.7c-0.9-1.2-1.7-2.5-2.3-3.9h-4.9v29H39V49.7z M39,49.7"/>
	<path d="M54,56.8c-0.2,0-0.5,0-0.7,0c-2.2,0-4.4-0.4-6.5-1.2v19.2H54V56.8z M54,56.8"/>
	<path d="M69.7,61.1l-6.9-7c-0.1,0.1-0.2,0.1-0.3,0.2v20.5h7.2V61.1z M69.7,61.1"/>
	<path d="M85.2,68.3L65.9,48.7c4.8-6.2,4.4-15.3-1.3-21c-6.2-6.2-16.3-6.2-22.6,0c-6.2,6.2-6.2,16.3,0,22.6c5.7,5.7,14.8,6.2,21,1.3
		l19.3,19.6c0.8,0.8,2.1,0.8,2.8,0C86,70.4,86,69.1,85.2,68.3L85.2,68.3z M61.7,47.4C57,52,49.5,52,44.8,47.4
		c-4.7-4.7-4.6-12.2,0-16.9c4.6-4.6,12.2-4.6,16.9,0C66.3,35.2,66.3,42.7,61.7,47.4L61.7,47.4z M61.7,47.4"/>
	<path d="M53.8,37.2c-1.8-0.8-2.3-1.2-2.3-2c0-0.7,0.5-1.4,1.8-1.4c1.3,0,2.1,0.5,2.4,0.7c0.1,0.1,0.2,0.1,0.3,0
		c0.1,0,0.2-0.1,0.2-0.2l0.5-1.4c0.1-0.2,0-0.3-0.2-0.4c-0.7-0.4-1.6-0.7-2.5-0.8V30c0-0.2-0.2-0.3-0.4-0.3h-1.3
		c-0.2,0-0.3,0.2-0.3,0.3v1.8c-1.9,0.4-3.1,1.8-3.1,3.6c0,2.2,1.7,3.2,3.6,3.9c1.5,0.6,2.1,1.2,2.1,2.1c0,1-0.9,1.7-2.1,1.7
		c-1,0-2-0.3-2.8-0.8c-0.1-0.1-0.2-0.1-0.3,0c-0.1,0-0.2,0.1-0.2,0.2l-0.5,1.4c-0.1,0.1,0,0.3,0.1,0.4c0.7,0.5,1.9,0.9,3,1V47
		c0,0.2,0.2,0.3,0.3,0.3h1.3c0.2,0,0.3-0.2,0.3-0.3v-1.9c2-0.4,3.3-1.9,3.3-3.8C57.3,39.5,56.2,38.2,53.8,37.2L53.8,37.2z
		 M53.8,37.2"/>
</g>
</svg>
