<?xml version="1.0" encoding="iso-8859-1"?>
<!-- Generator: Adobe Illustrator 17.0.0, SVG Export Plug-In . SVG Version: 6.00 Build 0)  -->
<!DOCTYPE svg PUBLIC "-//W3C//DTD SVG 1.1//EN" "http://www.w3.org/Graphics/SVG/1.1/DTD/svg11.dtd">
<svg version="1.1" id="Layer_4" xmlns="http://www.w3.org/2000/svg" xmlns:xlink="http://www.w3.org/1999/xlink" x="0px" y="0px"
	 width="40px" height="40px" viewBox="0 0 40 40" style="enable-background:new 0 0 40 40;" xml:space="preserve">
<g>
	<path d="M35.8,22.2c0-0.4,0-0.9,0-1.3c0-7.1-6.2-13.1-14.2-13.7c-0.5-0.1-1-0.1-1.5-0.1c-7.8,0-14.7,5.2-15.5,12.5
		c-0.1,0.4-0.1,0.9-0.1,1.3c0,7.2,6.2,13.1,14.2,13.7c0.7,0.1,1.4,0.1,2.1,0.1c1.4,0,2.7-0.2,4-0.6c1.6,2.1,4,3.2,6.2,3.2l0,0
		c0.5,0,0.9-0.3,1.1-0.7c0.2-0.4,0.2-1-0.1-1.3c-0.8-1-1.4-2.7-1.4-4.2C33.1,29.3,35.4,25.8,35.8,22.2z M28.8,29.4
		c-0.3,0.2-0.5,0.5-0.6,0.9c0,0.3-0.1,0.5-0.1,0.7c0,1.1,0.2,2.2,0.6,3.2c-0.9-0.5-1.7-1.2-2.2-2.2c-0.2-0.4-0.7-0.7-1.1-0.7
		c-0.1,0-0.3,0-0.4,0.1c-1.4,0.5-2.6,0.7-4.1,0.7c-0.6,0-1.2,0-1.9-0.1c-6.9-0.6-11.9-5.6-11.9-11.2c0-0.3,0-0.6,0-1
		c0.6-5.7,6.2-10.2,13-10.2c0.4,0,0.8,0,1.3,0l0,0c6.9,0.6,11.9,5.6,11.9,11.2c0,0.3,0,0.7-0.1,1C33,24.8,30.6,28.3,28.8,29.4z
		 M12.8,17.5c-1.5,0-1.5-2.3,0-2.3c5,0,9.9,0,14.9,0c1.5,0,1.5,2.3,0,2.3C22.8,17.5,17.8,17.5,12.8,17.5L12.8,17.5z M12.8,22.2
		c-1.5,0-1.5-2.3,0-2.3c5,0,9.9,0,14.9,0c1.5,0,1.5,2.3,0,2.3C22.8,22.2,17.8,22.2,12.8,22.2L12.8,22.2z M12.8,26.8
		c-1.5,0-1.5-2.3,0-2.3c5,0,9.9,0,14.9,0c1.5,0,1.5,2.3,0,2.3C22.8,26.8,17.8,26.8,12.8,26.8L12.8,26.8z"/>
</g>
</svg>
