<?xml version="1.0" encoding="iso-8859-1"?>
<!-- Generator: Adobe Illustrator 17.0.0, SVG Export Plug-In . SVG Version: 6.00 Build 0)  -->
<!DOCTYPE svg PUBLIC "-//W3C//DTD SVG 1.1//EN" "http://www.w3.org/Graphics/SVG/1.1/DTD/svg11.dtd">
<svg version="1.1" id="Layer_10" xmlns="http://www.w3.org/2000/svg" xmlns:xlink="http://www.w3.org/1999/xlink" x="0px" y="0px"
	 width="100px" height="118px" viewBox="0 0 100 118" style="enable-background:new 0 0 100 118;" xml:space="preserve">
<path d="M12,51.9c1,1.4,2.7,2.6,4.3,3.7c6,4,10.8,7.4,14.5,10L12,84.4V51.9z M80.8,92H18.9c-1.7,0-3.2-0.6-4.4-1.7L35.8,69
	c0.5,0.4,1,0.7,1.5,1.1c1.6,1.2,2.9,2.1,3.9,2.8c1,0.7,2.3,1.4,4,2.1c1.7,0.7,3.2,1.1,4.6,1.1h0.1c1.4,0,3-0.4,4.6-1.1
	c1.7-0.7,3-1.4,4-2.1c1-0.7,2.3-1.6,3.9-2.8c0.5-0.3,1-0.7,1.5-1.1l21.3,21.3C83.9,91.4,82.5,92,80.8,92z M87,84.4L68.4,65.6
	c4-2.8,8.7-6.1,14.5-10c1.6-1.1,3.1-2.3,4.1-3.7V84.4z M85.4,45.9c-1.4,2-3.1,3.7-5.1,5.2c-6.8,4.7-11.9,8.3-15.4,10.7
	c-1.9,1.3-3.3,2.3-4.3,3c-0.1,0.1-0.3,0.2-0.6,0.4c-0.3,0.2-0.7,0.5-1.2,0.8c-0.9,0.7-1.7,1.2-2.3,1.6C56,68,55.2,68.5,54.4,69
	c-0.9,0.5-1.7,0.6-2.4,0.9c-0.8,0.3-1.5,0.1-2.1,0.1h-0.1c-0.6,0-1.3,0.1-2.1-0.1c-0.8-0.3-1.6-0.5-2.4-1c-0.9-0.5-1.6-0.9-2.2-1.3
	c-0.6-0.4-1.4-0.9-2.3-1.6c-0.5-0.3-0.9-0.6-1.2-0.8c-0.3-0.2-0.5-0.3-0.6-0.4c-1.2-0.8-2.6-1.8-4.2-3c-1.9-1.3-4.2-2.9-6.8-4.7
	c-4.8-3.3-7.7-5.3-8.6-6c-1.7-1.2-3.4-2.8-4.9-4.9c-1.5-2.1-2.3-4-2.3-5.7c0-2.2,0.6-3.9,1.7-5.4c1.2-1.5,2.8-2.1,5-2.1h61.9
	c1.8,0,3.4,0.6,4.7,1.9c1.3,1.3,2,2.9,2,4.7C87.5,41.8,86.8,43.9,85.4,45.9z"/>
</svg>
