<?xml version="1.0" encoding="iso-8859-1"?>
<!-- Generator: Adobe Illustrator 17.0.0, SVG Export Plug-In . SVG Version: 6.00 Build 0)  -->
<!DOCTYPE svg PUBLIC "-//W3C//DTD SVG 1.1//EN" "http://www.w3.org/Graphics/SVG/1.1/DTD/svg11.dtd">
<svg version="1.1" id="Layer_10" xmlns="http://www.w3.org/2000/svg" xmlns:xlink="http://www.w3.org/1999/xlink" x="0px" y="0px"
	 width="100px" height="118px" viewBox="0 0 100 118" style="enable-background:new 0 0 100 118;" xml:space="preserve">
<path d="M87.4,65.1V93H71.2V67c0-6.5-2.3-11-8.2-11c-4.5,0-7.1,3-8.3,5.9c-0.4,1-0.5,2.5-0.5,3.9V93H38.1c0,0,0.2-44,0-48.6h16.2
	v6.9c0,0.1-0.1,0.1-0.1,0.2h0.1v-0.2c2.1-3.3,6-8,14.6-8C79.4,43.3,87.4,50.2,87.4,65.1L87.4,65.1z M21.2,21c-5.5,0-9.1,3.6-9.1,8.4
	c0,4.7,3.5,8.4,8.9,8.4h0.1c5.6,0,9.1-3.7,9.1-8.4C30.1,24.6,26.7,21,21.2,21L21.2,21z M13,93h16.1V44.4H13V93z M13,93"/>
</svg>
