<?xml version="1.0" encoding="iso-8859-1"?>
<!-- Generator: Adobe Illustrator 17.0.0, SVG Export Plug-In . SVG Version: 6.00 Build 0)  -->
<!DOCTYPE svg PUBLIC "-//W3C//DTD SVG 1.1//EN" "http://www.w3.org/Graphics/SVG/1.1/DTD/svg11.dtd">
<svg version="1.1" id="Layer_4" xmlns="http://www.w3.org/2000/svg" xmlns:xlink="http://www.w3.org/1999/xlink" x="0px" y="0px"
	 width="35px" height="34px" viewBox="0 0 35 34" style="enable-background:new 0 0 35 34;" xml:space="preserve">
<g>
	<path d="M31.1,27.7l-4.2-4.5c1.7-2.1,2.7-4.7,2.7-7.6c0-6.8-5.5-12.3-12.3-12.3S4.9,8.9,4.9,15.6c0,6.8,5.5,12.3,12.3,12.3
		c1.9,0,3.7-0.4,5.3-1.2l4.5,4.8c1,1,2.6,1.1,3.7,0.1l0.2-0.2C32,30.4,32.1,28.8,31.1,27.7z M9.5,15.6C9.5,11.4,13,8,17.2,8
		s7.7,3.4,7.7,7.7s-3.4,7.7-7.7,7.7S9.5,19.9,9.5,15.6z"/>
</g>
</svg>
