<?xml version="1.0" encoding="iso-8859-1"?>
<!-- Generator: Adobe Illustrator 17.0.0, SVG Export Plug-In . SVG Version: 6.00 Build 0)  -->
<!DOCTYPE svg PUBLIC "-//W3C//DTD SVG 1.1//EN" "http://www.w3.org/Graphics/SVG/1.1/DTD/svg11.dtd">
<svg version="1.1" id="Layer_4" xmlns="http://www.w3.org/2000/svg" xmlns:xlink="http://www.w3.org/1999/xlink" x="0px" y="0px"
	 width="40px" height="40px" viewBox="0 0 40 40" style="enable-background:new 0 0 40 40;" xml:space="preserve">
<g>
	<path d="M4.7,15.9c0.3-0.1,0.7-0.2,1.1-0.2c0.5-0.1,1-0.1,1.6-0.1c0.6,0,1,0.1,1.3,0.3c0.3-0.1,0.8-0.1,1.3-0.1
		c1.2,0,2,0.4,2.4,1.3c0.4,1,1.1,4,2.1,9c1.1-4.8,1.9-7.6,2.3-8.6c0.4-0.9,0.9-1.5,1.5-1.7c0.4-0.1,0.9-0.1,1.5,0
		c0.5-0.1,1.1-0.1,1.7-0.1c1.5,0,2.5,0.2,3,0.6c0.4,0.4,0.7,1,0.7,2c0,0-0.1,1.9-0.4,5.5c-0.3,3.6-0.4,6.2-0.4,7.8
		c-0.8,0.3-1.8,0.4-3.1,0.4c-1.3,0-1.9-0.5-2-1.4l-0.3-8.5c-1.5,6-3,8.9-4.5,8.9h-0.4c-0.6,0-1.1-0.2-1.6-0.7c-1-1-2.1-3.8-3.2-8.4
		C9.1,25.6,9,28.9,9,31.4c-0.8,0.3-1.6,0.4-2.4,0.4c-1.5,0-2.2-0.5-2.3-1.4L3.4,16.5c0.1-0.1,0.2-0.2,0.5-0.3S4.4,16,4.7,15.9z
		 M37.1,24.3l-3.1,0c-0.1,0.5-0.2,1-0.2,1.7v0.1c2.6,0,4.1,0,4.3,0c0.1,0.3,0.1,0.5,0.1,0.7c0,0.7-0.4,1-1.3,1h-3.1
		c0.1,0.8,0.5,1.2,1,1.4c0.1,0,0.3,0,0.4,0c0.6,0,1.5-0.2,2.7-0.5c0.4,0.1,0.6,0.5,0.6,1s-0.3,1-1,1.5c-0.7,0.5-1.8,0.7-3.3,0.7
		c-1.5,0-2.7-0.3-3.6-0.9c-1.1-0.7-1.6-1.8-1.6-3.4c0-1.2,0.3-2.3,1-3.3l-0.5,0C29.2,24,29,23.5,29,22.7c0-1.6,0.7-2.4,2.2-2.4
		c0.1,0,0.3,0,0.7,0s1.2,0.1,2.5,0.2c1.3,0.1,2.6,0.2,4,0.2c0.2,0.3,0.3,0.8,0.3,1.5s-0.1,1.2-0.4,1.6C38,24.1,37.6,24.3,37.1,24.3z
		"/>
</g>
</svg>
