<?xml version="1.0" encoding="iso-8859-1"?>
<!-- Generator: Adobe Illustrator 17.0.0, SVG Export Plug-In . SVG Version: 6.00 Build 0)  -->
<!DOCTYPE svg PUBLIC "-//W3C//DTD SVG 1.1//EN" "http://www.w3.org/Graphics/SVG/1.1/DTD/svg11.dtd">
<svg version="1.1" id="Layer_10" xmlns="http://www.w3.org/2000/svg" xmlns:xlink="http://www.w3.org/1999/xlink" x="0px" y="0px"
	 width="91px" height="102px" viewBox="0 0 91 102" style="enable-background:new 0 0 91 102;" xml:space="preserve">
<path d="M68,87.1c0,2-1.9,3.9-3.9,3.9H9.5c-2,0-3.5-1.9-3.5-3.9V14.2c0-2,1.5-3.2,3.5-3.2h54.6c2,0,3.9,1.2,3.9,3.2v5.4l-8,12.6V18
	H13v65h47v-8.7l4.1-2.5c0.7-0.5,1.5-1.1,2-1.8l2-3V87.1z M30.6,76.4c-0.8,1.2-3.1,0.5-2.5-1.1c0-0.1,0.1-0.2,0.1-0.3c0,0,0,0,0,0
	c0.1-0.2,0.1-0.3,0.2-0.5c-0.3,0.2-0.6,0.5-0.9,0.9c-1,1.4-3.3,0.1-2.4-1.4c0.7-0.9,1.3-1.9,1.9-2.9c-2.5,2.6-4.9,5.4-7.1,8.3
	c-1.1,1.4-3.4,0-2.4-1.4c2.5-3.3,5.1-6.5,8-9.4c1.2-1.1,2.7-3.1,4.6-3c0.4,0,1,0.2,1.2,0.7c0.6,1.4,0,3.2-0.9,4.9
	c0.3,0.1,0.6,0.2,0.9,0.6c0.1,0.1,0.1,0.3,0.2,0.4c0.8-0.1,1.6,0.2,2.3,1.3c0.2,0.4,0.3,0.6,0.3,0.8c3.4-0.6,5.8,0.3,9.8,0.3
	c2,0,2,2.7,0,2.7c-3,0-6.8-1.6-9.5-0.2c-0.4,0.2-1.1,0.7-1.7,0.4c-0.6-0.2-1.4-0.5-1.5-1.2c0-0.3,0-0.6,0-0.8
	C31.1,75.8,30.9,76.1,30.6,76.4z M19.5,55.5c0-2,1.6-3.5,3.6-3.5h13.7c2,0,3.6,1.5,3.6,3.5c0,2-1.6,3.5-3.6,3.5H23.2
	C21.2,59,19.5,57.5,19.5,55.5z M23.2,46c-2,0-3.6-1.5-3.6-3.5c0-2,1.6-3.5,3.6-3.5h27.3c2,0,3.6,1.5,3.6,3.5c0,2-1.6,3.5-3.6,3.5
	H23.2z M50.5,32H23.2c-2,0-3.6-1.5-3.6-3.5c0-2,1.6-3.5,3.6-3.5h27.3c2,0,3.6,1.5,3.6,3.5C54.1,30.5,52.5,32,50.5,32z M85.6,28.8
	L62.9,68.2c-0.1,0.2-0.3,0.4-0.6,0.6l-11.9,7.8c-0.6,0.4-1.3,0.4-1.9,0.1c-0.6-0.3-0.9-1-0.9-1.7l0.8-14.2c0-0.3,0.1-0.6,0.2-0.8
	l22.7-39.4c0.2-0.4,0.6-0.7,1-0.8c0.3-0.1,3.3-0.9,7.9,1.8c4.6,2.7,5.4,5.6,5.5,5.9C85.9,27.9,85.9,28.4,85.6,28.8z"/>
</svg>
