<?xml version="1.0" encoding="iso-8859-1"?>
<!-- Generator: Adobe Illustrator 17.0.0, SVG Export Plug-In . SVG Version: 6.00 Build 0)  -->
<!DOCTYPE svg PUBLIC "-//W3C//DTD SVG 1.1//EN" "http://www.w3.org/Graphics/SVG/1.1/DTD/svg11.dtd">
<svg version="1.1" id="Layer_4" xmlns="http://www.w3.org/2000/svg" xmlns:xlink="http://www.w3.org/1999/xlink" x="0px" y="0px"
	 width="35px" height="34px" viewBox="0 0 35 34" style="enable-background:new 0 0 35 34;" xml:space="preserve">
<g>
	<path d="M22.2,30.1c-0.2,0.5-0.6,0.9-1,1.2c-0.4,0.4-0.9,0.6-1.4,0.8c-0.6,0.2-1.1,0.3-1.7,0.3c-0.8,0-1.4-0.1-2-0.3
		c-0.6-0.2-1-0.5-1.4-0.8c-0.4-0.3-0.6-0.7-0.8-1.1c-0.2-0.4-0.3-0.9-0.3-1.3c0-0.5,0.1-0.9,0.3-1.4c0.2-0.5,0.5-0.9,0.9-1.3
		c0.4-0.4,0.9-0.7,1.4-0.9c0.6-0.2,1.2-0.4,1.9-0.4c0.7,0,1.3,0.1,1.9,0.4c0.6,0.2,1,0.5,1.4,0.9c0.4,0.4,0.7,0.8,0.9,1.2
		c0.2,0.4,0.3,0.9,0.3,1.3C22.6,29.2,22.5,29.7,22.2,30.1z M28.1,12.7c-0.4,0.8-0.8,1.5-1.4,2.1c-0.6,0.6-1.2,1.1-1.8,1.6
		c-0.6,0.5-1.3,1-1.8,1.4c-0.6,0.5-1,1.2-1.4,1.8c-0.4,0.6-0.6,2.3-0.6,2.3h-6.5c0,0,0.1-1.8,0.4-2.4c0.3-0.6,0.6-1.3,1-1.8
		c0.4-0.5,0.8-1,1.3-1.4c0.5-0.4,0.9-0.8,1.3-1.2c0.4-0.4,0.7-0.8,1-1.3c0.3-0.5,0.4-1,0.4-1.7c0-0.7-0.1-1.2-0.4-1.6
		c-0.3-0.4-0.6-0.7-1.1-0.9c-0.4-0.2-0.9-0.3-1.3-0.4c-0.5-0.1-0.8-0.1-1.2-0.1c-1.3,0-2.3,0.3-3.2,0.8c-0.9,0.5-1.6,1.1-2.1,1.8
		c-0.1-0.5-0.1-1.1-0.1-1.7c0-0.6,0-1.3,0-2c0-0.6,0-1.2,0-1.7c0-0.5,0-1.1,0.1-1.7c0.8-0.7,1.9-1.3,3.3-1.7c1.4-0.4,3-0.6,4.7-0.6
		c1,0,2.1,0.1,3.2,0.3c1.2,0.2,2.2,0.5,3.2,1.1c1,0.5,1.8,1.3,2.5,2.2c0.7,1,1,2.2,1,3.8C28.7,10.9,28.5,11.9,28.1,12.7z"/>
</g>
</svg>
