<?xml version="1.0" encoding="iso-8859-1"?>
<!-- Generator: Adobe Illustrator 17.0.0, SVG Export Plug-In . SVG Version: 6.00 Build 0)  -->
<!DOCTYPE svg PUBLIC "-//W3C//DTD SVG 1.1//EN" "http://www.w3.org/Graphics/SVG/1.1/DTD/svg11.dtd">
<svg version="1.1" xmlns="http://www.w3.org/2000/svg" xmlns:xlink="http://www.w3.org/1999/xlink" x="0px" y="0px" viewBox="0 0 174 174" style="enable-background:new 0 0 174 174;" xml:space="preserve">
<g id="Layer_4" style="display:none;">
	<rect x="-773.394" y="-756.5" style="display:inline;" width="1206" height="7848"/>
</g>
<g id="Layer_10">
	<g>
		<circle style="fill:#CDA68B;" cx="70.755" cy="82.766" r="5.522"/>
		<circle style="fill:#CDA68B;" cx="87.322" cy="82.766" r="5.522"/>
		<path style="fill:#CDA68B;" d="M87.322,0.996c-47.536,0-86.071,38.535-86.071,86.071c0,47.536,38.535,86.071,86.071,86.071
			s86.071-38.535,86.071-86.071C173.394,39.532,134.858,0.996,87.322,0.996z M87.322,110.738c-1.951,0-3.852-0.158-5.718-0.398
			c-5.311,5.435-13.422,8.077-22.638,8.765c3.774-3.774,6.474-9.25,7.321-13.898C57.62,100.11,51.979,91.97,51.979,82.766
			c0-15.449,15.823-27.972,35.343-27.972c19.519,0,35.343,12.523,35.343,27.972C122.666,98.215,106.842,110.738,87.322,110.738z"/>
		<circle style="fill:#CDA68B;" cx="103.89" cy="82.766" r="5.522"/>
	</g>
	<g id="Layer_9">
	</g>
	<g id="Layer_9_copy">
	</g>
</g>
<g id="Layer_5">
</g>
</svg>
