<?xml version="1.0" encoding="iso-8859-1"?>
<!-- Generator: Adobe Illustrator 17.0.0, SVG Export Plug-In . SVG Version: 6.00 Build 0)  -->
<!DOCTYPE svg PUBLIC "-//W3C//DTD SVG 1.1//EN" "http://www.w3.org/Graphics/SVG/1.1/DTD/svg11.dtd">
<svg version="1.1" xmlns="http://www.w3.org/2000/svg" xmlns:xlink="http://www.w3.org/1999/xlink" x="0px" y="0px" width="174px"
	 height="174px" viewBox="0 0 174 174" style="enable-background:new 0 0 174 174;" xml:space="preserve">
<g id="Layer_4" style="display:none;">
	<rect x="-529" y="-756" style="display:inline;" width="1206" height="7848"/>
</g>
<g id="Layer_10">
	<path style="fill:#5C8291;" d="M86.916,1.534c-47.536,0-86.071,38.535-86.071,86.071s38.535,86.071,86.071,86.071
		s86.071-38.535,86.071-86.071S134.451,1.534,86.916,1.534z M70,124H59v-17.948l1.214,1.117L70,99.409V124z M85,124H75V95.16
		l10-8.502V124z M101,124H90V82.405l11-8.508V124z M116,124h-10V74.918l4.548,5.801L116,65.772V124z M108.995,70.456l-4.919-6.01
		L60.796,99.855l-3.289-4.02l43.275-35.408l-4.918-6.015l20.46-3.345L108.995,70.456z"/>
	<g id="Layer_9">
	</g>
	<g id="Layer_9_copy">
	</g>
</g>
<g id="Layer_5">
</g>
</svg>
