<?xml version="1.0" encoding="iso-8859-1"?>
<!-- Generator: Adobe Illustrator 17.0.0, SVG Export Plug-In . SVG Version: 6.00 Build 0)  -->
<!DOCTYPE svg PUBLIC "-//W3C//DTD SVG 1.1//EN" "http://www.w3.org/Graphics/SVG/1.1/DTD/svg11.dtd">
<svg version="1.1" xmlns="http://www.w3.org/2000/svg" xmlns:xlink="http://www.w3.org/1999/xlink" x="0px" y="0px" viewBox="0 0 174 174" style="enable-background:new 0 0 174 174;" xml:space="preserve">
<g id="Layer_4" style="display:none;">
	<rect x="-283" y="-756" style="display:inline;" width="1206" height="7848"/>
</g>
<g id="Layer_10">
	<g>
		<path style="fill:#715F6A;" d="M113.72,95.354c-0.477,0.516-1.111,0.808-1.851,0.951c-0.221,0.046-0.442,0.019-0.659,0.019
			c-0.969,0-1.871-0.258-2.508-0.943c-0.802,0.14-1.455,0.62-1.725,1.62h8.472C115.175,96,114.522,95.493,113.72,95.354z"/>
		<path style="fill:#715F6A;" d="M87.281,1.105C39.745,1.105,1.21,39.641,1.21,87.177c0,47.536,38.535,86.071,86.071,86.071
			c47.536,0,86.071-38.535,86.071-86.071C173.352,39.641,134.817,1.105,87.281,1.105z M96.718,46.517
			c4.866,0,8.809,3.943,8.809,8.81c0,4.867-3.943,8.813-8.809,8.813c-4.867,0-8.81-3.947-8.81-8.813
			C87.908,50.461,91.851,46.517,96.718,46.517z M67.595,46.514c4.867,0,8.813,3.944,8.813,8.81c0,4.867-3.947,8.813-8.813,8.813
			c-4.866,0-8.81-3.947-8.81-8.813C58.785,50.458,62.729,46.514,67.595,46.514z M106.931,128h-0.003
			c-2.576,0-4.664-2.073-4.664-4.649L102.26,117h9.33l0.003,6.344C111.592,125.92,109.504,128,106.931,128z M124,116H98V97h6.621
			c0.285-2,1.527-3.25,3.141-3.748c-1.072-5.357-3.691-13.638-4.392-15.438c-0.702-1.796-2.014-1.245-1.075,0.486
			c1.384,3.301,2.989,8.896,4.145,14.418c-1.27,0.659-2.235,1.282-2.713,3.282h-2.219c-1.595-1-2.884-2.412-3.316-4.428l-1.67-7.889
			c-2.284,2.4-5.791,3.515-11.45,3.814c-0.484,1.341-1.764,2.234-3.207,2.234c-0.152,0-0.309-0.022-0.467-0.045
			c-7.228-0.988-11.279-2.637-13.735-5.503l-1.543,7.196c-0.497,2.323-2.125,3.809-4.054,4.576l-0.017,27.767
			c0,2.576-2.088,4.665-4.664,4.665c-2.576-0.003-4.665-2.092-4.665-4.669l0.02-29.35c-1.839-1.565-2.972-3.84-2.43-6.38
			l4.077-18.836c0.758-3.543,4.35-5.151,7.4-5.151h0.026c0,0,1.075-0.173,2.004,0.002c0.968,0.185,1.82,0.563,1.82,0.563
			c2.248,1.089,4.398,3.301,4.664,6.037c0.032,0.13,0.078,0.237,0.097,0.377c0.627,4.424,1.102,7.207,2.404,8.711
			c1.004,1.163,2.901,1.989,6.12,2.646c0.601-0.981,1.673-1.644,2.907-1.644c5.331,0,8.3-0.537,9.619-1.74
			c1.28-1.166,1.874-3.814,2.469-7.995c0.019-0.14,0.065-0.266,0.097-0.4c0.266-2.736,2.417-4.99,4.664-6.082
			c0,0,0.848-0.465,1.82-0.65c0.929-0.179,2.001-0.182,2.001-0.182l0.026-0.003c3.054,0.088,5.503,1.79,6.263,5.331
			c0,0,5.351,20.998,5.785,23.227c0.059,0.293,0.062,0.762,0.046,1.045c1.634,0.484,2.895,1.758,3.183,3.758H124V116z"/>
	</g>
	<g id="Layer_9">
	</g>
	<g id="Layer_9_copy">
	</g>
</g>
<g id="Layer_5">
</g>
</svg>
