<?xml version="1.0" encoding="iso-8859-1"?>
<!-- Generator: Adobe Illustrator 17.0.0, SVG Export Plug-In . SVG Version: 6.00 Build 0)  -->
<!DOCTYPE svg PUBLIC "-//W3C//DTD SVG 1.1//EN" "http://www.w3.org/Graphics/SVG/1.1/DTD/svg11.dtd">
<svg version="1.1" xmlns="http://www.w3.org/2000/svg" xmlns:xlink="http://www.w3.org/1999/xlink" x="0px" y="0px" width="310px"
	 height="136px" viewBox="0 0 310 136" style="enable-background:new 0 0 310 136;" xml:space="preserve">
<g id="Layer_4" style="display:none;">
	<rect x="-219" y="-3389" style="display:inline;" width="1206" height="7848"/>
</g>
<g id="Layer_10">
	<g id="Layer_9">
		<g>
			<g>
				<g>
					<path style="fill:#ECECEC;" d="M269.283,36.298c-7.18,0-13,5.82-13,13s5.82,13,13,13c7.18,0,13-5.82,13-13
						S276.463,36.298,269.283,36.298z M269.283,55.798c-3.59,0-6.5-2.91-6.5-6.5s2.91-6.5,6.5-6.5s6.5,2.91,6.5,6.5
						S272.873,55.798,269.283,55.798z"/>
					<path style="fill:#ECECEC;" d="M269.283,28.115c-11.699,0-21.183,9.484-21.183,21.183s9.484,21.183,21.183,21.183
						s21.183-9.484,21.183-21.183S280.982,28.115,269.283,28.115z M269.283,64.798c-8.56,0-15.5-6.939-15.5-15.5
						s6.94-15.5,15.5-15.5c8.56,0,15.5,6.939,15.5,15.5S277.844,64.798,269.283,64.798z"/>
					<circle style="fill:#ECECEC;" cx="269.283" cy="49.298" r="3"/>
				</g>
				<g>
					<path style="fill:#ECECEC;" d="M189.635,57.039c-14.912,0-27,12.088-27,27s12.088,27,27,27s27-12.088,27-27
						S204.547,57.039,189.635,57.039z M189.635,101.539c-9.665,0-17.5-7.835-17.5-17.5s7.835-17.5,17.5-17.5s17.5,7.835,17.5,17.5
						S199.3,101.539,189.635,101.539z"/>
					<path style="fill:#ECECEC;" d="M189.635,48.733c-19.499,0-35.305,15.807-35.305,35.305s15.807,35.305,35.305,35.305
						c19.498,0,35.305-15.807,35.305-35.305S209.133,48.733,189.635,48.733z M189.635,113.539c-16.292,0-29.5-13.208-29.5-29.5
						s13.208-29.5,29.5-29.5c16.292,0,29.5,13.208,29.5,29.5S205.927,113.539,189.635,113.539z"/>
					<circle style="fill:#ECECEC;" cx="189.635" cy="84.039" r="14.5"/>
				</g>
				<g>
					<circle style="fill:#ECECEC;" cx="92.475" cy="57.207" r="17.5"/>
					<path style="fill:#ECECEC;" d="M92.475,23.207c-18.778,0-34,15.222-34,34s15.222,34,34,34s34-15.222,34-34
						S111.253,23.207,92.475,23.207z M92.475,77.707c-11.322,0-20.5-9.178-20.5-20.5s9.178-20.5,20.5-20.5s20.5,9.178,20.5,20.5
						S103.797,77.707,92.475,77.707z"/>
					<path style="fill:#ECECEC;" d="M92.475,14.84c-23.398,0-42.366,18.968-42.366,42.366c0,23.398,18.968,42.366,42.366,42.366
						s42.366-18.968,42.366-42.366C134.841,33.809,115.873,14.84,92.475,14.84z M92.475,94.207c-20.435,0-37-16.565-37-37
						s16.565-37,37-37s37,16.565,37,37S112.91,94.207,92.475,94.207z"/>
				</g>
				<g>
					<path style="fill:#ECECEC;" d="M46.437,102.107c-7.18,0-13,5.82-13,13c0,7.18,5.82,13,13,13c7.18,0,13-5.82,13-13
						C59.437,107.927,53.617,102.107,46.437,102.107z M46.437,121.607c-3.59,0-6.5-2.91-6.5-6.5c0-3.59,2.91-6.5,6.5-6.5
						s6.5,2.91,6.5,6.5C52.937,118.697,50.027,121.607,46.437,121.607z"/>
					<circle style="fill:#ECECEC;" cx="46.437" cy="115.107" r="3.5"/>
					<path style="fill:#ECECEC;" d="M46.437,93.924c-11.699,0-21.183,9.484-21.183,21.184c0,11.699,9.484,21.183,21.183,21.183
						s21.183-9.484,21.183-21.183C67.62,103.408,58.136,93.924,46.437,93.924z M46.437,131.107c-8.837,0-16-7.164-16-16
						c0-8.837,7.163-16,16-16s16,7.163,16,16C62.437,123.944,55.274,131.107,46.437,131.107z"/>
				</g>
			</g>
			<g>
				<line style="fill:none;stroke:#ECECEC;stroke-width:3.1069;stroke-miterlimit:10;" x1="307" y1="0" x2="280" y2="36"/>
				<line style="fill:none;stroke:#ECECEC;stroke-width:3.1069;stroke-miterlimit:10;" x1="253" y1="54" x2="217" y2="72"/>
				
					<line style="fill:none;stroke:#ECECEC;stroke-width:3.1069;stroke-miterlimit:10;" x1="159.667" y1="70.833" x2="131.5" y2="61.667"/>
				
					<line style="fill:none;stroke:#ECECEC;stroke-width:3.1069;stroke-miterlimit:10;" x1="70.167" y1="90.333" x2="59.437" y2="102.107"/>
				
					<line style="fill:none;stroke:#ECECEC;stroke-width:3.1069;stroke-miterlimit:10;" x1="27.333" y1="118.167" x2="0.167" y2="115.107"/>
			</g>
		</g>
	</g>
	<g id="Layer_9_copy">
	</g>
</g>
<g id="Layer_5">
</g>
</svg>
