<?xml version="1.0" encoding="iso-8859-1"?>
<!-- Generator: Adobe Illustrator 17.0.0, SVG Export Plug-In . SVG Version: 6.00 Build 0)  -->
<!DOCTYPE svg PUBLIC "-//W3C//DTD SVG 1.1//EN" "http://www.w3.org/Graphics/SVG/1.1/DTD/svg11.dtd">
<svg version="1.1" xmlns="http://www.w3.org/2000/svg" xmlns:xlink="http://www.w3.org/1999/xlink" x="0px" y="0px" width="310px"
	 height="136px" viewBox="0 0 310 136" style="enable-background:new 0 0 310 136;" xml:space="preserve">
<g id="Layer_4" style="display:none;">
	<rect x="-692" y="-3389" style="display:inline;" width="1206" height="7848"/>
</g>
<g id="Layer_10">
	<g id="Layer_9">
	</g>
	<g id="Layer_9_copy">
		<g>
			<g>
				<g>
					<path style="fill:#ECECEC;" d="M26.883,49.298c0,7.18,5.82,13,13,13c7.18,0,13-5.82,13-13s-5.82-13-13-13
						C32.704,36.298,26.883,42.119,26.883,49.298z M33.383,49.298c0-3.59,2.91-6.5,6.5-6.5s6.5,2.91,6.5,6.5s-2.91,6.5-6.5,6.5
						S33.383,52.888,33.383,49.298z"/>
					<path style="fill:#ECECEC;" d="M18.7,49.298c0,11.699,9.484,21.183,21.183,21.183s21.183-9.484,21.183-21.183
						s-9.484-21.183-21.183-21.183S18.7,37.599,18.7,49.298z M24.383,49.298c0-8.561,6.94-15.5,15.5-15.5
						c8.56,0,15.5,6.939,15.5,15.5s-6.94,15.5-15.5,15.5C31.323,64.798,24.383,57.859,24.383,49.298z"/>
					<circle style="fill:#ECECEC;" cx="39.883" cy="49.298" r="3"/>
				</g>
				<g>
					<path style="fill:#ECECEC;" d="M92.532,84.039c0,14.912,12.088,27,27,27s27-12.088,27-27s-12.088-27-27-27
						S92.532,69.127,92.532,84.039z M102.032,84.039c0-9.665,7.835-17.5,17.5-17.5s17.5,7.835,17.5,17.5s-7.835,17.5-17.5,17.5
						S102.032,93.704,102.032,84.039z"/>
					<path style="fill:#ECECEC;" d="M84.227,84.039c0,19.499,15.807,35.305,35.305,35.305c19.499,0,35.305-15.807,35.305-35.305
						s-15.807-35.305-35.305-35.305C100.033,48.733,84.227,64.54,84.227,84.039z M90.032,84.039c0-16.292,13.208-29.5,29.5-29.5
						c16.292,0,29.5,13.208,29.5,29.5s-13.208,29.5-29.5,29.5C103.239,113.539,90.032,100.331,90.032,84.039z"/>
					<circle style="fill:#ECECEC;" cx="119.532" cy="84.039" r="14.5"/>
				</g>
				<g>
					<circle style="fill:#ECECEC;" cx="216.692" cy="57.207" r="17.5"/>
					<path style="fill:#ECECEC;" d="M182.692,57.207c0,18.778,15.222,34,34,34s34-15.222,34-34s-15.222-34-34-34
						S182.692,38.429,182.692,57.207z M196.192,57.207c0-11.322,9.178-20.5,20.5-20.5s20.5,9.178,20.5,20.5s-9.178,20.5-20.5,20.5
						S196.192,68.528,196.192,57.207z"/>
					<path style="fill:#ECECEC;" d="M174.325,57.207c0,23.398,18.968,42.366,42.366,42.366s42.366-18.968,42.366-42.366
						c0-23.398-18.968-42.366-42.366-42.366S174.325,33.809,174.325,57.207z M179.692,57.207c0-20.435,16.565-37,37-37
						s37,16.565,37,37s-16.565,37-37,37S179.692,77.641,179.692,57.207z"/>
				</g>
				<g>
					<path style="fill:#ECECEC;" d="M249.73,115.107c0,7.18,5.82,13,13,13c7.18,0,13-5.82,13-13c0-7.18-5.82-13-13-13
						C255.55,102.107,249.73,107.927,249.73,115.107z M256.23,115.107c0-3.59,2.91-6.5,6.5-6.5s6.5,2.91,6.5,6.5
						c0,3.59-2.91,6.5-6.5,6.5S256.23,118.697,256.23,115.107z"/>
					<circle style="fill:#ECECEC;" cx="262.73" cy="115.107" r="3.5"/>
					<path style="fill:#ECECEC;" d="M241.546,115.107c0,11.699,9.484,21.183,21.183,21.183c11.699,0,21.183-9.484,21.183-21.183
						c0-11.699-9.484-21.184-21.183-21.184C251.03,93.924,241.546,103.408,241.546,115.107z M246.73,115.107c0-8.837,7.163-16,16-16
						c8.837,0,16,7.163,16,16c0,8.836-7.163,16-16,16C253.893,131.107,246.73,123.944,246.73,115.107z"/>
				</g>
			</g>
			<g>
				<line style="fill:none;stroke:#ECECEC;stroke-width:3.1069;stroke-miterlimit:10;" x1="2.167" y1="0" x2="29.167" y2="36"/>
				<line style="fill:none;stroke:#ECECEC;stroke-width:3.1069;stroke-miterlimit:10;" x1="56.167" y1="54" x2="92.167" y2="72"/>
				
					<line style="fill:none;stroke:#ECECEC;stroke-width:3.1069;stroke-miterlimit:10;" x1="149.5" y1="70.833" x2="177.667" y2="61.667"/>
				
					<line style="fill:none;stroke:#ECECEC;stroke-width:3.1069;stroke-miterlimit:10;" x1="239" y1="90.333" x2="249.73" y2="102.107"/>
				
					<line style="fill:none;stroke:#ECECEC;stroke-width:3.1069;stroke-miterlimit:10;" x1="281.833" y1="118.167" x2="309" y2="115.107"/>
			</g>
		</g>
	</g>
</g>
<g id="Layer_5">
</g>
</svg>
