<?xml version="1.0" encoding="iso-8859-1"?>
<!-- Generator: Adobe Illustrator 17.0.0, SVG Export Plug-In . SVG Version: 6.00 Build 0)  -->
<!DOCTYPE svg PUBLIC "-//W3C//DTD SVG 1.1//EN" "http://www.w3.org/Graphics/SVG/1.1/DTD/svg11.dtd">
<svg version="1.1" id="Layer_4" xmlns="http://www.w3.org/2000/svg" xmlns:xlink="http://www.w3.org/1999/xlink" x="0px" y="0px"
	 width="60px" height="65px" viewBox="0 0 60 65" style="enable-background:new 0 0 60 65;" xml:space="preserve">
<g>
	<path d="M0,0.4V65h4.5c2.3-1.1,7.4-4.1,8.1-4.4c1-0.5,2.3-0.4,3.2-0.6c2.1-0.7,3.7-1.9,4.9-3.5c1.1-1.5,1.9-3.2,2.8-4.9
		c-0.5-0.4-0.9-0.7-1.3-1.1c-0.1,0-0.3,0.1-0.4,0.2c-1.2,1.1-2.6,1.8-4.1,2.4c-1,0.4-2.1,0.6-3.2,0.6c-1.4,0-2.8,0-4.3-0.3
		c-2.2-0.5-5.1-1.2-6.8-2.1c-0.2-0.1-0.4-0.3-0.7-0.6c0.8-0.4,1.6-0.6,2.3-1.1c1.7-1,3.1-2.4,4.1-4.1c0.9-1.7,1.8-3.5,1.7-5.5
		c0.9-0.8,0.2-1.5,0-2.3c-0.5-2-1-3.9-1.3-5.9c-0.3-1.9-0.2-3.8-0.3-5.7c-0.1-1.9-0.2-3.8,0-5.6c0.3-2.5,0.7-5,1.7-7.3
		c0.8-1.8,2.2-3.4,3.9-4.5c0.8-0.6,1.7-1.1,2.6-1.6c1.7-1,3.7-1.4,5.6-2c1.5-0.5,3.1-0.5,4.7-0.7c1.6-0.2,3.2-0.2,4.8,0
		c1.5,0.2,2.9,0.7,4.1,1.8c0.6,0.6,1.2,1.3,1.7,1.8c1.4-0.3,2.3-1.5,3.7-1.3c0.4-0.6,1-0.5,1.4-0.4c0.8,0.2,1.7,0.4,2.5,0.8
		c1.7,0.9,3,2.3,4,4.1c1.1,2.1,1.7,4.4,2.1,6.8c0.4,2.6,0.2,5.1,0.3,7.7c0,1.1-0.2,2.2-0.4,3.3c-0.1,1,0.1,2-0.3,3.1
		c-0.4,1.1-0.4,2.4-0.4,3.6c0,0.8-0.6,1.4-0.5,2.3c0.1,0.4-0.4,1-0.3,1.4c0.4,1.5,0.7,3.1,1.2,4.5c0.3,0.9,0.6,1.8,1.3,2.5
		c1.3,1.4,2.5,3.1,4.6,3.5c0.5,0.1,0.9,0.6,1.4,0.9c-2.1,1.3-4.4,1.9-6.6,2.6c-1.2,0.4-5.2,0.7-6.2,0.4c-1.1-0.3-2.3-0.6-3.4-1.1
		c-1.1-0.5-2-1.3-3.2-2.1c-0.3,0.2-0.7,0.6-1.3,1.1c1.1,1.5,1.6,3,2.5,4.4c1.3,1.9,3,3.1,5,4c0.2,0.1,0.4,0.1,0.6,0.1
		c2.2,0,9.8,4.3,11.3,4.9H60V0H0.4C0.3,0.1,0.1,0.3,0,0.4z"/>
</g>
</svg>
