<?xml version="1.0" encoding="iso-8859-1"?>
<!-- Generator: Adobe Illustrator 17.0.0, SVG Export Plug-In . SVG Version: 6.00 Build 0)  -->
<!DOCTYPE svg PUBLIC "-//W3C//DTD SVG 1.1//EN" "http://www.w3.org/Graphics/SVG/1.1/DTD/svg11.dtd">
<svg version="1.1" id="Layer_4" xmlns="http://www.w3.org/2000/svg" xmlns:xlink="http://www.w3.org/1999/xlink" x="0px" y="0px"
	 width="379px" height="94px" viewBox="0 0 379 94" style="enable-background:new 0 0 379 94;" xml:space="preserve">
<g>
	<path style="fill:#FFFFFF;" d="M11.3,85V68.7c0-0.2,0.1-0.3,0.3-0.4c0.2-0.1,0.4-0.2,0.6-0.2H18c1.8,0,3.3,0.4,4.6,1.3
		c1.3,0.8,1.9,1.9,1.9,3.2c0,1.3-0.8,2.4-2.5,3.3c1.5,0.3,2.7,1,3.7,1.8c1,0.9,1.4,1.8,1.4,2.9c0,1.4-0.7,2.6-2.2,3.5
		c-1.5,1-3.2,1.5-5.3,1.5h-7.5c-0.3,0-0.5-0.1-0.6-0.2C11.3,85.3,11.3,85.2,11.3,85z M13.1,75.6H18c1.3,0,2.4-0.3,3.3-0.9
		c0.9-0.6,1.4-1.3,1.4-2.2c0-0.9-0.5-1.6-1.4-2.2c-0.9-0.6-2-0.9-3.3-0.9h-4.9V75.6z M13.1,84.4h6.6c1.5,0,2.9-0.4,4-1.1
		c1.1-0.7,1.7-1.6,1.7-2.7c0-1-0.6-1.9-1.7-2.7s-2.4-1.1-4-1.1h-6.6V84.4z M45.8,79.1L45.8,79.1c0,0.3-0.1,0.4-0.3,0.5
		c-0.2,0.1-0.4,0.2-0.6,0.2H29.9c0.1,1.3,0.8,2.4,2.2,3.3c1.4,0.9,3,1.3,4.9,1.3c1.2,0,2.4-0.2,3.4-0.6c1-0.4,1.9-0.9,2.5-1.6
		c0.3-0.3,0.7-0.4,1.2-0.2c0.5,0.2,0.6,0.5,0.3,0.9c-0.8,0.8-1.9,1.5-3.2,2s-2.7,0.8-4.3,0.8c-2.5,0-4.6-0.6-6.3-1.8
		c-1.7-1.2-2.6-2.6-2.6-4.3s0.9-3.1,2.6-4.3c1.7-1.2,3.8-1.8,6.2-1.8c2.4,0,4.5,0.5,6.1,1.6C44.7,76.1,45.6,77.4,45.8,79.1z
		 M41.5,75.7c-1.3-0.8-2.8-1.1-4.5-1.1s-3.2,0.4-4.5,1.1c-1.3,0.7-2.1,1.7-2.5,2.9h13.9C43.6,77.4,42.8,76.4,41.5,75.7z M77.3,73.5
		c0.2-0.1,0.4-0.2,0.6-0.2c0.2,0,0.5,0.1,0.6,0.2c0.2,0.1,0.3,0.3,0.3,0.4v11c0,0.2-0.1,0.3-0.3,0.4c-0.2,0.1-0.4,0.2-0.6,0.2
		c-0.3,0-0.5-0.1-0.6-0.2c-0.2-0.1-0.3-0.3-0.3-0.4v-1.8c-0.8,0.8-1.8,1.3-3,1.8c-1.2,0.4-2.5,0.6-3.9,0.6c-2.4,0-4.5-0.6-6.2-1.8
		s-2.5-2.6-2.5-4.3c0-1.7,0.8-3.1,2.5-4.3c1.7-1.2,3.8-1.8,6.2-1.8c1.4,0,2.7,0.2,3.9,0.7c1.2,0.4,2.2,1,3,1.8V74
		C77.1,73.8,77.1,73.7,77.3,73.5z M63.3,79.5c0,1.4,0.7,2.5,2,3.5c1.4,1,3,1.4,4.9,1.4c1.9,0,3.5-0.5,4.9-1.4c1.3-1,2-2.1,2-3.5
		c0-1.4-0.7-2.5-2-3.5c-1.4-1-3-1.5-4.9-1.5c-1.9,0-3.5,0.5-4.9,1.5C63.9,77,63.3,78.1,63.3,79.5z M99.4,83.8
		c-1.8-1.2-2.8-2.6-2.8-4.4c0-1.7,0.9-3.2,2.8-4.3s4-1.8,6.4-1.8s4.5,0.5,6.2,1.4c0.2,0.1,0.3,0.2,0.3,0.4c0,0.2-0.1,0.3-0.2,0.4
		c-0.4,0.3-0.8,0.3-1.2,0.1c-1.4-0.7-3-1.1-5-1.1c-1.9,0-3.7,0.5-5.2,1.5c-1.5,1-2.2,2.1-2.2,3.5c0,1.4,0.7,2.5,2.2,3.5
		c1.5,1,3.2,1.4,5.1,1.4c1.9,0,3.6-0.4,5-1.1c0.4-0.2,0.9-0.2,1.3,0.1c0.4,0.3,0.3,0.6-0.2,0.8c-1.7,0.9-3.6,1.3-5.8,1.3
		C103.4,85.6,101.2,85,99.4,83.8z M116.7,85.6h-0.2c-0.6,0-0.9-0.2-0.9-0.6V68.7c0-0.2,0.1-0.3,0.3-0.4c0.2-0.1,0.4-0.2,0.6-0.2
		c0.2,0,0.5,0.1,0.7,0.2c0.2,0.1,0.3,0.3,0.3,0.4v6.4c1.5-1.2,3.4-1.8,5.7-1.8s4.1,0.5,5.6,1.4c1.5,0.9,2.2,2.1,2.2,3.5V85
		c0,0.2-0.1,0.3-0.3,0.4c-0.2,0.1-0.4,0.2-0.7,0.2c-0.3,0-0.5-0.1-0.6-0.2c-0.2-0.1-0.3-0.3-0.3-0.4v-6.8c0-1-0.6-1.9-1.7-2.6
		c-1.1-0.7-2.5-1-4.1-1c-1.6,0-3,0.3-4.1,1c-1.1,0.7-1.7,1.5-1.7,2.6v6.9c0,0-0.1,0.1-0.2,0.2C117.2,85.5,117,85.5,116.7,85.6
		C116.7,85.6,116.7,85.6,116.7,85.6z M148.7,73.5c0.2-0.1,0.4-0.2,0.6-0.2c0.2,0,0.5,0.1,0.6,0.2c0.2,0.1,0.3,0.3,0.3,0.4v11
		c0,0.2-0.1,0.3-0.3,0.4c-0.2,0.1-0.4,0.2-0.6,0.2c-0.3,0-0.5-0.1-0.6-0.2c-0.2-0.1-0.3-0.3-0.3-0.4v-1.8c-0.8,0.8-1.8,1.3-3,1.8
		c-1.2,0.4-2.5,0.6-3.9,0.6c-2.4,0-4.5-0.6-6.2-1.8s-2.5-2.6-2.5-4.3c0-1.7,0.8-3.1,2.5-4.3c1.7-1.2,3.8-1.8,6.2-1.8
		c1.4,0,2.7,0.2,3.9,0.7c1.2,0.4,2.2,1,3,1.8V74C148.4,73.8,148.5,73.7,148.7,73.5z M134.6,79.5c0,1.4,0.7,2.5,2,3.5
		c1.4,1,3,1.4,4.9,1.4c1.9,0,3.5-0.5,4.9-1.4c1.3-1,2-2.1,2-3.5c0-1.4-0.7-2.5-2-3.5c-1.4-1-3-1.5-4.9-1.5c-1.9,0-3.5,0.5-4.9,1.5
		C135.3,77,134.6,78.1,134.6,79.5z M159.8,73.4c0.2,0,0.4,0.1,0.6,0.2s0.3,0.3,0.3,0.4c0,0.1-0.1,0.3-0.3,0.4s-0.4,0.2-0.6,0.2h-2.4
		v8.9c0,0.3,0.2,0.5,0.5,0.7c0.3,0.2,0.6,0.3,0.8,0.3c0.2,0,0.5,0.1,0.7,0.2c0.2,0.1,0.3,0.3,0.3,0.4c0,0.1-0.1,0.3-0.3,0.4
		c-0.2,0.1-0.4,0.2-0.6,0.2c-0.9,0-1.7-0.2-2.3-0.6c-0.6-0.4-0.9-0.9-0.9-1.5v-8.9h-2.3c-0.4,0-0.7,0-0.8-0.2
		c-0.1-0.1-0.1-0.2-0.1-0.4s0-0.3,0-0.4c0.1-0.2,0.4-0.3,0.9-0.3h2.3v-4.5c0-0.2,0.1-0.3,0.3-0.4s0.4-0.2,0.6-0.2
		c0.2,0,0.5,0.1,0.7,0.2c0.2,0.1,0.3,0.3,0.3,0.4v4.5H159.8z M171,73.4c0.2,0,0.4,0.1,0.6,0.2s0.3,0.3,0.3,0.4
		c0,0.1-0.1,0.3-0.3,0.4s-0.4,0.2-0.6,0.2h-2.4v8.9c0,0.3,0.2,0.5,0.5,0.7c0.3,0.2,0.6,0.3,0.8,0.3c0.2,0,0.5,0.1,0.7,0.2
		c0.2,0.1,0.3,0.3,0.3,0.4c0,0.1-0.1,0.3-0.3,0.4c-0.2,0.1-0.4,0.2-0.6,0.2c-0.9,0-1.7-0.2-2.3-0.6c-0.6-0.4-0.9-0.9-0.9-1.5v-8.9
		h-2.3c-0.4,0-0.7,0-0.8-0.2c-0.1-0.1-0.1-0.2-0.1-0.4s0-0.3,0-0.4c0.1-0.2,0.4-0.3,0.9-0.3h2.3v-4.5c0-0.2,0.1-0.3,0.3-0.4
		s0.4-0.2,0.6-0.2c0.2,0,0.5,0.1,0.7,0.2c0.2,0.1,0.3,0.3,0.3,0.4v4.5H171z M193.2,79.1L193.2,79.1c0,0.3-0.1,0.4-0.3,0.5
		c-0.2,0.1-0.4,0.2-0.6,0.2h-15.1c0.1,1.3,0.8,2.4,2.2,3.3c1.4,0.9,3,1.3,4.9,1.3c1.2,0,2.4-0.2,3.4-0.6c1-0.4,1.9-0.9,2.5-1.6
		c0.3-0.3,0.7-0.4,1.2-0.2c0.5,0.2,0.6,0.5,0.3,0.9c-0.8,0.8-1.9,1.5-3.2,2s-2.7,0.8-4.3,0.8c-2.5,0-4.6-0.6-6.3-1.8
		c-1.7-1.2-2.6-2.6-2.6-4.3s0.9-3.1,2.6-4.3c1.7-1.2,3.8-1.8,6.2-1.8c2.4,0,4.5,0.5,6.1,1.6C192.1,76.1,193,77.4,193.2,79.1z
		 M188.9,75.7c-1.3-0.8-2.8-1.1-4.5-1.1s-3.2,0.4-4.5,1.1c-1.3,0.7-2.1,1.7-2.5,2.9h13.9C191,77.4,190.2,76.4,188.9,75.7z M195.9,85
		V74c0-0.2,0.1-0.3,0.3-0.4c0.2-0.1,0.4-0.2,0.6-0.2c0.2,0,0.5,0.1,0.6,0.2c0.2,0.1,0.3,0.3,0.3,0.4v2.7c0.1-0.1,0.2-0.2,0.3-0.3
		c1.9-2,4.4-3,7.4-3c0.2,0,0.5,0.1,0.6,0.2c0.2,0.1,0.3,0.3,0.3,0.4c0,0.2-0.1,0.3-0.3,0.4c-0.2,0.1-0.4,0.2-0.6,0.2
		c-2,0-3.8,0.7-5.3,2c-0.9,0.8-1.6,1.8-2.2,2.8c-0.1,0.1-0.1,0.1-0.1,0.2V85c0,0.2-0.1,0.3-0.3,0.4c-0.2,0.1-0.4,0.2-0.6,0.2
		c-0.3,0-0.5-0.1-0.6-0.2C195.9,85.3,195.9,85.2,195.9,85z M293.2,14.5c12.5,0,22.7,8.3,22.7,18.6c0,10.3-10.2,18.6-22.7,18.6
		c-1.3,0-2.7-0.1-3.9-0.3l-8,9.2c-0.4,0.4-0.7,0.6-1,0.6c-0.4,0-0.7-0.5-0.7-1.3V48.4c0-0.1,0-0.3,0-0.4c-5.6-3.4-9.2-8.8-9.2-14.9
		C270.5,22.8,280.6,14.5,293.2,14.5 M293.2,7.9c-16.2,0-29.4,11.3-29.4,25.2c0,7,3.4,13.6,9.1,18.3v8.5c0,5.2,3.8,8,7.3,8
		c1.3,0,3.8-0.4,6-2.9l5.8-6.7c0.4,0,0.7,0,1.1,0c16.2,0,29.4-11.3,29.4-25.2C322.6,19.2,309.4,7.9,293.2,7.9L293.2,7.9z
		 M236.4,14.5c12.5,0,22.7,8.3,22.7,18.6c0,10.3-10.2,18.6-22.7,18.6c-1.3,0-2.7-0.1-3.9-0.3l-8,9.2c-0.4,0.4-0.7,0.6-1,0.6
		c-0.4,0-0.7-0.5-0.7-1.3V48.4c0-0.1,0-0.3,0-0.4c-5.6-3.4-9.2-8.8-9.2-14.9C213.6,22.8,223.8,14.5,236.4,14.5 M236.4,7.9
		c-16.2,0-29.4,11.3-29.4,25.2c0,7,3.4,13.6,9.1,18.3v8.5c0,5.2,3.8,8,7.3,8c1.3,0,3.8-0.4,6-2.9l5.8-6.7c0.4,0,0.7,0,1.1,0
		c16.2,0,29.4-11.3,29.4-25.2C265.8,19.2,252.6,7.9,236.4,7.9L236.4,7.9z M55.3,54.7c-0.5,0.3-1.6,0.8-3.2,1.4
		c-1.7,0.6-3.7,0.9-6.2,0.9c-5.3,0-8.6-2.9-10-8.7c-2.2,0.2-4.9,0.3-8,0.3c-3.1,0-5-0.1-5.9-0.2c-0.8,3.1-2,5.3-3.5,6.6
		c-1.5,1.3-3.7,2-6.7,2c-1.5,0-2.9-0.2-4.2-0.6c-1.3-0.4-2.3-0.7-2.9-1.1l-1-0.6c2.5-21.9,6-35.2,10.5-39.8c1.7-1.6,3.2-2.6,4.6-3
		c1.4-0.4,2.7-0.6,3.9-0.6c1.2,0,2,0,2.3,0c0.3,0,0.5,0,0.7,0l-0.4-1.4c0.2-0.2,0.5-0.4,0.8-0.7c0.3-0.3,1.3-0.7,2.8-1.2
		c1.5-0.5,3.3-0.8,5.3-0.8c4.2,0,7.5,1.2,10,3.5c2.4,2.3,4.6,6.8,6.6,13.4c1.9,6.6,3.8,16.5,5.5,29.6C56.2,54.1,55.8,54.4,55.3,54.7
		z M23.7,40.4c2-0.2,4.2-0.3,6.4-0.3c2.2,0,3.5,0,3.8,0.1c-2.3-8.5-4.3-15.7-6-21.6C26.3,25,24.9,32.3,23.7,40.4z M72,8.5
		c0.8-0.3,2-0.5,3.5-0.7c1.5-0.2,3.1-0.4,5-0.4s3.1,0.3,4,0.8c1-0.3,2.4-0.4,4.1-0.4c3.6,0,6,1.3,7.2,3.9c1.3,3,3.4,12.1,6.4,27.4
		c3.4-14.5,5.7-23.2,6.9-26.1s2.7-4.6,4.6-5.1c1.3-0.3,2.8-0.3,4.7-0.1c1.7-0.3,3.4-0.4,5.2-0.4c4.7,0,7.7,0.6,9.1,1.8
		c1.4,1.2,2.1,3.2,2.1,6c0,0.1-0.4,5.6-1.2,16.7c-0.8,11-1.2,19-1.2,23.9c-2.4,0.9-5.6,1.3-9.4,1.3c-3.9,0-5.9-1.4-6-4.3l-0.8-25.8
		c-4.6,18.2-9.2,27.2-13.5,27.2H101c-1.8,0-3.4-0.7-4.8-2c-3-2.9-6.3-11.5-9.8-25.7c-1,11.8-1.4,21.6-1.4,29.3
		c-2.3,0.8-4.8,1.3-7.4,1.3c-4.5,0-6.8-1.4-7-4.2l-2.4-42.3c0.2-0.3,0.7-0.6,1.4-1S71.1,8.7,72,8.5z M157,7.4c2.2,0,4,0.4,5.6,1
		c1.6,0.7,2.9,2.1,4.1,4.1c3.2-3.7,8-5.5,14.5-5.5c5,0,9.1,1.4,12.2,4.1c3.1,2.8,4.7,6.7,4.7,11.7c0,3.6-0.8,7-2.4,10.1
		c-1.6,3.1-3.9,5.7-6.9,7.6c0.4,0.3,1.5,1.5,3.5,3.8c1.9,2.2,4.2,4.2,6.6,6c0,0.5-0.3,1.2-1,2.1c-0.6,0.9-1.3,1.7-2.1,2.2
		c-0.8,0.6-1.9,1.1-3.5,1.6c-1.6,0.5-3.4,0.7-5.4,0.7c-4.1,0-7.2-1.3-9.1-3.9l-5.7-8.7c-0.8,0-1.9-0.2-3.3-0.4
		c-0.6,4.8-1.8,8.1-3.4,10c-1.7,1.9-4.1,2.9-7.3,2.9c-1.7,0-3.3-0.2-5-0.7c-1.7-0.5-2.9-1-3.7-1.5l-1.2-0.7c0.6-2.1,1-6.8,1-14.3
		c0-11.2-0.3-20.3-0.8-27.1l-0.3-3C149.8,8.2,152.8,7.4,157,7.4z M169.1,21.9c0.2,2,0.3,4.5,0.3,7.7c0,3.1-0.1,6.1-0.3,9
		c7.1-0.7,10.7-4.2,10.7-10.2c0-2.8-0.8-4.6-2.4-5.3C175.8,22.3,173,21.9,169.1,21.9z M374.6,42.3c0,4.3-2,7.8-6,10.6
		c-4,2.8-9.8,4.1-17.3,4.1c-7.5,0-12.8-0.8-15.8-2.4c-3.1-1.6-4.6-3.4-4.6-5.4c0-1.8,0.3-3.1,1-3.9c1.1-1.4,2.1-2.3,3.1-2.7
		c2.5,1.4,5.3,2.6,8.5,3.7c3.2,1.1,5.6,1.7,7.3,1.7c1.7,0,2.8-0.1,3.5-0.3c0.7-0.2,1.1-0.5,1.2-0.7c0.1-0.3,0.2-0.6,0.2-1.1
		c0-0.9-0.9-1.7-2.6-2.6s-3.8-1.7-6.3-2.5c-2.4-0.9-4.9-1.8-7.3-2.9c-2.4-1.1-4.5-2.6-6.2-4.5c-1.7-1.9-2.6-4-2.6-6.3
		c0-2.3,0.7-4.4,2.2-6.4c1.5-2,3.3-3.6,5.5-4.8c0.1-2.2,2-4.2,5.5-6c3.5-1.8,8.4-2.7,14.6-2.7c11.3,0,17,3.5,17,10.4
		c0,4.2-2.5,7.1-7.6,8.7c-3.5-2.8-10-4.9-19.6-6.2c0.3,2.7,2.1,4.9,5.5,6.7c1.6,0.8,3.3,1.6,5.2,2.3c1.8,0.7,3.7,1.5,5.5,2.3
		c1.8,0.8,3.5,1.7,5,2.6C373,36,374.6,38.8,374.6,42.3z"/>
</g>
<g>
</g>
</svg>
