<?xml version="1.0" encoding="iso-8859-1"?>
<!-- Generator: Adobe Illustrator 17.0.0, SVG Export Plug-In . SVG Version: 6.00 Build 0)  -->
<!DOCTYPE svg PUBLIC "-//W3C//DTD SVG 1.1//EN" "http://www.w3.org/Graphics/SVG/1.1/DTD/svg11.dtd">
<svg version="1.1" id="Layer_3" xmlns="http://www.w3.org/2000/svg" xmlns:xlink="http://www.w3.org/1999/xlink" x="0px" y="0px"
	 width="74px" height="77px" viewBox="0 0 74 77" style="enable-background:new 0 0 74 77;" xml:space="preserve">
<path style="opacity:0.5;fill:#FFFFFF;" d="M38.1,13.3c-13.8,0-25,11.2-25,25s11.2,25,25,25s25-11.2,25-25S51.9,13.3,38.1,13.3z
	 M41,47.7c-0.2,0.4-0.4,0.7-0.7,0.9c-0.3,0.3-0.7,0.5-1.1,0.6c-0.4,0.2-0.8,0.2-1.3,0.2c-0.6,0-1.1-0.1-1.5-0.2s-0.8-0.3-1-0.6
	c-0.3-0.3-0.5-0.5-0.6-0.9c-0.1-0.3-0.2-0.6-0.2-1c0-0.4,0.1-0.7,0.2-1.1c0.1-0.4,0.4-0.7,0.6-1c0.3-0.3,0.6-0.5,1.1-0.7
	c0.4-0.2,0.9-0.3,1.4-0.3c0.5,0,1,0.1,1.4,0.3c0.4,0.2,0.8,0.4,1,0.7c0.3,0.3,0.5,0.6,0.6,0.9c0.1,0.3,0.2,0.6,0.2,0.9
	C41.3,47,41.2,47.4,41,47.7z M45.4,34.8c-0.3,0.6-0.6,1.1-1,1.6c-0.4,0.4-0.9,0.8-1.3,1.2c-0.5,0.4-0.9,0.7-1.4,1.1
	c-0.4,0.4-0.8,0.6-1.1,1c-0.3,0.4-0.4,1.4-0.5,1.4h-4.9c0,0,0.1-1,0.3-1.5c0.2-0.5,0.5-0.8,0.8-1.2c0.3-0.4,0.6-0.7,1-0.9
	s0.7-0.6,1-0.9c0.3-0.3,0.6-0.6,0.8-1c0.2-0.4,0.3-0.8,0.3-1.2c0-0.5-0.1-0.9-0.3-1.2c-0.2-0.3-0.5-0.5-0.8-0.7
	c-0.3-0.2-0.6-0.3-1-0.3c-0.3,0-0.6-0.1-0.9-0.1c-0.9,0-1.7,0.2-2.4,0.6c-0.6,0.4-1.2,0.8-1.6,1.4c0-0.4-0.1-0.8-0.1-1.3
	c0-0.5,0-0.9,0-1.5c0-0.5,0-0.9,0-1.3c0-0.4,0-0.8,0.1-1.3c0.6-0.5,1.4-0.9,2.4-1.2c1-0.3,2.2-0.4,3.5-0.4c0.7,0,1.5,0.1,2.4,0.2
	c0.9,0.1,1.7,0.4,2.4,0.8c0.7,0.4,1.3,0.9,1.8,1.7c0.5,0.7,0.7,1.6,0.7,2.8C45.8,33.5,45.7,34.2,45.4,34.8z"/>
</svg>
