<?xml version="1.0" encoding="iso-8859-1"?>
<!-- Generator: Adobe Illustrator 17.0.0, SVG Export Plug-In . SVG Version: 6.00 Build 0)  -->
<!DOCTYPE svg PUBLIC "-//W3C//DTD SVG 1.1//EN" "http://www.w3.org/Graphics/SVG/1.1/DTD/svg11.dtd">
<svg version="1.1" id="Layer_3" xmlns="http://www.w3.org/2000/svg" xmlns:xlink="http://www.w3.org/1999/xlink" x="0px" y="0px"
	  viewBox="0 0 387 135.7" style="enable-background:new 0 0 387 135.7;" xml:space="preserve">
<g>
	<g>
		<path style="fill:#FFFFFF;" d="M18.3,112V95.7c0-0.2,0.1-0.3,0.3-0.4c0.2-0.1,0.4-0.2,0.6-0.2H25c1.8,0,3.3,0.4,4.6,1.3
			c1.3,0.9,1.9,1.9,1.9,3.2c0,1.3-0.8,2.4-2.5,3.3c1.5,0.4,2.7,1,3.7,1.8c1,0.9,1.4,1.8,1.4,2.9c0,1.4-0.7,2.6-2.2,3.5
			c-1.5,1-3.2,1.5-5.3,1.5h-7.5c-0.3,0-0.5-0.1-0.6-0.2S18.3,112.2,18.3,112z M20.1,102.6H25c1.3,0,2.4-0.3,3.3-0.9
			c0.9-0.6,1.4-1.3,1.4-2.2c0-0.9-0.5-1.6-1.4-2.2c-0.9-0.6-2-0.9-3.3-0.9h-4.9V102.6z M20.1,111.4h6.6c1.5,0,2.9-0.4,4-1.1
			c1.1-0.7,1.7-1.6,1.7-2.7c0-1-0.6-1.9-1.7-2.7c-1.1-0.7-2.4-1.1-4-1.1h-6.6V111.4z"/>
		<path style="fill:#FFFFFF;" d="M52.8,106L52.8,106c0,0.3-0.1,0.4-0.3,0.5c-0.2,0.1-0.4,0.1-0.6,0.1H36.9c0.1,1.3,0.8,2.4,2.2,3.4
			c1.4,0.9,3,1.3,4.9,1.3c1.2,0,2.4-0.2,3.4-0.6c1-0.4,1.9-0.9,2.5-1.6c0.3-0.3,0.7-0.4,1.2-0.2c0.5,0.2,0.6,0.5,0.3,0.9
			c-0.8,0.9-1.9,1.5-3.2,2s-2.7,0.8-4.3,0.8c-2.5,0-4.6-0.6-6.3-1.8c-1.7-1.2-2.6-2.6-2.6-4.3s0.9-3.1,2.6-4.3
			c1.7-1.2,3.8-1.8,6.2-1.8c2.4,0,4.5,0.5,6.1,1.6C51.7,103.1,52.6,104.4,52.8,106z M48.5,102.7c-1.3-0.8-2.8-1.1-4.5-1.1
			s-3.2,0.4-4.5,1.1c-1.3,0.7-2.1,1.7-2.5,2.9h13.9C50.6,104.4,49.8,103.4,48.5,102.7z"/>
		<path style="fill:#FFFFFF;" d="M84.3,100.5c0.2-0.1,0.4-0.2,0.6-0.2c0.2,0,0.5,0.1,0.6,0.2c0.2,0.1,0.3,0.3,0.3,0.4v11
			c0,0.2-0.1,0.3-0.3,0.4c-0.2,0.1-0.4,0.2-0.6,0.2c-0.3,0-0.5-0.1-0.6-0.2s-0.3-0.3-0.3-0.4v-1.8c-0.8,0.8-1.8,1.3-3,1.8
			c-1.2,0.4-2.5,0.6-3.9,0.6c-2.4,0-4.5-0.6-6.2-1.8c-1.7-1.2-2.5-2.6-2.5-4.3c0-1.7,0.8-3.1,2.5-4.3c1.7-1.2,3.8-1.8,6.2-1.8
			c1.4,0,2.7,0.2,3.9,0.6c1.2,0.4,2.2,1,3,1.8v-1.8C84.1,100.8,84.2,100.6,84.3,100.5z M70.3,106.5c0,1.4,0.7,2.5,2,3.5
			c1.4,1,3,1.4,4.9,1.4c1.9,0,3.5-0.5,4.9-1.4c1.3-1,2-2.1,2-3.5c0-1.4-0.7-2.5-2-3.5c-1.4-1-3-1.5-4.9-1.5c-1.9,0-3.5,0.5-4.9,1.5
			C71,103.9,70.3,105.1,70.3,106.5z"/>
		<path style="fill:#FFFFFF;" d="M106.4,110.8c-1.8-1.2-2.8-2.6-2.8-4.4c0-1.7,0.9-3.2,2.8-4.3c1.8-1.2,4-1.8,6.4-1.8
			s4.5,0.5,6.2,1.4c0.2,0.1,0.3,0.2,0.3,0.4c0,0.2-0.1,0.3-0.2,0.4c-0.4,0.3-0.8,0.3-1.2,0.1c-1.4-0.7-3-1.1-5-1.1
			c-1.9,0-3.7,0.5-5.2,1.5c-1.5,1-2.2,2.1-2.2,3.5c0,1.4,0.7,2.5,2.2,3.5c1.5,1,3.2,1.4,5.1,1.4c1.9,0,3.6-0.4,5-1.1
			c0.4-0.2,0.9-0.2,1.3,0.1c0.4,0.3,0.3,0.6-0.2,0.9c-1.7,0.9-3.6,1.3-5.8,1.3C110.4,112.6,108.2,112,106.4,110.8z"/>
		<path style="fill:#FFFFFF;" d="M123.7,112.6h-0.2c-0.6,0-0.9-0.2-0.9-0.6V95.7c0-0.2,0.1-0.3,0.3-0.4c0.2-0.1,0.4-0.2,0.6-0.2
			c0.2,0,0.5,0.1,0.7,0.2c0.2,0.1,0.3,0.3,0.3,0.4v6.4c1.5-1.2,3.4-1.8,5.7-1.8s4.1,0.5,5.6,1.4c1.5,0.9,2.2,2.1,2.2,3.5v6.8
			c0,0.2-0.1,0.3-0.3,0.4s-0.4,0.2-0.7,0.2c-0.3,0-0.5-0.1-0.6-0.2c-0.2-0.1-0.3-0.3-0.3-0.4v-6.8c0-1.1-0.6-1.9-1.7-2.6
			c-1.1-0.7-2.5-1-4.1-1c-1.6,0-3,0.3-4.1,1c-1.1,0.7-1.7,1.5-1.7,2.6v6.9c0,0-0.1,0.1-0.2,0.2C124.2,112.4,124,112.5,123.7,112.6
			C123.7,112.6,123.7,112.6,123.7,112.6z"/>
		<path style="fill:#FFFFFF;" d="M155.7,100.5c0.2-0.1,0.4-0.2,0.6-0.2c0.2,0,0.5,0.1,0.6,0.2c0.2,0.1,0.3,0.3,0.3,0.4v11
			c0,0.2-0.1,0.3-0.3,0.4c-0.2,0.1-0.4,0.2-0.6,0.2c-0.3,0-0.5-0.1-0.6-0.2s-0.3-0.3-0.3-0.4v-1.8c-0.8,0.8-1.8,1.3-3,1.8
			c-1.2,0.4-2.5,0.6-3.9,0.6c-2.4,0-4.5-0.6-6.2-1.8c-1.7-1.2-2.5-2.6-2.5-4.3c0-1.7,0.8-3.1,2.5-4.3c1.7-1.2,3.8-1.8,6.2-1.8
			c1.4,0,2.7,0.2,3.9,0.6c1.2,0.4,2.2,1,3,1.8v-1.8C155.4,100.8,155.5,100.6,155.7,100.5z M141.6,106.5c0,1.4,0.7,2.5,2,3.5
			c1.4,1,3,1.4,4.9,1.4c1.9,0,3.5-0.5,4.9-1.4c1.3-1,2-2.1,2-3.5c0-1.4-0.7-2.5-2-3.5c-1.4-1-3-1.5-4.9-1.5c-1.9,0-3.5,0.5-4.9,1.5
			C142.3,103.9,141.6,105.1,141.6,106.5z"/>
		<path style="fill:#FFFFFF;" d="M166.8,100.3c0.2,0,0.4,0.1,0.6,0.2s0.3,0.3,0.3,0.4s-0.1,0.3-0.3,0.4s-0.4,0.2-0.6,0.2h-2.4v8.9
			c0,0.3,0.2,0.5,0.5,0.6c0.3,0.2,0.6,0.3,0.8,0.3c0.2,0,0.5,0.1,0.7,0.2c0.2,0.1,0.3,0.3,0.3,0.4s-0.1,0.3-0.3,0.4
			c-0.2,0.1-0.4,0.2-0.6,0.2c-0.9,0-1.7-0.2-2.3-0.6c-0.6-0.4-0.9-0.9-0.9-1.5v-8.9h-2.3c-0.4,0-0.7-0.1-0.8-0.2
			c-0.1-0.1-0.1-0.2-0.1-0.4c0-0.2,0-0.3,0-0.4c0.1-0.2,0.4-0.3,0.9-0.3h2.3v-4.5c0-0.2,0.1-0.3,0.3-0.4s0.4-0.2,0.6-0.2
			c0.2,0,0.5,0.1,0.7,0.2c0.2,0.1,0.3,0.3,0.3,0.4v4.5H166.8z"/>
		<path style="fill:#FFFFFF;" d="M178.1,100.3c0.2,0,0.4,0.1,0.6,0.2s0.3,0.3,0.3,0.4s-0.1,0.3-0.3,0.4s-0.4,0.2-0.6,0.2h-2.4v8.9
			c0,0.3,0.2,0.5,0.5,0.6c0.3,0.2,0.6,0.3,0.8,0.3c0.2,0,0.5,0.1,0.7,0.2c0.2,0.1,0.3,0.3,0.3,0.4s-0.1,0.3-0.3,0.4
			c-0.2,0.1-0.4,0.2-0.6,0.2c-0.9,0-1.7-0.2-2.3-0.6c-0.6-0.4-0.9-0.9-0.9-1.5v-8.9h-2.3c-0.4,0-0.7-0.1-0.8-0.2
			c-0.1-0.1-0.1-0.2-0.1-0.4c0-0.2,0-0.3,0-0.4c0.1-0.2,0.4-0.3,0.9-0.3h2.3v-4.5c0-0.2,0.1-0.3,0.3-0.4s0.4-0.2,0.6-0.2
			c0.2,0,0.5,0.1,0.7,0.2c0.2,0.1,0.3,0.3,0.3,0.4v4.5H178.1z"/>
		<path style="fill:#FFFFFF;" d="M200.3,106L200.3,106c0,0.3-0.1,0.4-0.3,0.5c-0.2,0.1-0.4,0.1-0.6,0.1h-15.1
			c0.1,1.3,0.8,2.4,2.2,3.4c1.4,0.9,3,1.3,4.9,1.3c1.2,0,2.4-0.2,3.4-0.6c1-0.4,1.9-0.9,2.5-1.6c0.3-0.3,0.7-0.4,1.2-0.2
			c0.5,0.2,0.6,0.5,0.3,0.9c-0.8,0.9-1.9,1.5-3.2,2s-2.7,0.8-4.3,0.8c-2.5,0-4.6-0.6-6.3-1.8c-1.7-1.2-2.6-2.6-2.6-4.3
			s0.9-3.1,2.6-4.3c1.7-1.2,3.8-1.8,6.2-1.8c2.4,0,4.5,0.5,6.1,1.6C199.1,103.1,200.1,104.4,200.3,106z M195.9,102.7
			c-1.3-0.8-2.8-1.1-4.5-1.1s-3.2,0.4-4.5,1.1c-1.3,0.7-2.1,1.7-2.5,2.9h13.9C198,104.4,197.2,103.4,195.9,102.7z"/>
		<path style="fill:#FFFFFF;" d="M202.9,112v-11c0-0.2,0.1-0.3,0.3-0.4c0.2-0.1,0.4-0.2,0.6-0.2c0.2,0,0.5,0.1,0.6,0.2
			c0.2,0.1,0.3,0.3,0.3,0.4v2.7c0.1-0.1,0.2-0.2,0.3-0.3c1.9-2,4.4-3,7.4-3c0.2,0,0.5,0.1,0.6,0.2c0.2,0.1,0.3,0.3,0.3,0.4
			c0,0.2-0.1,0.3-0.3,0.4c-0.2,0.1-0.4,0.2-0.6,0.2c-2,0-3.8,0.7-5.3,2c-0.9,0.8-1.6,1.8-2.2,2.9c-0.1,0.1-0.1,0.1-0.1,0.2v5.4
			c0,0.2-0.1,0.3-0.3,0.4c-0.2,0.1-0.4,0.2-0.6,0.2c-0.3,0-0.5-0.1-0.6-0.2C203,112.3,202.9,112.2,202.9,112z"/>
	</g>
	<g>
		<g>

				<linearGradient id="SVGID_1_" gradientUnits="userSpaceOnUse" x1="543.6982" y1="96.8393" x2="524.238" y2="32.7551" gradientTransform="matrix(-1 0 0 1 832.7231 0)">
				<stop  offset="0" style="stop-color:#5142F2"/>
				<stop  offset="8.674461e-002" style="stop-color:#5D56F4"/>
				<stop  offset="0.2904" style="stop-color:#7781F8"/>
				<stop  offset="0.4886" style="stop-color:#8BA2FB"/>
				<stop  offset="0.6771" style="stop-color:#99BAFD"/>
				<stop  offset="0.852" style="stop-color:#A2C8FF"/>
				<stop  offset="1" style="stop-color:#A5CDFF"/>
			</linearGradient>
			<path style="fill:url(#SVGID_1_);" d="M287.3,91.6c-1.9,0-4-1.5-4-4.7V76.8c-5.8-4.1-9.1-10.2-9.1-16.7
				c0-12.1,11.7-21.9,26.1-21.9c14.4,0,26.1,9.8,26.1,21.9S314.6,82,300.2,82c-0.9,0-1.7,0-2.6-0.1l-6.8,7.9
				C289.5,91.3,288.2,91.6,287.3,91.6z"/>
			<path style="fill:#FFFFFF;" d="M300.2,41.5c12.5,0,22.7,8.3,22.7,18.6c0,10.3-10.2,18.6-22.7,18.6c-1.3,0-2.7-0.1-3.9-0.3l-8,9.2
				c-0.4,0.4-0.7,0.6-1,0.6c-0.4,0-0.7-0.5-0.7-1.3V75.4c0-0.1,0-0.3,0-0.4c-5.6-3.4-9.2-8.8-9.2-14.9
				C277.5,49.8,287.6,41.5,300.2,41.5 M300.2,34.8c-16.2,0-29.4,11.3-29.4,25.2c0,7,3.4,13.6,9.1,18.3v8.5c0,5.2,3.8,8,7.3,8
				c1.3,0,3.8-0.4,6-2.9l5.8-6.7c0.4,0,0.7,0,1.1,0c16.2,0,29.4-11.3,29.4-25.2C329.6,46.2,316.4,34.8,300.2,34.8L300.2,34.8z"/>
		</g>
		<g>

				<linearGradient id="SVGID_2_" gradientUnits="userSpaceOnUse" x1="409.9776" y1="42.6203" x2="409.9776" y2="111.4414" gradientTransform="matrix(-1 0 0 1 653.3604 0)">
				<stop  offset="0" style="stop-color:#FFD1BD"/>
				<stop  offset="0.5422" style="stop-color:#DFA2B3"/>
				<stop  offset="1" style="stop-color:#C277A9"/>
			</linearGradient>
			<path style="fill:url(#SVGID_2_);" d="M230.5,91.6c-1.9,0-4-1.5-4-4.7V76.8c-5.8-4.1-9.1-10.2-9.1-16.7
				c0-12.1,11.7-21.9,26.1-21.9c14.4,0,26.1,9.8,26.1,21.9c0,12.1-11.7,21.9-26.1,21.9c-0.9,0-1.7,0-2.6-0.1l-6.8,7.9
				C232.7,91.3,231.4,91.6,230.5,91.6z"/>
			<path style="fill:#FFFFFF;" d="M243.4,41.5c12.5,0,22.7,8.3,22.7,18.6c0,10.3-10.2,18.6-22.7,18.6c-1.3,0-2.7-0.1-3.9-0.3l-8,9.2
				c-0.4,0.4-0.7,0.6-1,0.6c-0.4,0-0.7-0.5-0.7-1.3V75.4c0-0.1,0-0.3,0-0.4c-5.6-3.4-9.2-8.8-9.2-14.9
				C220.7,49.8,230.8,41.5,243.4,41.5 M243.4,34.8c-16.2,0-29.4,11.3-29.4,25.2c0,7,3.4,13.6,9.1,18.3v8.5c0,5.2,3.8,8,7.3,8
				c1.3,0,3.8-0.4,6-2.9l5.8-6.7c0.4,0,0.7,0,1.1,0c16.2,0,29.4-11.3,29.4-25.2C272.8,46.2,259.6,34.8,243.4,34.8L243.4,34.8z"/>
		</g>
	</g>
	<g>
		<path style="fill:#FFFFFF;" d="M62.3,81.7c-0.5,0.4-1.6,0.8-3.2,1.4c-1.7,0.6-3.7,0.9-6.2,0.9c-5.3,0-8.6-2.9-10-8.7
			c-2.2,0.2-4.9,0.3-8,0.3c-3.1,0-5-0.1-5.9-0.2c-0.8,3.1-2,5.3-3.5,6.6c-1.5,1.3-3.7,2-6.7,2c-1.5,0-2.9-0.2-4.2-0.6
			c-1.3-0.4-2.3-0.7-2.9-1.1l-1-0.6c2.5-21.9,6-35.2,10.5-39.8c1.7-1.6,3.2-2.6,4.6-3c1.4-0.4,2.7-0.6,3.9-0.6c1.2,0,2,0,2.3,0
			c0.3,0,0.5,0,0.7,0l-0.4-1.4c0.2-0.2,0.5-0.4,0.8-0.7c0.3-0.3,1.3-0.7,2.8-1.2c1.5-0.5,3.3-0.8,5.3-0.8c4.2,0,7.5,1.2,10,3.5
			c2.4,2.3,4.6,6.8,6.6,13.4c1.9,6.6,3.8,16.5,5.5,29.6C63.2,81.1,62.8,81.4,62.3,81.7z M30.7,67.3c2-0.2,4.2-0.3,6.4-0.3
			c2.2,0,3.5,0,3.8,0.1c-2.3-8.5-4.3-15.7-6-21.6C33.3,52,31.9,59.3,30.7,67.3z"/>
		<path style="fill:#FFFFFF;" d="M79,35.5c0.8-0.3,2-0.5,3.5-0.7c1.5-0.2,3.1-0.4,5-0.4s3.1,0.3,4,0.8c1-0.3,2.4-0.4,4.1-0.4
			c3.6,0,6,1.3,7.2,3.9c1.3,3,3.4,12.1,6.4,27.4c3.4-14.5,5.7-23.2,6.9-26.1s2.7-4.6,4.6-5.1c1.3-0.3,2.8-0.3,4.7-0.1
			c1.7-0.3,3.4-0.4,5.2-0.4c4.7,0,7.7,0.6,9.1,1.8c1.4,1.2,2.1,3.2,2.1,6c0,0.1-0.4,5.6-1.2,16.7c-0.8,11-1.2,19-1.2,23.9
			c-2.4,0.9-5.6,1.3-9.4,1.3c-3.9,0-5.9-1.4-6-4.3l-0.8-25.8c-4.6,18.2-9.2,27.2-13.5,27.2H108c-1.8,0-3.4-0.7-4.8-2
			c-3-2.9-6.3-11.5-9.8-25.7C92.4,65.2,92,75,92,82.7c-2.3,0.8-4.8,1.3-7.4,1.3c-4.5,0-6.8-1.4-7-4.2l-2.4-42.3
			c0.2-0.3,0.7-0.6,1.4-1C77.4,36,78.2,35.7,79,35.5z"/>
		<path style="fill:#FFFFFF;" d="M164,34.4c2.2,0,4,0.4,5.6,1c1.6,0.7,2.9,2.1,4.1,4.1c3.2-3.7,8-5.5,14.5-5.5c5,0,9.1,1.4,12.2,4.1
			c3.1,2.8,4.7,6.6,4.7,11.7c0,3.6-0.8,7-2.4,10.1c-1.6,3.1-3.9,5.7-6.9,7.6c0.4,0.3,1.5,1.5,3.5,3.8c1.9,2.2,4.2,4.2,6.6,5.9
			c0,0.5-0.3,1.2-1,2.1c-0.6,0.9-1.3,1.7-2.1,2.2c-0.8,0.6-1.9,1.1-3.5,1.6c-1.6,0.5-3.4,0.7-5.4,0.7c-4.1,0-7.2-1.3-9.1-3.9
			l-5.7-8.7c-0.8,0-1.9-0.2-3.3-0.4c-0.6,4.8-1.8,8.1-3.4,10c-1.7,1.9-4.1,2.9-7.3,2.9c-1.7,0-3.3-0.2-5-0.7c-1.7-0.5-2.9-1-3.7-1.5
			l-1.2-0.7c0.6-2.1,1-6.8,1-14.3c0-11.2-0.3-20.3-0.8-27.1l-0.3-3C156.8,35.1,159.9,34.4,164,34.4z M176.1,48.9
			c0.2,2,0.3,4.5,0.3,7.7c0,3.1-0.1,6.1-0.3,9c7.1-0.7,10.7-4.2,10.7-10.2c0-2.8-0.8-4.6-2.4-5.3C182.8,49.3,180.1,48.9,176.1,48.9z
			"/>
		<path style="fill:#FFFFFF;" d="M381.6,69.3c0,4.3-2,7.8-6,10.6c-4,2.8-9.8,4.1-17.3,4.1c-7.5,0-12.8-0.8-15.8-2.4
			s-4.6-3.4-4.6-5.4c0-1.8,0.3-3.1,1-3.9c1.1-1.4,2.1-2.3,3.1-2.7c2.5,1.4,5.3,2.6,8.5,3.7c3.2,1.1,5.6,1.7,7.3,1.7
			c1.7,0,2.8-0.1,3.5-0.4c0.7-0.2,1.1-0.5,1.2-0.7c0.1-0.3,0.2-0.6,0.2-1.1c0-0.9-0.9-1.7-2.6-2.6c-1.7-0.8-3.8-1.7-6.2-2.5
			c-2.4-0.9-4.9-1.8-7.3-2.9c-2.4-1.1-4.5-2.6-6.2-4.5c-1.7-1.9-2.6-4-2.6-6.3s0.7-4.4,2.2-6.4c1.5-2,3.3-3.6,5.5-4.8
			c0.1-2.2,2-4.2,5.5-6c3.5-1.8,8.4-2.7,14.6-2.7c11.3,0,17,3.5,17,10.4c0,4.2-2.5,7.1-7.6,8.7c-3.5-2.8-10-4.9-19.6-6.2
			c0.3,2.7,2.1,4.9,5.5,6.7c1.6,0.8,3.3,1.6,5.2,2.3c1.8,0.7,3.7,1.5,5.5,2.3c1.8,0.8,3.5,1.7,5,2.6C380,63,381.6,65.8,381.6,69.3z"
			/>
	</g>
</g>
</svg>
