<?xml version="1.0" encoding="iso-8859-1"?>
<!-- Generator: Adobe Illustrator 17.0.0, SVG Export Plug-In . SVG Version: 6.00 Build 0)  -->
<!DOCTYPE svg PUBLIC "-//W3C//DTD SVG 1.1//EN" "http://www.w3.org/Graphics/SVG/1.1/DTD/svg11.dtd">
<svg version="1.1" id="Layer_4" xmlns="http://www.w3.org/2000/svg" xmlns:xlink="http://www.w3.org/1999/xlink" x="0px" y="0px"
	 width="177px" height="40px" viewBox="0 0 177 40" style="enable-background:new 0 0 177 40;" xml:space="preserve">
<g>
	<path style="fill:#FFFFFF;" d="M136,12.9c5.7,0,10.3,3.8,10.3,8.4c0,4.7-4.6,8.4-10.3,8.4c-0.6,0-1.2,0-1.8-0.1l-3.6,4.2
		c-0.2,0.2-0.3,0.3-0.4,0.3c-0.2,0-0.3-0.2-0.3-0.6v-5.2c0-0.1,0-0.1,0-0.2c-2.5-1.5-4.2-4-4.2-6.8C125.7,16.7,130.3,12.9,136,12.9
		 M136,9.9c-7.4,0-13.4,5.1-13.4,11.5c0,3.2,1.5,6.2,4.2,8.3v3.9c0,2.4,1.7,3.6,3.3,3.6c0.6,0,1.7-0.2,2.7-1.3l2.6-3
		c0.2,0,0.3,0,0.5,0c7.4,0,13.4-5.1,13.4-11.5C149.4,15,143.4,9.9,136,9.9L136,9.9z M110.2,12.9c5.7,0,10.3,3.8,10.3,8.4
		s-4.6,8.4-10.3,8.4c-0.6,0-1.2,0-1.8-0.1l-3.6,4.2c-0.2,0.2-0.3,0.3-0.4,0.3c-0.2,0-0.3-0.2-0.3-0.6v-5.2c0-0.1,0-0.1,0-0.2
		c-2.5-1.5-4.2-4-4.2-6.8C99.9,16.7,104.5,12.9,110.2,12.9 M110.2,9.9c-7.4,0-13.4,5.1-13.4,11.5c0,3.2,1.5,6.2,4.2,8.3v3.9
		c0,2.4,1.7,3.6,3.3,3.6c0.6,0,1.7-0.2,2.7-1.3l2.6-3c0.2,0,0.3,0,0.5,0c7.4,0,13.4-5.1,13.4-11.5C123.5,15,117.6,9.9,110.2,9.9
		L110.2,9.9z M27.9,31.1c-0.2,0.2-0.7,0.4-1.5,0.6c-0.8,0.3-1.7,0.4-2.8,0.4c-2.4,0-3.9-1.3-4.6-3.9c-1,0.1-2.2,0.1-3.6,0.1
		c-1.4,0-2.3,0-2.7-0.1c-0.4,1.4-0.9,2.4-1.6,3c-0.7,0.6-1.7,0.9-3.1,0.9c-0.7,0-1.3-0.1-1.9-0.3c-0.6-0.2-1-0.3-1.3-0.5l-0.4-0.3
		c1.1-10,2.7-16,4.8-18.1c0.8-0.7,1.4-1.2,2.1-1.4c0.6-0.2,1.2-0.3,1.8-0.3c0.5,0,0.9,0,1,0c0.1,0,0.2,0,0.3,0l-0.2-0.6
		c0.1-0.1,0.2-0.2,0.4-0.3c0.2-0.1,0.6-0.3,1.3-0.6c0.7-0.2,1.5-0.3,2.4-0.3c1.9,0,3.4,0.5,4.5,1.6c1.1,1,2.1,3.1,3,6.1
		c0.9,3,1.7,7.5,2.5,13.4C28.3,30.9,28.2,31,27.9,31.1z M13.6,24.6c0.9-0.1,1.9-0.1,2.9-0.1c1,0,1.6,0,1.7,0c-1-3.9-2-7.1-2.7-9.8
		C14.8,17.7,14.1,20.9,13.6,24.6z M35.5,10.1c0.4-0.1,0.9-0.2,1.6-0.3c0.7-0.1,1.4-0.2,2.3-0.2c0.8,0,1.4,0.1,1.8,0.4
		c0.5-0.1,1.1-0.2,1.9-0.2c1.6,0,2.7,0.6,3.3,1.7c0.6,1.4,1.5,5.5,2.9,12.4c1.6-6.6,2.6-10.5,3.1-11.8s1.2-2.1,2.1-2.3
		c0.6-0.1,1.3-0.1,2.1,0c0.8-0.1,1.5-0.2,2.4-0.2c2.1,0,3.5,0.3,4.1,0.8c0.6,0.5,0.9,1.4,0.9,2.7c0,0-0.2,2.6-0.6,7.6
		s-0.6,8.6-0.6,10.8c-1.1,0.4-2.5,0.6-4.3,0.6c-1.8,0-2.7-0.6-2.7-1.9l-0.3-11.7c-2.1,8.2-4.2,12.4-6.2,12.4h-0.6
		c-0.8,0-1.6-0.3-2.2-0.9c-1.4-1.3-2.8-5.2-4.5-11.7c-0.4,5.4-0.7,9.8-0.7,13.3c-1,0.4-2.2,0.6-3.4,0.6c-2,0-3.1-0.6-3.2-1.9
		L33.8,11c0.1-0.1,0.3-0.3,0.6-0.5S35.1,10.2,35.5,10.1z M74.1,9.6c1,0,1.8,0.2,2.5,0.5c0.7,0.3,1.3,0.9,1.8,1.8
		c1.4-1.7,3.6-2.5,6.6-2.5c2.3,0,4.1,0.6,5.5,1.9c1.4,1.3,2.1,3,2.1,5.3c0,1.7-0.4,3.2-1.1,4.6s-1.8,2.6-3.1,3.5
		c0.2,0.1,0.7,0.7,1.6,1.7c0.9,1,1.9,1.9,3,2.7c0,0.2-0.1,0.6-0.4,1c-0.3,0.4-0.6,0.8-1,1c-0.3,0.3-0.9,0.5-1.6,0.7
		c-0.7,0.2-1.5,0.3-2.5,0.3c-1.9,0-3.3-0.6-4.1-1.8l-2.6-3.9c-0.3,0-0.9-0.1-1.5-0.2c-0.3,2.2-0.8,3.7-1.6,4.6
		c-0.8,0.9-1.8,1.3-3.3,1.3c-0.8,0-1.5-0.1-2.3-0.3s-1.3-0.5-1.7-0.7l-0.6-0.3c0.3-0.9,0.4-3.1,0.4-6.5c0-5.1-0.1-9.2-0.3-12.3
		L70,10.7C70.9,10,72.3,9.6,74.1,9.6z M79.6,16.3c0.1,0.9,0.1,2.1,0.1,3.5s0,2.8-0.1,4.1c3.2-0.3,4.9-1.9,4.9-4.6
		c0-1.3-0.4-2.1-1.1-2.4C82.7,16.4,81.4,16.3,79.6,16.3z M173,25.5c0,2-0.9,3.6-2.7,4.8s-4.4,1.9-7.8,1.9c-3.4,0-5.8-0.4-7.2-1.1
		s-2.1-1.5-2.1-2.4c0-0.8,0.1-1.4,0.4-1.7c0.5-0.6,1-1,1.4-1.2c1.1,0.6,2.4,1.2,3.9,1.7c1.5,0.5,2.6,0.8,3.3,0.8s1.3-0.1,1.6-0.2
		c0.3-0.1,0.5-0.2,0.6-0.3c0.1-0.1,0.1-0.3,0.1-0.5c0-0.4-0.4-0.8-1.2-1.2c-0.8-0.4-1.7-0.8-2.8-1.1c-1.1-0.4-2.2-0.8-3.3-1.3
		c-1.1-0.5-2-1.2-2.8-2.1c-0.8-0.9-1.2-1.8-1.2-2.9c0-1,0.3-2,1-2.9c0.7-0.9,1.5-1.6,2.5-2.2c0.1-1,0.9-1.9,2.5-2.7s3.8-1.2,6.6-1.2
		c5.1,0,7.7,1.6,7.7,4.7c0,1.9-1.2,3.2-3.5,3.9c-1.6-1.3-4.6-2.2-8.9-2.8c0.1,1.2,1,2.2,2.5,3.1c0.7,0.4,1.5,0.7,2.3,1
		c0.8,0.3,1.7,0.7,2.5,1s1.6,0.8,2.3,1.2C172.3,22.6,173,23.9,173,25.5z"/>
</g>
<g>
</g>
</svg>
