<?xml version="1.0" encoding="iso-8859-1"?>
<!-- Generator: Adobe Illustrator 17.0.0, SVG Export Plug-In . SVG Version: 6.00 Build 0)  -->
<!DOCTYPE svg PUBLIC "-//W3C//DTD SVG 1.1//EN" "http://www.w3.org/Graphics/SVG/1.1/DTD/svg11.dtd">
<svg version="1.1" xmlns="http://www.w3.org/2000/svg" xmlns:xlink="http://www.w3.org/1999/xlink" x="0px" y="0px" width="400px"
	 height="136px" viewBox="0 0 400 136" style="enable-background:new 0 0 400 136;" xml:space="preserve">
<g id="Layer_4" style="display:none;">
	<rect x="-227" y="-1503" style="display:inline;" width="1206" height="7848"/>
</g>
<g id="Layer_10">
	<g>
		<g>
			<g>
				<g>
					<path style="fill:#715F6A;" d="M187.222,9.525c-0.214,0.978-0.437,1.97-0.667,2.975c0.661,0,1.386-0.02,2.178-0.063
						c0.792-0.045,1.559-0.08,2.306-0.109c-0.171,0.603-0.258,1.193-0.258,1.767c-0.747-0.029-1.53-0.064-2.35-0.107
						c-0.819-0.044-1.559-0.064-2.22-0.064l-1.683,8.106c-0.084,0.461-0.186,0.973-0.302,1.533c-0.114,0.559-0.22,1.111-0.322,1.659
						c-0.099,0.545-0.186,1.071-0.258,1.574c-0.072,0.503-0.107,0.926-0.107,1.272c0,0.577,0.101,1.066,0.301,1.466
						c0.201,0.403,0.454,0.726,0.756,0.971c0.302,0.243,0.631,0.424,0.992,0.539c0.359,0.114,0.696,0.171,1.013,0.171
						c0.488,0,0.977-0.079,1.466-0.235c0.488-0.159,0.949-0.366,1.378-0.626l-0.084,1.121c-0.575,0.458-1.273,0.777-2.092,0.948
						c-0.82,0.173-1.589,0.26-2.308,0.26c-0.545,0-1.096-0.079-1.65-0.238c-0.558-0.158-1.047-0.393-1.473-0.711
						c-0.426-0.316-0.774-0.725-1.043-1.228c-0.269-0.503-0.403-1.085-0.403-1.748c0-0.574,0.063-1.178,0.19-1.81
						c0.128-0.633,0.263-1.307,0.403-2.025c0.313-1.468,0.566-2.661,0.766-3.58c0.197-0.92,0.375-1.747,0.529-2.478
						c0.158-0.735,0.306-1.468,0.447-2.201c0.143-0.733,0.326-1.647,0.552-2.738c-0.397,0-0.842,0.007-1.338,0.02
						c-0.495,0.015-0.983,0.037-1.465,0.065c0.084-0.23,0.148-0.458,0.19-0.69c0.044-0.229,0.064-0.562,0.064-0.992
						c0.454,0.029,0.929,0.064,1.427,0.109c0.494,0.042,0.929,0.063,1.298,0.063l0.773-4.569l3.754-1.381
						C187.691,7.556,187.438,8.547,187.222,9.525"/>
					<path style="fill:#715F6A;" d="M198.866,13.364c0.675-0.458,1.338-0.82,1.986-1.077c0.646-0.26,1.255-0.431,1.832-0.518
						c0.575-0.086,1.092-0.129,1.552-0.129c1.092,0,2.02,0.173,2.782,0.517c0.762,0.345,1.381,0.771,1.854,1.273
						c0.475,0.503,0.819,1.049,1.034,1.639c0.219,0.59,0.325,1.128,0.325,1.616c0,0.23-0.015,0.461-0.042,0.691
						c-0.031,0.229-0.094,0.584-0.196,1.057c-0.102,0.473-0.237,1.113-0.408,1.918c-0.173,0.805-0.405,1.885-0.692,3.233
						c-0.229,1.209-0.473,2.402-0.733,3.581c-0.257,1.179-0.472,2.327-0.646,3.451c-0.058,0.401-0.099,0.722-0.131,0.97
						c-0.027,0.245-0.057,0.467-0.083,0.667c-0.233-0.027-0.498-0.042-0.8-0.042s-0.612,0-0.926,0c-0.374,0-0.711,0-1.015,0
						c-0.301,0-0.579,0.015-0.839,0.042c0.057-0.171,0.181-0.604,0.366-1.292c0.185-0.692,0.394-1.51,0.624-2.459
						c0.233-0.949,0.476-1.968,0.736-3.061c0.258-1.094,0.495-2.151,0.71-3.171c0.215-1.02,0.396-1.956,0.539-2.803
						c0.144-0.849,0.215-1.487,0.215-1.918c0-0.517-0.084-1.005-0.257-1.466c-0.173-0.46-0.431-0.877-0.777-1.25
						c-0.347-0.375-0.785-0.669-1.317-0.885c-0.532-0.215-1.156-0.322-1.874-0.322c-0.318,0-0.778,0.052-1.381,0.15
						c-0.605,0.102-1.243,0.345-1.919,0.735c-0.676,0.388-1.321,0.968-1.941,1.745c-0.618,0.778-1.1,1.842-1.445,3.192
						c-0.144,0.574-0.331,1.394-0.559,2.457c-0.231,1.065-0.468,2.208-0.713,3.431c-0.243,1.221-0.473,2.458-0.69,3.708
						c-0.216,1.249-0.381,2.322-0.494,3.212c-0.233-0.027-0.484-0.042-0.756-0.042c-0.275,0-0.567,0-0.884,0
						c-0.287,0-0.604,0-0.949,0c-0.344,0-0.661,0.015-0.948,0.042c0.114-0.317,0.331-1.119,0.646-2.414
						c0.317-1.294,0.683-2.867,1.099-4.723c0.418-1.854,0.871-3.894,1.36-6.122c0.488-2.227,0.955-4.47,1.401-6.729
						c0.446-2.257,0.862-4.441,1.251-6.552c0.388-2.114,0.696-3.976,0.926-5.585c0.46,0.114,1.034,0.173,1.726,0.173
						c0.284,0,0.594-0.015,0.925-0.044c0.332-0.029,0.627-0.071,0.884-0.129c-0.317,1.236-0.624,2.466-0.926,3.688
						c-0.302,1.221-0.599,2.478-0.883,3.772c-0.173,0.691-0.325,1.344-0.453,1.961c-0.131,0.62-0.26,1.221-0.389,1.812
						c-0.131,0.59-0.258,1.185-0.389,1.789c-0.129,0.607-0.28,1.268-0.452,1.986l0.171,0.086
						C197.537,14.444,198.192,13.826,198.866,13.364"/>
					<path style="fill:#715F6A;" d="M223.059,32.23c-1.193,0.273-2.408,0.411-3.645,0.411c-0.918,0-1.881-0.125-2.888-0.367
						c-1.007-0.245-1.934-0.703-2.78-1.381c-0.85-0.675-1.545-1.582-2.091-2.716c-0.55-1.136-0.82-2.567-0.82-4.29
						c0-1.696,0.265-3.293,0.796-4.788c0.533-1.495,1.287-2.794,2.263-3.901c0.979-1.107,2.149-1.985,3.516-2.631
						c1.366-0.647,2.867-0.971,4.506-0.971c1.035,0,2.012,0.124,2.933,0.367c0.92,0.245,1.738,0.646,2.458,1.207
						c0.721,0.562,1.287,1.295,1.7,2.198c0.42,0.907,0.63,2.006,0.63,3.3c0,0.807-0.061,1.496-0.175,2.069
						c-0.113,0.577-0.212,1.053-0.299,1.424c-0.601-0.027-1.148-0.057-1.632-0.087c-0.49-0.026-0.967-0.048-1.443-0.064
						c-0.472-0.014-0.966-0.029-1.484-0.041c-0.516-0.016-1.1-0.024-1.759-0.024h-4.517c-0.69,0-1.378,0.015-2.066,0.045
						c-0.686,0.027-1.289,0.042-1.805,0.042c-0.057,0.288-0.107,0.631-0.15,1.031c-0.044,0.401-0.065,0.887-0.065,1.46
						c0,1.401,0.215,2.533,0.645,3.39c0.428,0.858,0.951,1.532,1.567,2.019c0.619,0.486,1.291,0.816,2.023,0.985
						c0.728,0.173,1.397,0.258,1.998,0.258c0.827,0,1.583-0.084,2.254-0.253c0.673-0.17,1.277-0.367,1.806-0.592
						c0.53-0.227,0.989-0.472,1.377-0.74c0.385-0.269,0.706-0.488,0.966-0.657h0.129l-0.56,1.941
						C225.379,31.504,224.251,31.959,223.059,32.23 M219.997,13.169c-0.702,0.216-1.394,0.604-2.069,1.164
						c-0.676,0.562-1.3,1.324-1.877,2.287c-0.574,0.963-1.019,2.191-1.334,3.686c0.89,0.06,1.868,0.101,2.933,0.129
						c1.06,0.029,2.039,0.044,2.93,0.044h1.379c0.72,0,1.484-0.005,2.287-0.022c0.804-0.014,1.495-0.064,2.07-0.151
						c0.057-0.258,0.114-0.567,0.173-0.926c0.056-0.359,0.084-0.827,0.084-1.401c0-0.949-0.133-1.753-0.407-2.417
						c-0.275-0.661-0.634-1.192-1.079-1.594c-0.448-0.401-0.945-0.691-1.489-0.862c-0.543-0.173-1.107-0.258-1.681-0.258
						C221.339,12.847,220.701,12.954,219.997,13.169z"/>
				</g>
			</g>
			<g>
				<g>
					<path style="fill:#715F6A;" d="M131.9,30.981c-0.097-3.112-0.242-6.237-0.434-9.373c0.82,0.097,1.711,0.181,2.678,0.253
						c0.963,0.072,2.05,0.109,3.258,0.109c1.591,0,3.376-0.06,5.357-0.181c1.978-0.121,4.558-0.181,7.744-0.181
						c4.149,0,7.925,0.374,11.328,1.122c3.403,0.747,6.335,2.014,8.797,3.799c2.461,1.786,4.366,4.188,5.717,7.202
						c1.351,3.017,2.028,6.819,2.028,11.401c0,4.006-0.665,7.625-1.991,10.857c-1.328,3.235-3.137,5.997-5.43,8.288
						c-2.291,2.293-4.947,4.043-7.96,5.249c-3.017,1.205-6.241,1.809-9.666,1.809c-3.617,0-6.706-0.026-9.263-0.072
						c-2.561-0.048-4.777-0.072-6.66-0.072c-1.208,0-2.295,0-3.258,0c-0.967,0-1.858,0.048-2.678,0.144
						c0.192-2.993,0.337-6.043,0.434-9.156c0.095-3.114,0.144-6.672,0.144-10.679v-9.844
						C132.044,37.653,131.995,34.094,131.9,30.981 M142.759,56.788v4.343c0,1.398,0.011,2.678,0.034,3.836
						c0.024,1.159,0.038,1.907,0.038,2.244c0.722,0.048,1.591,0.097,2.606,0.144c1.012,0.049,2.266,0.072,3.762,0.072
						c5.452,0,9.772-1.857,12.958-5.573c3.186-3.715,4.776-9.338,4.776-16.867c0-2.991-0.397-5.669-1.193-8.034
						c-0.797-2.365-1.919-4.381-3.365-6.046c-1.447-1.664-3.186-2.942-5.212-3.834c-2.028-0.894-4.296-1.34-6.805-1.34
						c-1.737,0-3.148,0.035-4.233,0.109c-1.085,0.072-2.183,0.158-3.293,0.253c0,0.337-0.014,1.085-0.038,2.244
						c-0.023,1.158-0.034,2.459-0.034,3.909V56.788z"/>
					<path style="fill:#715F6A;" d="M186.876,36.881c2.34-0.868,4.668-1.303,6.985-1.303c1.93,0,3.705,0.218,5.321,0.652
						c1.616,0.435,3.016,1.121,4.199,2.063c1.182,0.941,2.1,2.16,2.749,3.655c0.653,1.498,0.979,3.307,0.979,5.427
						c0,3.09-0.037,5.95-0.11,8.579c-0.072,2.631-0.109,5.249-0.109,7.855c0,1.158,0.084,2.063,0.254,2.714
						c0.167,0.652,0.42,1.147,0.762,1.484c0.335,0.337,0.782,0.554,1.336,0.652c0.556,0.097,1.196,0.146,1.919,0.146v1.736
						c-1.401,0.581-2.582,1.015-3.546,1.304c-0.967,0.288-2.004,0.435-3.112,0.435c-1.786,0-3.235-0.435-4.345-1.304
						c-1.109-0.868-1.955-2.123-2.533-3.764c-1.11,1.544-2.402,2.776-3.873,3.692c-1.473,0.915-3.319,1.377-5.539,1.377
						c-1.834,0-3.401-0.243-4.704-0.725c-1.304-0.483-2.378-1.17-3.222-2.062c-0.845-0.894-1.46-1.907-1.844-3.043
						c-0.389-1.132-0.579-2.278-0.579-3.439c0-1.591,0.253-2.965,0.76-4.126c0.506-1.158,1.23-2.145,2.172-2.967
						c0.94-0.819,2.062-1.508,3.365-2.063c1.303-0.554,2.774-1.024,4.415-1.411c2.028-0.482,3.63-0.905,4.814-1.268
						c1.182-0.362,2.062-0.724,2.642-1.085c0.581-0.362,0.952-0.76,1.122-1.196c0.169-0.433,0.254-0.963,0.254-1.59
						c0-1.738-0.618-3.222-1.846-4.452c-1.231-1.231-2.933-1.847-5.104-1.847c-0.822,0-1.665,0.11-2.533,0.328
						c-0.869,0.216-1.703,0.518-2.499,0.903c-0.797,0.388-1.519,0.808-2.171,1.268c-0.652,0.458-1.147,0.954-1.485,1.483h-0.507
						l-0.941-4.343C182.354,39.005,184.535,37.75,186.876,36.881 M197.516,55.592c0.024-1.085,0.038-2.038,0.038-2.859
						c-1.015,0.581-2.088,1.05-3.221,1.413c-1.136,0.36-2.172,0.82-3.112,1.375c-0.943,0.555-1.715,1.315-2.318,2.278
						C188.301,58.767,188,60.165,188,62c0,1.786,0.371,3.148,1.121,4.09c0.748,0.939,1.749,1.411,3.002,1.411
						c1.594,0,2.886-0.604,3.875-1.809c0.988-1.208,1.484-2.992,1.484-5.358C197.482,58.259,197.494,56.679,197.516,55.592z"/>
					<path style="fill:#715F6A;" d="M232.662,66.126c-1.351,2.027-2.931,3.56-4.742,4.595c-1.809,1.038-3.873,1.559-6.189,1.559
						c-3.62,0-6.407-1.015-8.36-3.041c-1.955-2.027-2.933-5.381-2.933-10.062c0-2.462,0.048-4.633,0.147-6.515
						c0.094-1.883,0.143-3.765,0.143-5.645c0-1.545-0.037-3.222-0.109-5.03c-0.073-1.812-0.156-3.632-0.254-5.467
						c0.627,0.098,1.423,0.181,2.39,0.253c0.963,0.072,1.978,0.109,3.041,0.109c1.062,0,2.073-0.037,3.04-0.109
						c0.963-0.072,1.76-0.155,2.389-0.253c-0.339,2.606-0.556,5.623-0.653,9.048c-0.095,3.428-0.144,7.337-0.144,11.727
						c0,3.04,0.518,5.272,1.556,6.695c1.036,1.424,2.497,2.137,4.379,2.137c2.172,0,3.765-0.941,4.777-2.824
						c1.015-1.883,1.522-4.489,1.522-7.817v-2.896c0-2.942-0.037-5.706-0.109-8.289c-0.073-2.579-0.23-5.174-0.471-7.781
						c1.351,0.241,3.158,0.362,5.43,0.362c1.109,0,2.122-0.037,3.04-0.109c0.913-0.072,1.711-0.155,2.386-0.253
						c-0.241,2.606-0.397,5.202-0.468,7.781c-0.075,2.583-0.11,5.347-0.11,8.289v2.896c0,2.944,0.035,5.718,0.11,8.325
						c0.071,2.605,0.227,5.114,0.468,7.527c-0.868-0.097-1.726-0.144-2.568-0.144c-0.845,0-1.699,0-2.569,0
						c-0.868,0-1.726,0-2.569,0c-0.846,0-1.749,0.048-2.716,0.144l0.29-5.211H232.662"/>
					<path style="fill:#715F6A;" d="M256.55,41.948c1.348-2.027,2.93-3.594,4.74-4.705c1.809-1.11,3.874-1.665,6.19-1.665
						c3.617,0,6.405,1.05,8.359,3.149c1.956,2.099,2.93,5.49,2.93,10.169c0,2.462-0.048,4.634-0.141,6.515
						c-0.098,1.883-0.146,3.765-0.146,5.646c0,1.547,0.037,3.221,0.109,5.033c0.071,1.809,0.154,3.557,0.25,5.246
						c-0.626-0.097-1.423-0.144-2.387-0.144c-0.964,0-1.981,0-3.04,0c-1.061,0-2.074,0-3.039,0c-0.966,0-1.762,0.048-2.389,0.144
						c0.336-2.508,0.554-5.464,0.65-8.866c0.097-3.403,0.146-7.299,0.146-11.693c0-3.039-0.52-5.271-1.556-6.695
						c-1.039-1.423-2.497-2.136-4.383-2.136c-2.17,0-3.762,0.941-4.776,2.822c-1.012,1.884-1.518,4.489-1.518,7.819v2.896
						c0,2.944,0.034,5.718,0.109,8.325c0.072,2.605,0.229,5.114,0.469,7.527c-0.628-0.097-1.415-0.144-2.353-0.144
						c-0.941,0-1.967,0-3.075,0c-1.11,0-2.123,0-3.04,0c-0.918,0-1.714,0.048-2.39,0.144c0.242-2.413,0.399-4.923,0.472-7.527
						c0.072-2.606,0.107-5.381,0.107-8.325v-2.896c0-2.942-0.035-5.706-0.107-8.289c-0.073-2.579-0.23-5.174-0.472-7.781
						c0.869,0.098,1.725,0.181,2.569,0.253c0.846,0.072,1.703,0.109,2.571,0.109s1.725-0.037,2.568-0.109
						c0.846-0.072,1.748-0.155,2.715-0.253l-0.29,5.429H256.55"/>
					<path style="fill:#715F6A;" d="M300.994,38.834c0,0.628,0.072,1.23,0.216,1.81l-6.369-0.144
						c-0.098,1.11-0.181,2.387-0.254,3.834c-0.073,1.449-0.12,2.92-0.146,4.417c-0.024,1.496-0.05,2.945-0.072,4.343
						c-0.024,1.4-0.034,2.583-0.034,3.547c0,2.51,0.056,4.538,0.178,6.082c0.121,1.542,0.328,2.725,0.615,3.546
						c0.29,0.822,0.699,1.375,1.231,1.664c0.532,0.29,1.207,0.435,2.028,0.435c0.915,0,1.591-0.06,2.028-0.181
						c0.434-0.12,0.868-0.301,1.303-0.543v2.967c-0.967,0.435-2.172,0.822-3.622,1.16c-1.446,0.336-2.87,0.507-4.271,0.507
						c-6.128,0-9.191-3.669-9.191-11.006c0-1.397,0.023-2.978,0.072-4.739c0.048-1.761,0.107-3.572,0.181-5.43
						c0.072-1.858,0.131-3.692,0.181-5.502c0.048-1.809,0.073-3.486,0.073-5.031l-5.07,0.073c0.146-0.581,0.218-1.182,0.218-1.81
						c0-0.578-0.072-1.23-0.218-1.953l5.07,0.218c0-1.496-0.026-2.897-0.073-4.199c-0.05-1.303-0.122-2.871-0.216-4.706
						c1.688-0.673,3.354-1.386,4.993-2.134c1.639-0.747,3.281-1.532,4.923-2.353l0.722,0.507c-0.098,0.771-0.182,1.677-0.252,2.715
						c-0.072,1.038-0.144,2.123-0.215,3.258c-0.075,1.133-0.122,2.292-0.148,3.473c-0.025,1.183-0.034,2.306-0.034,3.367
						l6.369-0.144C301.066,37.604,300.994,38.256,300.994,38.834"/>
					<path style="fill:#715F6A;" d="M304.612,28.774c-0.097-3.957-0.242-7.963-0.435-12.016c0.627,0.097,1.424,0.181,2.389,0.254
						c0.966,0.072,1.979,0.109,3.04,0.109c1.064,0,2.076-0.037,3.041-0.109c0.963-0.073,1.762-0.158,2.39-0.254
						c-0.193,4.053-0.339,8.059-0.435,12.016c-0.098,3.957-0.144,8.3-0.144,13.03v4.705c0,4.73,0.046,9.073,0.144,13.028
						c0.097,3.958,0.242,7.891,0.435,11.8c-0.628-0.097-1.427-0.144-2.39-0.144c-0.966,0-1.978,0-3.041,0c-1.061,0-2.074,0-3.04,0
						c-0.964,0-1.761,0.048-2.389,0.144c0.193-3.909,0.339-7.842,0.435-11.8c0.097-3.956,0.146-8.299,0.146-13.028v-4.705
						C304.758,37.074,304.709,32.731,304.612,28.774"/>
					<path style="fill:#715F6A;" d="M329.007,59.465c0.385,1.691,0.975,3.15,1.772,4.38c0.797,1.231,1.808,2.195,3.039,2.896
						c1.231,0.699,2.666,1.049,4.309,1.049c3.328,0,6.298-1.087,8.903-3.256l0.869,0.652l-1.593,4.053
						c-1.207,0.917-2.654,1.653-4.343,2.208c-1.689,0.554-3.909,0.834-6.661,0.834c-2.363,0-4.608-0.326-6.729-0.981
						c-2.126-0.647-3.995-1.722-5.611-3.22c-1.619-1.495-2.896-3.388-3.84-5.68c-0.939-2.293-1.409-5.034-1.409-8.218
						c0-3.137,0.423-5.861,1.266-8.179c0.846-2.316,2.016-4.245,3.511-5.79c1.498-1.545,3.27-2.703,5.321-3.475
						c2.05-0.771,4.282-1.158,6.695-1.158c4.779,0,8.432,1.4,10.968,4.199c2.534,2.799,3.799,6.756,3.799,11.871v1.521
						c0,0.434-0.024,0.722-0.072,0.866h-20.773C328.427,55.967,328.618,57.777,329.007,59.465 M338.234,42.092
						c-0.794-2.171-2.134-3.258-4.017-3.258c-1.064,0-1.955,0.362-2.678,1.087c-0.725,0.724-1.303,1.653-1.737,2.787
						c-0.435,1.134-0.762,2.413-0.979,3.837c-0.216,1.423-0.35,2.833-0.396,4.233h11.148
						C339.476,47.159,339.03,44.263,338.234,42.092z"/>
					<path style="fill:#715F6A;" d="M354.741,64.642c0.458,0.699,1.024,1.328,1.7,1.881c0.673,0.556,1.484,1.001,2.423,1.34
						c0.943,0.339,2.038,0.506,3.296,0.506c1.688,0,2.991-0.435,3.908-1.303c0.918-0.868,1.377-1.809,1.377-2.822
						c0-1.109-0.412-2.002-1.231-2.678c-0.822-0.676-1.846-1.291-3.077-1.846c-1.231-0.554-2.568-1.122-4.017-1.703
						c-1.447-0.578-2.788-1.311-4.018-2.206c-1.231-0.892-2.257-2.013-3.077-3.365c-0.822-1.351-1.228-3.088-1.228-5.211
						c0-2.028,0.371-3.776,1.119-5.248c0.751-1.473,1.725-2.68,2.934-3.62c1.205-0.943,2.568-1.642,4.087-2.102
						c1.519-0.457,3.031-0.687,4.525-0.687c2.027,0,3.822,0.29,5.392,0.869c1.567,0.579,3.173,1.423,4.815,2.533
						c-0.435,0.967-0.798,2.004-1.088,3.112c-0.288,1.111-0.506,2.197-0.65,3.258h-2.027c-0.146-0.579-0.386-1.217-0.724-1.918
						c-0.339-0.698-0.796-1.362-1.375-1.991c-0.578-0.626-1.279-1.145-2.099-1.555c-0.822-0.409-1.81-0.616-2.968-0.616
						c-1.449,0-2.667,0.388-3.658,1.159c-0.988,0.773-1.481,1.786-1.481,3.039c0,1.16,0.42,2.089,1.264,2.788
						c0.847,0.699,1.895,1.315,3.152,1.846c1.254,0.53,2.629,1.061,4.126,1.591c1.495,0.533,2.871,1.22,4.126,2.065
						c1.254,0.843,2.304,1.942,3.148,3.293c0.845,1.351,1.269,3.089,1.269,5.212c0,2.122-0.389,3.943-1.158,5.464
						c-0.774,1.519-1.81,2.775-3.115,3.765c-1.303,0.988-2.786,1.7-4.451,2.133c-1.666,0.437-3.415,0.654-5.246,0.654
						c-2.174,0-4.128-0.317-5.864-0.943c-1.738-0.628-3.115-1.277-4.127-1.953c0.579-2.318,0.94-4.634,1.085-6.948h1.809
						C353.907,63.205,354.281,63.941,354.741,64.642"/>
					<path style="fill:#715F6A;" d="M380.002,64.642c0.46,0.699,1.024,1.328,1.7,1.881c0.676,0.556,1.484,1.001,2.427,1.34
						c0.94,0.339,2.039,0.506,3.292,0.506c1.691,0,2.991-0.435,3.911-1.303c0.914-0.868,1.375-1.809,1.375-2.822
						c0-1.109-0.411-2.002-1.231-2.678c-0.822-0.676-1.847-1.291-3.078-1.846c-1.228-0.554-2.567-1.122-4.015-1.703
						c-1.447-0.578-2.788-1.311-4.017-2.206c-1.232-0.892-2.257-2.013-3.077-3.365c-0.822-1.351-1.231-3.088-1.231-5.211
						c0-2.028,0.374-3.776,1.122-5.248c0.747-1.473,1.726-2.68,2.931-3.62c1.205-0.943,2.569-1.642,4.089-2.102
						c1.519-0.457,3.029-0.687,4.523-0.687c2.031,0,3.826,0.29,5.395,0.869c1.568,0.579,3.172,1.423,4.814,2.533
						c-0.435,0.967-0.794,2.004-1.085,3.112c-0.288,1.111-0.507,2.197-0.652,3.258h-2.027c-0.144-0.579-0.386-1.217-0.722-1.918
						c-0.34-0.698-0.797-1.362-1.378-1.991c-0.578-0.626-1.279-1.145-2.096-1.555c-0.823-0.409-1.812-0.616-2.969-0.616
						c-1.449,0-2.667,0.388-3.656,1.159c-0.99,0.773-1.484,1.786-1.484,3.039c0,1.16,0.42,2.089,1.268,2.788
						c0.843,0.699,1.893,1.315,3.149,1.846c1.254,0.53,2.629,1.061,4.126,1.591c1.495,0.533,2.871,1.22,4.124,2.065
						c1.257,0.843,2.306,1.942,3.15,3.293c0.843,1.351,1.266,3.089,1.266,5.212c0,2.122-0.386,3.943-1.158,5.464
						c-0.773,1.519-1.811,2.775-3.114,3.765c-1.303,0.988-2.787,1.7-4.451,2.133c-1.666,0.437-3.416,0.654-5.248,0.654
						c-2.172,0-4.127-0.317-5.864-0.943c-1.738-0.628-3.114-1.277-4.126-1.953c0.579-2.318,0.941-4.634,1.085-6.948h1.809
						C379.169,63.205,379.543,63.941,380.002,64.642"/>
				</g>
			</g>
			<g>
				<g>
					<path style="fill:#715F6A;" d="M245.109,79.159c-0.488-0.354-1.083-0.694-1.789-1.022c-0.705-0.326-1.53-0.601-2.478-0.828
						c-0.949-0.226-2.043-0.341-3.277-0.341c-2.416,0-4.573,0.448-6.471,1.337c-1.898,0.887-3.501,2.081-4.808,3.571
						c-1.307,1.496-2.306,3.218-2.997,5.168c-0.688,1.952-1.035,3.992-1.035,6.114c0,1.723,0.237,3.289,0.711,4.696
						c0.476,1.406,1.193,2.603,2.156,3.594c0.963,0.992,2.172,1.76,3.624,2.303c1.451,0.545,3.154,0.819,5.109,0.819
						c1.151,0,2.289-0.086,3.409-0.26c1.121-0.171,2.227-0.457,3.319-0.861c0.114-0.433,0.252-0.985,0.408-1.662
						c0.159-0.673,0.325-1.421,0.496-2.24c0.174-0.82,0.339-1.674,0.496-2.565c0.159-0.891,0.309-1.785,0.456-2.674
						c0.43,0.114,1.016,0.171,1.764,0.171c0.404,0,0.72-0.014,0.952-0.042c0.227-0.03,0.457-0.072,0.687-0.129
						c-0.143,0.516-0.317,1.193-0.516,2.025c-0.201,0.834-0.409,1.721-0.627,2.655c-0.215,0.933-0.408,1.868-0.578,2.799
						c-0.174,0.939-0.305,1.778-0.39,2.523c-1.466,0.49-3.062,0.864-4.787,1.124c-1.726,0.256-3.55,0.386-5.478,0.386
						c-3.017,0-5.455-0.366-7.309-1.099c-1.855-0.735-3.361-1.732-4.517-2.999c-1.134-1.234-1.933-2.657-2.397-4.267
						c-0.465-1.611-0.696-3.163-0.696-4.659c0-2.297,0.427-4.498,1.285-6.594c0.858-2.103,2.122-3.941,3.794-5.521
						c1.673-1.581,3.731-2.84,6.175-3.776c2.442-0.933,5.263-1.4,8.45-1.4c2.386,0,4.32,0.196,5.803,0.584
						c1.48,0.389,2.708,0.751,3.686,1.099l-1.466,2.889C245.988,79.819,245.598,79.513,245.109,79.159"/>
					<path style="fill:#715F6A;" d="M257.833,88.182c-0.29-0.084-0.605-0.129-0.951-0.129c-1.008,0-1.989,0.423-2.952,1.27
						c-0.964,0.85-1.689,2.136-2.178,3.86c-0.058,0.116-0.151,0.446-0.28,0.992c-0.131,0.548-0.283,1.201-0.454,1.963
						c-0.171,0.763-0.351,1.597-0.539,2.503c-0.188,0.905-0.366,1.789-0.54,2.65c-0.171,0.864-0.322,1.662-0.452,2.394
						c-0.132,0.736-0.222,1.288-0.279,1.659c-0.233-0.029-0.476-0.044-0.735-0.044c-0.258,0-0.545,0-0.864,0
						c-0.316,0-0.624,0-0.926,0s-0.582,0.015-0.842,0.044c0.174-0.488,0.39-1.241,0.647-2.263c0.258-1.02,0.535-2.161,0.823-3.428
						c0.284-1.266,0.579-2.601,0.881-4.01c0.302-1.409,0.575-2.775,0.819-4.097c0.243-1.322,0.465-2.552,0.669-3.689
						c0.2-1.132,0.345-2.076,0.431-2.822c0.23,0.058,0.495,0.099,0.798,0.128c0.302,0.03,0.593,0.044,0.88,0.044
						c0.634,0,1.167-0.057,1.6-0.171c-0.06,0.171-0.137,0.422-0.241,0.754c-0.099,0.333-0.207,0.711-0.321,1.141
						c-0.116,0.433-0.222,0.888-0.325,1.36c-0.099,0.473-0.18,0.94-0.237,1.401h0.216c0.46-0.573,0.925-1.164,1.401-1.767
						c0.477-0.607,0.978-1.144,1.51-1.619c0.533-0.472,1.128-0.862,1.79-1.164c0.66-0.299,1.406-0.438,2.243-0.408
						c-0.144,0.718-0.256,1.344-0.324,1.874c-0.071,0.532-0.109,1.071-0.109,1.617l-0.389,0.216
						C258.377,88.356,258.12,88.267,257.833,88.182"/>
					<path style="fill:#715F6A;" d="M257.81,92.665c0.559-1.494,1.358-2.837,2.395-4.03c1.035-1.194,2.297-2.157,3.792-2.89
						c1.496-0.732,3.163-1.099,5.003-1.099c1.696,0,3.137,0.237,4.312,0.713c1.178,0.475,2.129,1.099,2.847,1.874
						c0.718,0.774,1.234,1.668,1.552,2.674c0.32,1.005,0.476,2.057,0.476,3.146c0,1.583-0.288,3.143-0.864,4.682
						c-0.577,1.537-1.394,2.907-2.459,4.117c-1.064,1.209-2.341,2.163-3.837,2.867c-1.495,0.705-3.176,1.057-5.046,1.057
						c-1.781,0-3.254-0.26-4.418-0.777c-1.166-0.517-2.087-1.198-2.759-2.047c-0.677-0.85-1.152-1.782-1.424-2.805
						c-0.273-1.019-0.411-1.989-0.411-2.911C256.969,95.687,257.249,94.161,257.81,92.665 M261.648,102.757
						c0.849,1.178,2.248,1.768,4.204,1.768c1.639,0,3.017-0.437,4.141-1.314c1.121-0.877,2.039-1.949,2.761-3.213
						c0.717-1.265,1.234-2.602,1.552-4.01c0.314-1.409,0.471-2.647,0.471-3.711c0-0.89-0.12-1.717-0.366-2.48
						c-0.243-0.76-0.611-1.421-1.099-1.98c-0.488-0.562-1.092-1.001-1.81-1.318c-0.718-0.316-1.538-0.473-2.458-0.473
						c-1.552,0-2.882,0.416-3.991,1.251c-1.104,0.832-2.002,1.861-2.695,3.082c-0.69,1.221-1.193,2.542-1.507,3.968
						c-0.318,1.421-0.475,2.738-0.475,3.945C260.376,100.084,260.801,101.58,261.648,102.757z"/>
					<path style="fill:#715F6A;" d="M291.898,102.369c-0.346,0.433-0.754,0.856-1.227,1.273c-0.476,0.415-1.013,0.79-1.617,1.119
						c-0.603,0.332-1.275,0.589-2.008,0.777c-0.732,0.188-1.56,0.28-2.48,0.28c-0.717,0-1.436-0.084-2.155-0.257
						c-0.718-0.174-1.367-0.468-1.942-0.886c-0.575-0.415-1.041-0.933-1.4-1.552c-0.359-0.619-0.539-1.33-0.539-2.134
						c0-0.545,0.122-1.381,0.366-2.503c0.243-1.119,0.566-2.557,0.969-4.312c0.09-0.373,0.208-0.91,0.37-1.616
						c0.156-0.703,0.316-1.488,0.472-2.35c0.158-0.861,0.317-1.748,0.473-2.652c0.158-0.905,0.283-1.747,0.367-2.522
						c0.458,0.114,1.094,0.171,1.898,0.171c0.747,0,1.364-0.057,1.854-0.171c-0.288,1.092-0.623,2.355-1.013,3.795
						c-0.388,1.436-0.754,2.867-1.098,4.289c-0.344,1.426-0.641,2.734-0.884,3.924c-0.248,1.194-0.366,2.092-0.366,2.697
						c0,1.381,0.366,2.414,1.098,3.103c0.733,0.692,1.76,1.036,3.084,1.036c0.832,0,1.596-0.136,2.285-0.412
						c0.69-0.271,1.307-0.638,1.854-1.098c0.547-0.458,1.007-0.99,1.378-1.596c0.377-0.604,0.677-1.235,0.907-1.896
						c0.173-0.548,0.359-1.249,0.563-2.112c0.2-0.865,0.4-1.786,0.604-2.761c0.199-0.977,0.394-1.97,0.579-2.975
						c0.188-1.005,0.359-1.933,0.517-2.78c0.159-0.852,0.288-1.57,0.39-2.157c0.099-0.589,0.163-0.943,0.192-1.057
						c0.578,0.114,1.151,0.171,1.725,0.171c0.718,0,1.31-0.057,1.77-0.171c-0.144,0.46-0.337,1.173-0.582,2.136
						c-0.246,0.963-0.517,2.053-0.819,3.275c-0.299,1.223-0.603,2.53-0.906,3.924c-0.301,1.396-0.589,2.775-0.862,4.142
						c-0.275,1.366-0.517,2.644-0.735,3.836c-0.216,1.193-0.366,2.191-0.452,2.997c-0.258-0.029-0.511-0.044-0.756-0.044
						c-0.242,0-0.507,0-0.796,0c-0.317,0-0.619,0-0.907,0c-0.288,0-0.547,0.015-0.775,0.044l0.775-2.803L291.898,102.369"/>
					<path style="fill:#715F6A;" d="M299.574,109.248c-0.517,2.629-0.993,5.067-1.423,7.309c-0.344-0.114-0.834-0.17-1.468-0.17
						c-0.63,0-1.19,0.056-1.68,0.17c0.373-1.611,0.762-3.398,1.164-5.369c0.403-1.968,0.818-3.98,1.251-6.038
						c0.43-2.055,0.861-4.146,1.294-6.272c0.43-2.127,0.847-4.154,1.25-6.083c0.26-1.292,0.495-2.586,0.71-3.881
						c0.215-1.294,0.452-2.586,0.711-3.879c0.231,0.058,0.496,0.099,0.798,0.128c0.302,0.03,0.596,0.044,0.885,0.044
						c0.229,0,0.495-0.014,0.796-0.044c0.302-0.029,0.57-0.069,0.8-0.128c-0.174,0.69-0.318,1.279-0.433,1.768
						c-0.116,0.488-0.242,1.149-0.388,1.982c0.288-0.4,0.654-0.839,1.102-1.315c0.442-0.475,0.981-0.918,1.615-1.334
						c0.633-0.419,1.351-0.77,2.155-1.06c0.805-0.284,1.726-0.43,2.761-0.43c0.604,0,1.338,0.087,2.199,0.258
						c0.864,0.171,1.681,0.539,2.457,1.1c0.779,0.562,1.439,1.358,1.986,2.39c0.548,1.038,0.819,2.42,0.819,4.143
						c0,1.611-0.268,3.211-0.796,4.808c-0.535,1.594-1.288,3.025-2.266,4.29c-0.979,1.265-2.163,2.277-3.557,3.04
						c-1.396,0.762-2.969,1.143-4.723,1.143c-0.688,0-1.374-0.071-2.05-0.215c-0.675-0.144-1.3-0.367-1.874-0.669
						c-0.577-0.301-1.077-0.732-1.508-1.292c-0.431-0.562-0.749-1.258-0.948-2.093h-0.129
						C300.594,104.05,300.092,106.617,299.574,109.248 M302.463,101.462c0.344,0.749,0.777,1.34,1.294,1.768
						c0.52,0.433,1.079,0.729,1.683,0.886c0.604,0.159,1.151,0.238,1.638,0.238c1.553,0,2.869-0.446,3.947-1.338
						c1.077-0.891,1.948-1.96,2.609-3.211c0.661-1.251,1.143-2.55,1.446-3.904c0.302-1.349,0.449-2.487,0.449-3.407
						c0-1.121-0.155-2.059-0.473-2.822c-0.317-0.762-0.724-1.381-1.228-1.853c-0.502-0.476-1.064-0.813-1.681-1.015
						c-0.619-0.203-1.231-0.303-1.834-0.303c-1.149,0-2.155,0.253-3.02,0.756c-0.86,0.503-1.602,1.139-2.219,1.919
						c-0.62,0.775-1.129,1.639-1.533,2.584c-0.401,0.952-0.718,1.87-0.947,2.76c-0.231,0.892-0.396,1.706-0.496,2.439
						c-0.101,0.73-0.15,1.272-0.15,1.616C301.948,99.753,302.119,100.713,302.463,101.462z"/>
					<path style="fill:#715F6A;" d="M318.549,102.929c0.403-0.718,0.775-1.287,1.122-1.703c0.343-0.418,0.758-0.624,1.249-0.624
						c0.316,0,0.624,0.112,0.929,0.344c0.299,0.227,0.449,0.59,0.449,1.077c0,0.373-0.098,0.733-0.301,1.079
						c-0.201,0.345-0.416,0.634-0.645,0.862l-6.86,8.233l-0.558-0.427L318.549,102.929"/>
					<path style="fill:#715F6A;" d="M330.062,98.423c0.604-2.629,1.193-5.298,1.767-7.998c0.575-2.703,1.107-5.318,1.597-7.85
						c0.49-2.529,0.89-4.744,1.208-6.643c0.257,0.06,0.552,0.105,0.885,0.131c0.329,0.033,0.652,0.048,0.967,0.048
						c0.345,0,0.692-0.015,1.036-0.048c0.344-0.026,0.66-0.071,0.948-0.131c-0.575,2.217-1.162,4.625-1.768,7.227
						c-0.603,2.599-1.183,5.226-1.745,7.87c-0.562,2.643-1.087,5.211-1.574,7.696c-0.491,2.487-0.891,4.694-1.208,6.619
						c-0.258-0.029-0.547-0.044-0.864-0.044c-0.316,0-0.66,0-1.035,0c-0.317,0-0.647,0-0.99,0c-0.344,0-0.661,0.015-0.949,0.044
						C328.883,103.358,329.458,101.055,330.062,98.423"/>
					<path style="fill:#715F6A;" d="M342.266,88.311c0.286-0.403,0.667-0.804,1.143-1.208c0.475-0.403,1.012-0.775,1.617-1.122
						c0.604-0.344,1.28-0.623,2.028-0.841c0.745-0.216,1.522-0.322,2.331-0.322c0.774,0,1.519,0.106,2.239,0.322
						c0.715,0.218,1.358,0.539,1.918,0.971c0.559,0.431,1.015,0.97,1.358,1.617c0.345,0.647,0.518,1.402,0.518,2.265
						c0,0.287-0.007,0.545-0.022,0.775c-0.012,0.231-0.059,0.532-0.131,0.906c-0.071,0.374-0.17,0.849-0.299,1.423
						c-0.131,0.574-0.31,1.351-0.537,2.329c-0.117,0.518-0.277,1.245-0.477,2.179c-0.2,0.933-0.404,1.911-0.603,2.931
						c-0.201,1.02-0.388,1.983-0.562,2.889c-0.171,0.906-0.273,1.547-0.302,1.918c-0.23-0.029-0.481-0.044-0.755-0.044
						c-0.273,0-0.567,0-0.883,0c-0.316,0-0.646,0-0.994,0c-0.344,0-0.647,0.015-0.903,0.044c0.113-0.23,0.272-0.702,0.475-1.421
						c0.2-0.72,0.424-1.538,0.667-2.461c0.245-0.918,0.49-1.91,0.733-2.975c0.246-1.064,0.469-2.091,0.669-3.08
						c0.201-0.996,0.367-1.907,0.498-2.742c0.128-0.832,0.19-1.494,0.19-1.983c0-0.658-0.12-1.228-0.363-1.703
						c-0.246-0.473-0.57-0.869-0.971-1.185c-0.403-0.317-0.854-0.552-1.358-0.713c-0.505-0.159-1.03-0.235-1.577-0.235
						c-0.343,0-0.803,0.056-1.379,0.171c-0.575,0.116-1.171,0.339-1.789,0.668c-0.62,0.331-1.209,0.8-1.767,1.401
						c-0.563,0.604-1,1.397-1.315,2.372c-0.174,0.488-0.363,1.144-0.562,1.963c-0.201,0.82-0.411,1.711-0.624,2.673
						c-0.216,0.964-0.426,1.948-0.626,2.954c-0.201,1.008-0.384,1.946-0.54,2.825c-0.159,0.876-0.295,1.631-0.409,2.263
						c-0.114,0.631-0.186,1.035-0.215,1.207c-0.231-0.029-0.472-0.044-0.733-0.044c-0.258,0-0.547,0-0.864,0
						c-0.316,0-0.626,0-0.926,0c-0.302,0-0.567,0.015-0.797,0.044c0.2-0.575,0.437-1.416,0.71-2.523
						c0.275-1.107,0.555-2.319,0.842-3.644c0.287-1.319,0.579-2.693,0.883-4.117c0.302-1.423,0.585-2.782,0.842-4.075
						c0.258-1.294,0.482-2.463,0.668-3.515c0.189-1.047,0.325-1.859,0.409-2.435c0.431,0.114,0.949,0.171,1.555,0.171
						c0.258,0,0.53-0.014,0.816-0.044c0.287-0.029,0.562-0.069,0.822-0.128l-0.822,3.19L342.266,88.311"/>
					<path style="fill:#715F6A;" d="M366.07,105.776c-1.324,0-2.567-0.159-3.731-0.476c-1.163-0.314-2.18-0.839-3.048-1.574
						c-0.869-0.73-1.552-1.659-2.047-2.78c-0.498-1.121-0.745-2.444-0.745-3.966c0-1.351,0.233-2.753,0.702-4.206
						c0.467-1.45,1.216-2.78,2.243-3.99c1.024-1.207,2.344-2.198,3.953-2.975c1.611-0.775,3.552-1.164,5.824-1.164
						c1.549,0,2.865,0.151,3.942,0.453c1.079,0.301,1.951,0.581,2.613,0.841c-0.147,0.316-0.268,0.589-0.367,0.817
						c-0.103,0.234-0.189,0.454-0.26,0.671c-0.072,0.216-0.144,0.453-0.216,0.71c-0.073,0.257-0.152,0.562-0.235,0.906h-0.258
						c-0.548-1.004-1.321-1.76-2.33-2.263c-1.007-0.502-2.055-0.754-3.148-0.754c-1.351,0-2.587,0.317-3.709,0.949
						c-1.121,0.63-2.078,1.458-2.869,2.478c-0.789,1.023-1.4,2.186-1.832,3.494c-0.43,1.307-0.647,2.648-0.647,4.032
						c0,1.552,0.237,2.816,0.711,3.794c0.476,0.977,1.065,1.732,1.768,2.265c0.705,0.533,1.451,0.89,2.244,1.077
						c0.79,0.186,1.485,0.279,2.089,0.279c0.749,0,1.446-0.078,2.092-0.235c0.647-0.159,1.23-0.344,1.747-0.562
						c0.518-0.215,0.971-0.423,1.359-0.626c0.388-0.199,0.695-0.358,0.928-0.472l0.216,0.084l-0.605,1.81
						C370.469,105.315,368.34,105.776,366.07,105.776"/>
					<path style="fill:#715F6A;" d="M376.5,102.616c0.431-0.446,0.963-0.668,1.595-0.668s1.166,0.215,1.594,0.646
						c0.433,0.433,0.649,0.963,0.649,1.594c0,0.635-0.223,1.144-0.669,1.533c-0.446,0.388-0.971,0.581-1.574,0.581
						c-0.633,0-1.164-0.2-1.595-0.604c-0.43-0.403-0.647-0.905-0.647-1.51C375.853,103.588,376.071,103.064,376.5,102.616"/>
				</g>
			</g>
			<g>
				<g>
					<path style="fill:#715F6A;" d="M179.631,127.227c0.277,0.141,0.503,0.311,0.677,0.499c0.17,0.193,0.29,0.397,0.359,0.613
						c0.069,0.216,0.102,0.418,0.102,0.603c0,0.54-0.161,1.075-0.486,1.598c-0.322,0.526-0.794,0.939-1.412,1.245
						c-0.245,0.12-0.496,0.209-0.752,0.279c-0.254,0.071-0.499,0.118-0.736,0.148c-0.235,0.03-0.453,0.046-0.654,0.049
						c-0.203,0.005-0.371,0.008-0.51,0.008c-0.078,0-0.205-0.003-0.382-0.008c-0.177-0.003-0.362-0.004-0.559-0.004
						s-0.382,0-0.554,0c-0.17,0-0.291,0-0.359,0c-0.139,0-0.257,0-0.36,0c-0.105,0-0.204,0.003-0.302,0.012
						c0.186-0.677,0.382-1.464,0.588-2.363c0.207-0.896,0.404-1.808,0.596-2.731c0.193-0.922,0.371-1.816,0.539-2.68
						s0.303-1.62,0.412-2.268c0.109,0.008,0.233,0.022,0.377,0.037c0.141,0.014,0.276,0.02,0.404,0.02
						c0.286,0,0.588-0.008,0.913-0.029c0.325-0.02,0.658-0.029,1.001-0.029c0.778,0,1.379,0.113,1.812,0.339
						c0.343,0.186,0.581,0.424,0.713,0.714c0.132,0.29,0.2,0.556,0.2,0.803c0,0.362-0.084,0.702-0.25,1.017
						c-0.169,0.313-0.378,0.589-0.631,0.831c-0.258,0.241-0.544,0.437-0.865,0.594c-0.317,0.159-0.624,0.264-0.918,0.326
						l-0.031,0.102C178.993,126.994,179.349,127.086,179.631,127.227 M179.409,128.273c-0.094-0.2-0.222-0.374-0.384-0.516
						c-0.162-0.144-0.348-0.258-0.559-0.347c-0.212-0.087-0.441-0.147-0.686-0.175c-0.158-0.019-0.325-0.034-0.499-0.045
						c-0.177-0.01-0.348-0.015-0.517-0.015h-0.428c-0.068,0-0.137,0-0.204,0c-0.06,0-0.121,0.005-0.19,0.015
						c-0.196,0.952-0.369,1.8-0.517,2.541c-0.147,0.741-0.269,1.406-0.367,1.995c0.186,0.039,0.362,0.061,0.529,0.067
						c0.166,0.004,0.303,0.007,0.411,0.007c0.248,0,0.543-0.018,0.892-0.052c0.348-0.035,0.68-0.121,0.994-0.258
						c0.224-0.098,0.439-0.235,0.639-0.412c0.201-0.175,0.379-0.375,0.532-0.596c0.152-0.22,0.272-0.462,0.359-0.721
						c0.09-0.263,0.132-0.529,0.132-0.804C179.546,128.702,179.501,128.473,179.409,128.273z M179.556,123.078
						c-0.339-0.231-0.759-0.35-1.26-0.35c-0.226,0-0.45,0.005-0.671,0.014c-0.219,0.011-0.445,0.026-0.671,0.045
						c-0.127,0.518-0.234,0.962-0.322,1.326c-0.09,0.37-0.165,0.699-0.23,0.993c-0.064,0.292-0.121,0.56-0.174,0.807
						c-0.054,0.243-0.11,0.499-0.17,0.762c0.107,0.02,0.222,0.033,0.339,0.037c0.12,0.007,0.26,0.008,0.426,0.008
						c0.257,0,0.581-0.024,0.974-0.073c0.392-0.05,0.755-0.171,1.088-0.367c0.412-0.243,0.711-0.555,0.898-0.93
						c0.188-0.378,0.28-0.747,0.28-1.107C180.063,123.703,179.896,123.315,179.556,123.078z"/>
					<path style="fill:#715F6A;" d="M187.973,131.255c-0.12,0.148-0.261,0.292-0.422,0.437c-0.159,0.141-0.345,0.267-0.552,0.382
						c-0.207,0.113-0.435,0.2-0.683,0.264c-0.252,0.064-0.533,0.095-0.849,0.095c-0.245,0-0.49-0.029-0.736-0.088
						c-0.246-0.058-0.468-0.158-0.664-0.301c-0.195-0.141-0.356-0.318-0.476-0.53c-0.124-0.212-0.184-0.454-0.184-0.728
						c0-0.188,0.039-0.473,0.124-0.854c0.082-0.385,0.193-0.876,0.332-1.473c0.029-0.128,0.071-0.313,0.124-0.555
						c0.054-0.239,0.107-0.507,0.162-0.8c0.054-0.297,0.109-0.598,0.162-0.907c0.053-0.309,0.097-0.596,0.125-0.861
						c0.159,0.039,0.374,0.058,0.649,0.058c0.254,0,0.467-0.019,0.632-0.058c-0.097,0.373-0.214,0.804-0.347,1.296
						c-0.131,0.491-0.256,0.981-0.373,1.465c-0.117,0.483-0.22,0.933-0.302,1.34c-0.084,0.407-0.128,0.715-0.128,0.918
						c0,0.475,0.128,0.827,0.378,1.061c0.25,0.237,0.601,0.355,1.051,0.355c0.284,0,0.544-0.045,0.779-0.14
						c0.237-0.092,0.448-0.22,0.633-0.375c0.189-0.156,0.347-0.339,0.473-0.545c0.128-0.205,0.231-0.422,0.31-0.647
						c0.058-0.186,0.121-0.426,0.19-0.722c0.069-0.294,0.137-0.608,0.207-0.941c0.068-0.333,0.135-0.673,0.197-1.016
						c0.063-0.344,0.125-0.661,0.177-0.951c0.054-0.29,0.099-0.535,0.133-0.736c0.034-0.2,0.056-0.321,0.067-0.36
						c0.196,0.039,0.392,0.058,0.589,0.058c0.245,0,0.448-0.019,0.601-0.058c-0.048,0.158-0.114,0.4-0.197,0.729
						c-0.084,0.329-0.175,0.702-0.279,1.119c-0.103,0.416-0.207,0.862-0.309,1.34c-0.105,0.476-0.201,0.948-0.295,1.413
						c-0.094,0.467-0.177,0.903-0.25,1.31c-0.072,0.408-0.125,0.748-0.156,1.023c-0.086-0.01-0.173-0.012-0.254-0.012
						c-0.087,0-0.175,0-0.273,0c-0.11,0-0.211,0-0.31,0c-0.099,0-0.186,0.003-0.265,0.012l0.265-0.956L187.973,131.255"/>
					<path style="fill:#715F6A;" d="M195.74,125.872c-0.222-0.154-0.473-0.227-0.758-0.227c-0.216,0-0.411,0.039-0.581,0.125
						c-0.174,0.084-0.321,0.19-0.445,0.322c-0.122,0.132-0.215,0.282-0.279,0.448c-0.063,0.169-0.094,0.336-0.094,0.502
						c0,0.178,0.031,0.333,0.101,0.464c0.069,0.135,0.163,0.252,0.282,0.347c0.117,0.099,0.253,0.188,0.405,0.264
						c0.152,0.079,0.312,0.154,0.477,0.223c0.156,0.067,0.313,0.143,0.472,0.227c0.156,0.084,0.301,0.184,0.426,0.301
						c0.128,0.118,0.23,0.263,0.311,0.43c0.078,0.169,0.117,0.367,0.117,0.604c0,0.343-0.079,0.668-0.237,0.977
						c-0.158,0.31-0.37,0.582-0.642,0.816c-0.269,0.237-0.589,0.419-0.956,0.548c-0.367,0.129-0.769,0.19-1.2,0.19
						c-0.305,0-0.581-0.029-0.831-0.092c-0.25-0.058-0.503-0.161-0.759-0.303c0.107-0.175,0.201-0.359,0.279-0.547
						c0.082-0.185,0.144-0.333,0.192-0.439h0.105c0.105,0.291,0.295,0.513,0.566,0.658c0.269,0.151,0.567,0.222,0.892,0.222
						c0.284,0,0.526-0.048,0.726-0.146c0.201-0.097,0.366-0.222,0.495-0.37c0.128-0.146,0.222-0.31,0.287-0.491
						c0.064-0.182,0.097-0.352,0.097-0.509c0-0.314-0.099-0.548-0.297-0.706c-0.195-0.159-0.488-0.325-0.884-0.503
						c-0.155-0.065-0.314-0.144-0.477-0.234c-0.162-0.09-0.309-0.196-0.434-0.324c-0.129-0.129-0.23-0.283-0.309-0.465
						c-0.079-0.178-0.12-0.403-0.12-0.671c0-0.253,0.048-0.518,0.148-0.793c0.098-0.276,0.252-0.53,0.465-0.766
						c0.209-0.237,0.486-0.431,0.831-0.582c0.343-0.154,0.76-0.23,1.251-0.23c0.265,0,0.495,0.026,0.694,0.069
						c0.195,0.046,0.411,0.125,0.646,0.234c-0.146,0.341-0.241,0.577-0.286,0.714c-0.046,0.137-0.076,0.257-0.097,0.352h-0.132
						C196.11,126.238,195.96,126.025,195.74,125.872"/>
					<path style="fill:#715F6A;" d="M200.894,126.064c-0.083,0.329-0.175,0.705-0.28,1.126c-0.101,0.423-0.204,0.873-0.309,1.348
						c-0.102,0.475-0.201,0.944-0.295,1.405c-0.092,0.462-0.175,0.898-0.249,1.311c-0.075,0.412-0.124,0.752-0.155,1.015
						c-0.107-0.01-0.222-0.012-0.339-0.012c-0.118,0-0.23,0-0.339,0c-0.12,0-0.224,0-0.317,0c-0.094,0-0.18,0.003-0.258,0.012
						c0.107-0.313,0.222-0.695,0.34-1.147c0.116-0.452,0.229-0.922,0.337-1.413c0.112-0.492,0.214-0.978,0.311-1.46
						c0.099-0.479,0.184-0.924,0.256-1.323c0.075-0.404,0.136-0.745,0.186-1.031c0.046-0.286,0.078-0.472,0.087-0.56
						c0.196,0.039,0.403,0.058,0.619,0.058c0.243,0,0.445-0.019,0.604-0.058C201.045,125.493,200.978,125.735,200.894,126.064
						 M200.49,122.507c0.139-0.137,0.305-0.205,0.501-0.205c0.195,0,0.362,0.068,0.501,0.205c0.139,0.137,0.207,0.305,0.207,0.502
						s-0.068,0.363-0.207,0.499c-0.139,0.137-0.306,0.207-0.501,0.207c-0.196,0-0.362-0.069-0.501-0.207
						c-0.137-0.136-0.207-0.302-0.207-0.499S200.352,122.644,200.49,122.507z"/>
					<path style="fill:#715F6A;" d="M205.025,126.456c0.099-0.139,0.226-0.275,0.39-0.416c0.162-0.136,0.347-0.263,0.554-0.381
						c0.203-0.118,0.433-0.214,0.691-0.287c0.254-0.075,0.52-0.11,0.794-0.11c0.265,0,0.521,0.035,0.767,0.11
						c0.245,0.073,0.462,0.185,0.657,0.331c0.186,0.15,0.344,0.332,0.461,0.551c0.117,0.223,0.177,0.482,0.177,0.774
						c0,0.098-0.004,0.189-0.005,0.265c-0.005,0.082-0.022,0.182-0.046,0.311c-0.023,0.125-0.061,0.288-0.102,0.486
						c-0.046,0.196-0.106,0.46-0.185,0.793c-0.039,0.18-0.094,0.427-0.162,0.745c-0.071,0.318-0.137,0.653-0.205,1
						c-0.068,0.351-0.133,0.679-0.195,0.989c-0.057,0.307-0.093,0.528-0.102,0.653c-0.076-0.01-0.163-0.012-0.257-0.012
						c-0.092,0-0.195,0-0.301,0c-0.109,0-0.22,0-0.34,0c-0.117,0-0.22,0.003-0.309,0.012c0.041-0.076,0.094-0.239,0.162-0.484
						c0.068-0.243,0.144-0.526,0.227-0.841c0.084-0.314,0.169-0.652,0.252-1.013c0.083-0.366,0.158-0.715,0.229-1.054
						c0.067-0.339,0.125-0.649,0.167-0.936c0.046-0.284,0.069-0.51,0.069-0.677c0-0.226-0.041-0.42-0.126-0.582
						c-0.082-0.162-0.195-0.294-0.331-0.405c-0.137-0.106-0.291-0.189-0.465-0.242c-0.17-0.054-0.351-0.08-0.537-0.08
						c-0.116,0-0.275,0.016-0.471,0.058c-0.197,0.038-0.403,0.116-0.611,0.229c-0.212,0.113-0.412,0.271-0.607,0.479
						c-0.188,0.207-0.337,0.475-0.448,0.811c-0.058,0.165-0.122,0.389-0.19,0.667c-0.068,0.282-0.141,0.586-0.215,0.917
						c-0.072,0.328-0.144,0.662-0.215,1.004c-0.067,0.348-0.126,0.669-0.184,0.97c-0.056,0.298-0.099,0.555-0.137,0.773
						c-0.038,0.216-0.065,0.352-0.075,0.409c-0.079-0.01-0.163-0.012-0.249-0.012c-0.091,0-0.186,0-0.294,0c-0.107,0-0.215,0-0.32,0
						c-0.102,0-0.193,0.003-0.272,0.012c0.069-0.193,0.15-0.482,0.243-0.86s0.189-0.793,0.287-1.245
						c0.101-0.45,0.197-0.92,0.303-1.406c0.103-0.486,0.197-0.949,0.287-1.393c0.088-0.439,0.165-0.842,0.226-1.197
						c0.065-0.36,0.112-0.637,0.143-0.834c0.146,0.039,0.321,0.058,0.529,0.058c0.088,0,0.181-0.003,0.279-0.014
						c0.099-0.012,0.193-0.026,0.28-0.045l-0.28,1.09L205.025,126.456"/>
					<path style="fill:#715F6A;" d="M215.841,132.261c-0.408,0.098-0.822,0.143-1.243,0.143c-0.316,0-0.645-0.041-0.988-0.125
						c-0.344-0.084-0.66-0.242-0.952-0.472c-0.287-0.23-0.528-0.54-0.711-0.929c-0.188-0.386-0.28-0.873-0.28-1.464
						c0-0.579,0.091-1.124,0.275-1.634c0.18-0.51,0.435-0.958,0.773-1.334c0.332-0.377,0.73-0.676,1.198-0.898
						c0.467-0.22,0.979-0.332,1.54-0.332c0.354,0,0.686,0.042,1,0.126c0.314,0.083,0.594,0.222,0.839,0.409
						c0.246,0.193,0.439,0.443,0.582,0.752c0.143,0.31,0.212,0.686,0.212,1.126c0,0.275-0.018,0.511-0.056,0.709
						c-0.039,0.196-0.075,0.356-0.105,0.486c-0.204-0.011-0.39-0.02-0.559-0.03c-0.165-0.01-0.329-0.015-0.49-0.022
						c-0.163-0.005-0.332-0.011-0.509-0.015c-0.174-0.004-0.377-0.008-0.598-0.008h-1.547c-0.234,0-0.468,0.007-0.703,0.014
						c-0.234,0.012-0.441,0.018-0.616,0.018c-0.019,0.097-0.038,0.214-0.052,0.354c-0.014,0.132-0.022,0.301-0.022,0.495
						c0,0.479,0.073,0.866,0.22,1.158c0.144,0.295,0.325,0.522,0.536,0.69c0.209,0.166,0.439,0.279,0.687,0.336
						c0.252,0.06,0.482,0.091,0.684,0.091c0.286,0,0.54-0.031,0.771-0.088c0.23-0.057,0.435-0.125,0.618-0.201
						c0.18-0.078,0.336-0.162,0.469-0.253c0.131-0.092,0.241-0.169,0.331-0.224h0.044l-0.192,0.662
						C216.636,132.016,216.249,132.17,215.841,132.261 M214.795,125.753c-0.241,0.075-0.475,0.208-0.706,0.4
						c-0.23,0.19-0.443,0.45-0.643,0.781c-0.195,0.328-0.346,0.748-0.454,1.258c0.305,0.019,0.639,0.037,1,0.045
						c0.363,0.01,0.698,0.014,1.002,0.014h0.473c0.242,0,0.505-0.003,0.779-0.007c0.275-0.004,0.511-0.02,0.706-0.052
						c0.019-0.087,0.039-0.193,0.058-0.317c0.02-0.121,0.033-0.283,0.033-0.479c0-0.322-0.049-0.598-0.141-0.823
						c-0.092-0.226-0.215-0.407-0.367-0.547c-0.154-0.136-0.326-0.235-0.51-0.294c-0.186-0.058-0.378-0.087-0.573-0.087
						C215.255,125.645,215.036,125.68,214.795,125.753z"/>
					<path style="fill:#715F6A;" d="M223.513,125.872c-0.22-0.154-0.472-0.227-0.758-0.227c-0.215,0-0.409,0.039-0.582,0.125
						c-0.171,0.084-0.32,0.19-0.441,0.322c-0.122,0.132-0.216,0.282-0.28,0.448c-0.064,0.169-0.095,0.336-0.095,0.502
						c0,0.178,0.034,0.333,0.105,0.464c0.067,0.135,0.161,0.252,0.279,0.347c0.117,0.099,0.252,0.188,0.405,0.264
						c0.151,0.079,0.309,0.154,0.477,0.223c0.156,0.067,0.314,0.143,0.471,0.227c0.158,0.084,0.299,0.184,0.427,0.301
						c0.128,0.118,0.231,0.263,0.309,0.43c0.076,0.169,0.12,0.367,0.12,0.604c0,0.343-0.079,0.668-0.237,0.977
						c-0.158,0.31-0.371,0.582-0.641,0.816c-0.269,0.237-0.59,0.419-0.959,0.548c-0.366,0.129-0.767,0.19-1.2,0.19
						c-0.303,0-0.579-0.029-0.831-0.092c-0.249-0.058-0.505-0.161-0.759-0.303c0.106-0.175,0.201-0.359,0.282-0.547
						c0.078-0.185,0.14-0.333,0.189-0.439h0.105c0.107,0.291,0.297,0.513,0.567,0.658c0.268,0.151,0.564,0.222,0.891,0.222
						c0.283,0,0.525-0.048,0.728-0.146c0.201-0.097,0.366-0.222,0.492-0.37c0.128-0.146,0.226-0.31,0.288-0.491
						c0.064-0.182,0.095-0.352,0.095-0.509c0-0.314-0.098-0.548-0.295-0.706c-0.196-0.159-0.49-0.325-0.881-0.503
						c-0.156-0.065-0.317-0.144-0.48-0.234c-0.16-0.09-0.306-0.196-0.434-0.324c-0.126-0.129-0.23-0.283-0.309-0.465
						c-0.079-0.178-0.116-0.403-0.116-0.671c0-0.253,0.046-0.518,0.146-0.793c0.099-0.276,0.253-0.53,0.465-0.766
						c0.209-0.237,0.488-0.431,0.828-0.582c0.345-0.154,0.764-0.23,1.254-0.23c0.263,0,0.495,0.026,0.691,0.069
						c0.196,0.046,0.414,0.125,0.646,0.234c-0.146,0.341-0.238,0.577-0.284,0.714c-0.045,0.137-0.076,0.257-0.097,0.352h-0.132
						C223.886,126.238,223.737,126.025,223.513,125.872"/>
					<path style="fill:#715F6A;" d="M229.979,125.872c-0.223-0.154-0.475-0.227-0.76-0.227c-0.215,0-0.409,0.039-0.579,0.125
						c-0.174,0.084-0.318,0.19-0.442,0.322c-0.124,0.132-0.216,0.282-0.282,0.448c-0.064,0.169-0.094,0.336-0.094,0.502
						c0,0.178,0.034,0.333,0.103,0.464c0.065,0.135,0.162,0.252,0.279,0.347c0.12,0.099,0.253,0.188,0.405,0.264
						c0.152,0.079,0.31,0.154,0.477,0.223c0.156,0.067,0.316,0.143,0.472,0.227c0.159,0.084,0.299,0.184,0.427,0.301
						c0.128,0.118,0.231,0.263,0.309,0.43c0.078,0.169,0.12,0.367,0.12,0.604c0,0.343-0.08,0.668-0.235,0.977
						c-0.159,0.31-0.373,0.582-0.642,0.816c-0.271,0.237-0.589,0.419-0.958,0.548c-0.369,0.129-0.767,0.19-1.201,0.19
						c-0.305,0-0.581-0.029-0.831-0.092c-0.25-0.058-0.502-0.161-0.759-0.303c0.11-0.175,0.201-0.359,0.28-0.547
						c0.08-0.185,0.143-0.333,0.192-0.439h0.103c0.105,0.291,0.298,0.513,0.566,0.658c0.271,0.151,0.567,0.222,0.892,0.222
						c0.286,0,0.526-0.048,0.728-0.146c0.203-0.097,0.365-0.222,0.495-0.37c0.129-0.146,0.222-0.31,0.287-0.491
						c0.067-0.182,0.095-0.352,0.095-0.509c0-0.314-0.098-0.548-0.297-0.706c-0.195-0.159-0.49-0.325-0.88-0.503
						c-0.161-0.065-0.321-0.144-0.482-0.234c-0.162-0.09-0.305-0.196-0.433-0.324c-0.131-0.129-0.231-0.283-0.31-0.465
						c-0.076-0.178-0.117-0.403-0.117-0.671c0-0.253,0.049-0.518,0.147-0.793c0.097-0.276,0.25-0.53,0.465-0.766
						c0.209-0.237,0.486-0.431,0.83-0.582c0.343-0.154,0.762-0.23,1.253-0.23c0.264,0,0.494,0.026,0.691,0.069
						c0.196,0.046,0.412,0.125,0.647,0.234c-0.146,0.341-0.239,0.577-0.288,0.714c-0.042,0.137-0.073,0.257-0.094,0.352h-0.133
						C230.349,126.238,230.2,126.025,229.979,125.872"/>
					<path style="fill:#715F6A;" d="M242.96,131.557c-0.207,0.151-0.448,0.302-0.729,0.441c-0.282,0.146-0.593,0.26-0.941,0.347
						c-0.35,0.088-0.73,0.133-1.143,0.133c-0.45,0-0.83-0.065-1.134-0.192c-0.303-0.125-0.548-0.301-0.735-0.516
						c-0.188-0.215-0.32-0.457-0.397-0.72c-0.082-0.265-0.117-0.521-0.117-0.766c0-0.464,0.088-0.864,0.268-1.201
						c0.184-0.339,0.42-0.641,0.718-0.9c0.292-0.257,0.626-0.492,1.001-0.698c0.37-0.207,0.756-0.409,1.147-0.605
						c-0.207-0.393-0.355-0.729-0.449-1.015c-0.094-0.286-0.139-0.579-0.139-0.884c0-0.404,0.069-0.759,0.214-1.068
						c0.14-0.31,0.331-0.574,0.566-0.794c0.237-0.222,0.506-0.388,0.809-0.501c0.306-0.113,0.616-0.17,0.929-0.17
						c0.292,0,0.543,0.044,0.751,0.124c0.208,0.086,0.38,0.196,0.514,0.333c0.137,0.137,0.239,0.291,0.302,0.462
						c0.063,0.17,0.095,0.343,0.095,0.509c0,0.393-0.098,0.747-0.301,1.06c-0.203,0.314-0.439,0.589-0.715,0.824
						c-0.275,0.238-0.551,0.435-0.828,0.599c-0.28,0.161-0.503,0.282-0.671,0.36c0.242,0.422,0.443,0.766,0.594,1.03
						c0.152,0.264,0.297,0.509,0.434,0.729c0.139,0.219,0.286,0.45,0.443,0.686c0.158,0.237,0.358,0.537,0.604,0.898
						c0.155-0.126,0.322-0.288,0.499-0.479c0.177-0.19,0.355-0.397,0.529-0.618c0.18-0.22,0.35-0.448,0.517-0.677
						c0.167-0.23,0.317-0.449,0.457-0.657c0.048,0.11,0.102,0.209,0.16,0.303c0.061,0.092,0.133,0.189,0.222,0.288
						c-0.365,0.411-0.711,0.801-1.053,1.17c-0.339,0.369-0.694,0.705-1.069,1.009c0.069,0.117,0.14,0.233,0.214,0.346
						c0.075,0.112,0.163,0.242,0.267,0.381c0.102,0.143,0.223,0.31,0.362,0.496c0.137,0.184,0.309,0.4,0.514,0.645
						c-0.216-0.01-0.45-0.012-0.707-0.012c-0.128,0-0.253,0-0.373,0c-0.127,0-0.249,0.003-0.378,0.012l-0.752-1.103
						C243.335,131.274,243.165,131.406,242.96,131.557 M239.353,128.434c-0.346,0.409-0.517,0.892-0.517,1.451
						c0,0.305,0.049,0.578,0.147,0.818c0.099,0.241,0.237,0.448,0.414,0.62c0.175,0.17,0.384,0.303,0.618,0.396
						c0.237,0.091,0.494,0.141,0.767,0.141c0.256,0,0.498-0.033,0.73-0.098c0.229-0.065,0.449-0.143,0.653-0.241
						c0.207-0.099,0.4-0.211,0.584-0.333c0.181-0.121,0.348-0.237,0.507-0.347c-0.384-0.597-0.771-1.211-1.164-1.84
						c-0.392-0.626-0.73-1.22-1.013-1.781h-0.018C240.265,127.623,239.697,128.027,239.353,128.434z M242.446,126.012
						c0.223-0.147,0.439-0.322,0.638-0.522c0.204-0.203,0.37-0.431,0.502-0.692c0.135-0.261,0.201-0.555,0.201-0.891
						c0-0.316-0.094-0.569-0.273-0.767c-0.181-0.196-0.437-0.292-0.76-0.292c-0.423,0-0.778,0.156-1.075,0.469
						c-0.295,0.316-0.442,0.736-0.442,1.266c0,0.324,0.053,0.619,0.156,0.884c0.101,0.265,0.242,0.573,0.42,0.929h0.029
						C242.016,126.287,242.217,126.159,242.446,126.012z"/>
					<path style="fill:#715F6A;" d="M256.734,124.349c-0.182,0.779-0.359,1.598-0.536,2.45c-0.177,0.85-0.351,1.702-0.517,2.557
						c-0.166,0.858-0.309,1.642-0.427,2.36c-0.088-0.01-0.181-0.014-0.279-0.014c-0.102,0-0.216,0-0.354,0c-0.118,0-0.235,0-0.355,0
						c-0.116,0-0.226,0.004-0.322,0.014c0.196-0.736,0.396-1.547,0.604-2.427c0.207-0.879,0.399-1.748,0.581-2.609
						c0.18-0.861,0.345-1.673,0.494-2.442c0.148-0.766,0.264-1.411,0.355-1.934c-0.386,0-0.85,0.012-1.402,0.035
						c-0.55,0.022-1.175,0.06-1.883,0.114c0.048-0.156,0.083-0.284,0.105-0.384c0.016-0.098,0.037-0.231,0.057-0.399
						c0.529,0.03,1.095,0.048,1.699,0.052c0.605,0.007,1.276,0.008,2.01,0.008c0.747,0,1.412-0.004,1.997-0.014
						c0.582-0.01,1.114-0.026,1.598-0.046c-0.05,0.129-0.084,0.242-0.103,0.339c-0.02,0.102-0.042,0.248-0.06,0.443
						c-0.177-0.011-0.384-0.024-0.618-0.042c-0.237-0.014-0.48-0.031-0.729-0.048c-0.252-0.016-0.502-0.029-0.751-0.039
						c-0.25-0.014-0.475-0.02-0.671-0.02C257.081,122.888,256.916,123.569,256.734,124.349"/>
					<path style="fill:#715F6A;" d="M263.376,131.708c-0.408,0.095-0.822,0.143-1.245,0.143c-0.313,0-0.643-0.044-0.988-0.128
						c-0.343-0.082-0.66-0.239-0.948-0.471c-0.29-0.23-0.528-0.539-0.715-0.928c-0.188-0.388-0.279-0.873-0.279-1.465
						c0-0.579,0.09-1.124,0.272-1.635c0.184-0.509,0.439-0.955,0.771-1.332c0.335-0.378,0.736-0.677,1.202-0.899
						c0.467-0.219,0.978-0.331,1.538-0.331c0.355,0,0.688,0.042,1.001,0.125c0.313,0.084,0.593,0.222,0.841,0.409
						c0.245,0.195,0.438,0.445,0.579,0.754c0.144,0.309,0.214,0.686,0.214,1.126c0,0.275-0.018,0.51-0.057,0.707
						c-0.041,0.196-0.075,0.358-0.103,0.487c-0.204-0.011-0.392-0.022-0.559-0.031c-0.166-0.008-0.329-0.015-0.491-0.02
						c-0.159-0.007-0.332-0.012-0.506-0.016c-0.175-0.004-0.378-0.008-0.603-0.008h-1.541c-0.234,0-0.471,0.007-0.706,0.014
						c-0.235,0.014-0.441,0.019-0.616,0.019c-0.019,0.097-0.037,0.212-0.052,0.35c-0.015,0.136-0.022,0.303-0.022,0.499
						c0,0.479,0.073,0.865,0.22,1.158c0.148,0.295,0.325,0.522,0.535,0.69c0.209,0.166,0.442,0.279,0.692,0.335
						c0.249,0.061,0.475,0.091,0.681,0.091c0.283,0,0.54-0.03,0.769-0.088c0.231-0.056,0.437-0.125,0.618-0.2
						c0.181-0.078,0.339-0.162,0.471-0.254c0.133-0.091,0.241-0.167,0.329-0.224h0.044l-0.189,0.662
						C264.169,131.461,263.784,131.617,263.376,131.708 M262.331,125.198c-0.241,0.076-0.479,0.208-0.71,0.4
						c-0.23,0.192-0.441,0.452-0.638,0.782c-0.199,0.326-0.351,0.747-0.457,1.258c0.303,0.019,0.638,0.033,1.002,0.044
						c0.362,0.011,0.694,0.015,1,0.015H263c0.245,0,0.506-0.003,0.779-0.007c0.275-0.005,0.51-0.022,0.707-0.052
						c0.02-0.087,0.041-0.195,0.06-0.317c0.018-0.122,0.03-0.283,0.03-0.479c0-0.324-0.048-0.599-0.143-0.823
						c-0.091-0.226-0.215-0.407-0.367-0.547c-0.151-0.136-0.321-0.237-0.506-0.295c-0.189-0.058-0.378-0.086-0.575-0.086
						S262.572,125.125,262.331,125.198z"/>
					<path style="fill:#715F6A;" d="M270.703,131.864c-0.452,0-0.877-0.056-1.275-0.162c-0.399-0.107-0.745-0.288-1.041-0.537
						c-0.298-0.25-0.532-0.566-0.701-0.948c-0.17-0.385-0.254-0.837-0.254-1.357c0-0.461,0.08-0.94,0.238-1.435
						c0.162-0.495,0.418-0.949,0.769-1.363c0.35-0.411,0.798-0.749,1.348-1.015c0.55-0.267,1.215-0.399,1.989-0.399
						c0.532,0,0.981,0.05,1.349,0.155c0.367,0.102,0.662,0.199,0.891,0.288c-0.05,0.105-0.092,0.199-0.126,0.277
						c-0.037,0.078-0.064,0.154-0.088,0.229c-0.023,0.072-0.05,0.152-0.072,0.245c-0.026,0.088-0.053,0.189-0.082,0.309h-0.09
						c-0.185-0.344-0.453-0.601-0.796-0.774c-0.343-0.173-0.701-0.258-1.073-0.258c-0.461,0-0.883,0.112-1.268,0.325
						c-0.384,0.216-0.709,0.498-0.977,0.845c-0.272,0.35-0.482,0.747-0.63,1.196c-0.147,0.445-0.218,0.905-0.218,1.375
						c0,0.53,0.082,0.962,0.242,1.296c0.161,0.335,0.36,0.592,0.605,0.773c0.239,0.181,0.494,0.306,0.764,0.369
						c0.271,0.064,0.509,0.094,0.713,0.094c0.254,0,0.492-0.024,0.714-0.079c0.22-0.056,0.423-0.12,0.597-0.192
						c0.178-0.073,0.329-0.146,0.465-0.215c0.131-0.067,0.235-0.12,0.314-0.159l0.075,0.029l-0.207,0.616
						C272.204,131.706,271.477,131.864,270.703,131.864"/>
					<path style="fill:#715F6A;" d="M278.058,125.267c0.23-0.155,0.457-0.282,0.676-0.37c0.222-0.087,0.431-0.147,0.627-0.174
						c0.197-0.029,0.373-0.046,0.53-0.046c0.371,0,0.691,0.058,0.949,0.177c0.26,0.118,0.472,0.264,0.635,0.435
						c0.161,0.171,0.277,0.36,0.352,0.56c0.072,0.2,0.112,0.385,0.112,0.552c0,0.079-0.005,0.156-0.015,0.235
						c-0.012,0.079-0.034,0.197-0.067,0.36c-0.035,0.162-0.083,0.381-0.143,0.656c-0.057,0.273-0.135,0.642-0.234,1.105
						c-0.078,0.412-0.162,0.819-0.25,1.224c-0.087,0.401-0.162,0.793-0.22,1.174c-0.02,0.14-0.035,0.249-0.045,0.333
						c-0.009,0.083-0.022,0.159-0.029,0.227c-0.076-0.01-0.171-0.014-0.275-0.014c-0.101,0-0.207,0-0.316,0
						c-0.127,0-0.242,0-0.344,0c-0.103,0-0.201,0.004-0.287,0.014c0.018-0.06,0.058-0.205,0.122-0.442s0.135-0.514,0.215-0.839
						c0.076-0.324,0.162-0.671,0.249-1.045c0.09-0.373,0.171-0.733,0.245-1.081c0.073-0.351,0.133-0.669,0.182-0.959
						c0.05-0.291,0.076-0.507,0.076-0.653c0-0.178-0.03-0.345-0.09-0.501c-0.06-0.161-0.146-0.301-0.265-0.427
						c-0.117-0.129-0.267-0.23-0.447-0.303c-0.182-0.073-0.396-0.112-0.642-0.112c-0.107,0-0.264,0.019-0.472,0.052
						c-0.205,0.035-0.423,0.117-0.656,0.252c-0.23,0.132-0.45,0.328-0.66,0.594c-0.214,0.267-0.378,0.628-0.496,1.09
						c-0.046,0.199-0.112,0.479-0.189,0.839c-0.079,0.366-0.161,0.754-0.245,1.171c-0.083,0.418-0.161,0.841-0.235,1.266
						c-0.073,0.428-0.132,0.793-0.167,1.098c-0.082-0.01-0.167-0.014-0.258-0.014c-0.092,0-0.196,0-0.303,0
						c-0.098,0-0.207,0-0.324,0c-0.118,0-0.224,0.004-0.322,0.014c0.038-0.107,0.11-0.381,0.22-0.826
						c0.107-0.439,0.231-0.975,0.374-1.612c0.143-0.634,0.299-1.328,0.464-2.089c0.169-0.762,0.328-1.526,0.48-2.297
						c0.152-0.77,0.291-1.518,0.427-2.238c0.131-0.722,0.237-1.358,0.316-1.907c0.155,0.037,0.352,0.057,0.588,0.057
						c0.098,0,0.207-0.005,0.316-0.014c0.116-0.011,0.216-0.027,0.303-0.044c-0.105,0.419-0.212,0.839-0.317,1.257
						c-0.101,0.416-0.204,0.849-0.302,1.289c-0.056,0.234-0.107,0.461-0.154,0.669c-0.045,0.214-0.087,0.416-0.132,0.618
						c-0.042,0.203-0.087,0.405-0.133,0.613c-0.044,0.207-0.095,0.434-0.154,0.676l0.058,0.031
						C277.604,125.633,277.827,125.423,278.058,125.267"/>
					<path style="fill:#715F6A;" d="M286.34,125.901c0.099-0.139,0.23-0.273,0.392-0.415c0.159-0.137,0.345-0.264,0.552-0.381
						c0.207-0.12,0.435-0.214,0.692-0.288c0.254-0.073,0.518-0.109,0.796-0.109c0.263,0,0.521,0.035,0.764,0.109
						c0.245,0.075,0.464,0.185,0.656,0.331c0.193,0.148,0.344,0.333,0.464,0.551c0.117,0.223,0.178,0.483,0.178,0.777
						c0,0.097-0.003,0.186-0.01,0.263c-0.004,0.082-0.019,0.184-0.042,0.31c-0.027,0.128-0.063,0.29-0.105,0.488
						c-0.044,0.195-0.106,0.46-0.182,0.793c-0.042,0.178-0.095,0.426-0.165,0.745c-0.065,0.318-0.136,0.653-0.204,1
						c-0.069,0.35-0.133,0.679-0.195,0.989c-0.057,0.309-0.09,0.526-0.101,0.653c-0.079-0.01-0.166-0.014-0.258-0.014
						c-0.094,0-0.195,0-0.301,0c-0.11,0-0.223,0-0.341,0c-0.116,0-0.219,0.004-0.306,0.014c0.038-0.078,0.091-0.241,0.159-0.484
						c0.069-0.245,0.144-0.526,0.23-0.842c0.082-0.313,0.165-0.65,0.25-1.013c0.083-0.365,0.161-0.715,0.229-1.053
						c0.068-0.34,0.122-0.653,0.169-0.937c0.045-0.283,0.068-0.51,0.068-0.677c0-0.226-0.044-0.42-0.128-0.581
						c-0.082-0.162-0.192-0.295-0.329-0.405c-0.137-0.106-0.294-0.19-0.464-0.242c-0.173-0.054-0.351-0.08-0.539-0.08
						c-0.117,0-0.276,0.016-0.472,0.057c-0.196,0.039-0.399,0.116-0.611,0.227c-0.209,0.114-0.411,0.273-0.603,0.482
						c-0.193,0.203-0.341,0.475-0.449,0.808c-0.06,0.166-0.121,0.39-0.192,0.669c-0.069,0.282-0.141,0.586-0.214,0.917
						c-0.075,0.326-0.147,0.662-0.216,1.004c-0.064,0.348-0.128,0.669-0.182,0.97c-0.054,0.299-0.101,0.555-0.139,0.771
						c-0.039,0.218-0.067,0.351-0.075,0.411c-0.078-0.01-0.162-0.014-0.249-0.014c-0.091,0-0.188,0-0.295,0
						c-0.109,0-0.214,0-0.317,0s-0.196,0.004-0.275,0.014c0.072-0.193,0.152-0.482,0.245-0.862c0.095-0.375,0.189-0.79,0.287-1.242
						c0.098-0.45,0.199-0.921,0.302-1.408c0.103-0.484,0.199-0.948,0.287-1.392c0.09-0.443,0.165-0.843,0.229-1.197
						c0.065-0.36,0.113-0.637,0.14-0.835c0.148,0.041,0.324,0.058,0.53,0.058c0.087,0,0.182-0.003,0.28-0.012
						c0.097-0.012,0.192-0.026,0.279-0.046l-0.279,1.09L286.34,125.901"/>
					<path style="fill:#715F6A;" d="M293.256,127.386c0.192-0.51,0.464-0.968,0.816-1.375c0.355-0.409,0.788-0.737,1.298-0.988
						c0.509-0.249,1.079-0.375,1.707-0.375c0.581,0,1.07,0.082,1.473,0.243c0.401,0.162,0.726,0.375,0.97,0.639
						c0.249,0.268,0.423,0.57,0.533,0.914c0.107,0.343,0.159,0.702,0.159,1.076c0,0.54-0.095,1.073-0.291,1.596
						c-0.197,0.526-0.479,0.994-0.839,1.408c-0.365,0.412-0.801,0.737-1.314,0.979c-0.509,0.241-1.084,0.36-1.721,0.36
						c-0.609,0-1.111-0.09-1.513-0.264c-0.396-0.178-0.709-0.412-0.939-0.701c-0.233-0.29-0.394-0.611-0.486-0.958
						c-0.097-0.345-0.141-0.681-0.141-0.996C292.969,128.417,293.063,127.896,293.256,127.386 M294.567,130.834
						c0.288,0.403,0.767,0.603,1.435,0.603c0.559,0,1.03-0.15,1.413-0.448c0.384-0.302,0.698-0.668,0.943-1.1
						c0.243-0.43,0.423-0.888,0.529-1.367c0.11-0.482,0.166-0.905,0.166-1.266c0-0.303-0.045-0.589-0.128-0.847
						c-0.084-0.258-0.208-0.487-0.375-0.677c-0.167-0.192-0.373-0.34-0.619-0.449c-0.245-0.109-0.522-0.163-0.838-0.163
						c-0.532,0-0.983,0.144-1.364,0.428c-0.377,0.286-0.684,0.637-0.921,1.051c-0.234,0.42-0.405,0.871-0.513,1.355
						c-0.109,0.487-0.163,0.936-0.163,1.348C294.132,129.92,294.277,130.43,294.567,130.834z"/>
					<path style="fill:#715F6A;" d="M305.142,121.651c-0.114,0.475-0.246,1.053-0.399,1.729c-0.152,0.677-0.317,1.417-0.494,2.217
						c-0.178,0.803-0.345,1.586-0.506,2.356c-0.165,0.773-0.307,1.494-0.437,2.163c-0.128,0.673-0.224,1.208-0.294,1.6
						c-0.08-0.01-0.163-0.014-0.26-0.014c-0.092,0-0.207,0-0.345,0c-0.127,0-0.237,0-0.329,0c-0.095,0-0.182,0.004-0.26,0.014
						c0.158-0.569,0.316-1.189,0.48-1.864c0.161-0.671,0.322-1.358,0.479-2.053c0.155-0.696,0.306-1.387,0.448-2.077
						c0.144-0.687,0.272-1.341,0.392-1.96c0.118-0.618,0.22-1.186,0.31-1.707c0.087-0.52,0.155-0.958,0.205-1.309
						c0.147,0.037,0.332,0.057,0.559,0.057c0.106,0,0.22-0.005,0.339-0.014c0.116-0.011,0.23-0.027,0.339-0.044
						C305.329,120.873,305.252,121.177,305.142,121.651"/>
					<path style="fill:#715F6A;" d="M306.466,127.386c0.19-0.51,0.465-0.968,0.816-1.375c0.354-0.409,0.788-0.737,1.298-0.988
						c0.51-0.249,1.079-0.375,1.706-0.375c0.582,0,1.072,0.082,1.473,0.243c0.401,0.162,0.728,0.375,0.973,0.639
						c0.246,0.268,0.423,0.57,0.532,0.914c0.106,0.343,0.16,0.702,0.16,1.076c0,0.54-0.097,1.073-0.295,1.596
						c-0.195,0.526-0.473,0.994-0.838,1.408c-0.367,0.412-0.801,0.737-1.313,0.979c-0.509,0.241-1.083,0.36-1.721,0.36
						c-0.611,0-1.114-0.09-1.51-0.264c-0.399-0.178-0.713-0.412-0.943-0.701c-0.231-0.29-0.393-0.611-0.487-0.958
						c-0.094-0.345-0.139-0.681-0.139-0.996C306.179,128.417,306.275,127.896,306.466,127.386 M307.776,130.834
						c0.291,0.403,0.767,0.603,1.435,0.603c0.559,0,1.031-0.15,1.412-0.448c0.386-0.302,0.701-0.668,0.947-1.1
						c0.243-0.43,0.419-0.888,0.528-1.367c0.109-0.482,0.165-0.905,0.165-1.266c0-0.303-0.044-0.589-0.126-0.847
						c-0.083-0.258-0.212-0.487-0.377-0.677c-0.167-0.192-0.374-0.34-0.619-0.449c-0.243-0.109-0.522-0.163-0.839-0.163
						c-0.531,0-0.983,0.144-1.363,0.428c-0.375,0.286-0.683,0.637-0.919,1.051c-0.234,0.42-0.407,0.871-0.513,1.355
						c-0.11,0.487-0.165,0.936-0.165,1.348C307.341,129.92,307.488,130.43,307.776,130.834z"/>
					<path style="fill:#715F6A;" d="M316.385,128.941c-0.12-0.064-0.237-0.158-0.356-0.28c-0.117-0.122-0.22-0.28-0.307-0.48
						c-0.088-0.193-0.133-0.445-0.133-0.749c0-0.343,0.069-0.681,0.205-1.015c0.14-0.333,0.343-0.631,0.619-0.894
						c0.275-0.258,0.612-0.469,1.009-0.631c0.397-0.162,0.86-0.243,1.391-0.243c0.248,0,0.437,0.015,0.582,0.046
						c0.14,0.029,0.32,0.072,0.537,0.132c0.137,0.038,0.256,0.06,0.36,0.065c0.102,0.003,0.234,0.005,0.39,0.005
						c0.088,0,0.196-0.003,0.324-0.005c0.129-0.005,0.26-0.014,0.399-0.023c0.136-0.008,0.269-0.018,0.396-0.022
						c0.129-0.005,0.241-0.008,0.341-0.008c0,0.05-0.007,0.101-0.016,0.147c-0.01,0.05-0.014,0.106-0.014,0.162
						c0,0.06,0.004,0.116,0.014,0.165c0.009,0.049,0.016,0.097,0.016,0.146c-0.355-0.019-0.634-0.034-0.832-0.045
						c-0.203-0.01-0.39-0.018-0.569-0.029c0.08,0.109,0.166,0.253,0.265,0.433c0.098,0.184,0.148,0.441,0.148,0.775
						c0,0.207-0.027,0.423-0.08,0.649c-0.054,0.226-0.141,0.443-0.257,0.653c-0.12,0.214-0.267,0.415-0.446,0.604
						c-0.174,0.193-0.385,0.358-0.631,0.495c-0.344,0.186-0.703,0.303-1.073,0.346c-0.375,0.044-0.679,0.067-0.914,0.067
						c-0.166,0-0.328-0.003-0.473-0.007c-0.146-0.005-0.273-0.012-0.382-0.022c-0.041,0.029-0.094,0.067-0.159,0.107
						c-0.069,0.046-0.137,0.099-0.201,0.165c-0.064,0.063-0.118,0.137-0.169,0.229c-0.05,0.087-0.076,0.189-0.076,0.307
						c0,0.148,0.037,0.265,0.106,0.35c0.068,0.082,0.156,0.14,0.264,0.174c0.11,0.035,0.224,0.058,0.355,0.067
						c0.125,0.011,0.249,0.012,0.367,0.012c0.411,0,0.763,0.003,1.053,0.01c0.288,0.005,0.535,0.023,0.737,0.044
						c0.201,0.024,0.374,0.06,0.522,0.103c0.147,0.046,0.29,0.107,0.424,0.184c0.139,0.09,0.249,0.188,0.335,0.295
						c0.083,0.109,0.15,0.215,0.196,0.318c0.05,0.102,0.083,0.209,0.099,0.322c0.014,0.114,0.02,0.214,0.02,0.302
						c0,0.284-0.065,0.613-0.197,0.981c-0.136,0.369-0.348,0.717-0.642,1.043c-0.297,0.329-0.684,0.607-1.17,0.832
						c-0.487,0.226-1.085,0.337-1.791,0.337c-0.343,0-0.679-0.035-1-0.107c-0.324-0.075-0.608-0.211-0.854-0.407
						c-0.197-0.156-0.351-0.358-0.465-0.604c-0.112-0.245-0.169-0.51-0.169-0.794c0-0.346,0.083-0.667,0.25-0.97
						c0.165-0.305,0.394-0.547,0.679-0.724c0.166-0.107,0.314-0.182,0.448-0.222c0.132-0.038,0.238-0.075,0.316-0.102l0.016-0.105
						c-0.059-0.007-0.133-0.031-0.22-0.065c-0.088-0.035-0.178-0.083-0.267-0.147c-0.087-0.064-0.163-0.147-0.227-0.249
						c-0.063-0.106-0.095-0.234-0.095-0.392c0-0.224,0.044-0.422,0.132-0.589c0.088-0.166,0.2-0.307,0.332-0.419
						c0.132-0.114,0.272-0.208,0.419-0.287c0.147-0.079,0.273-0.144,0.382-0.193v-0.101
						C316.589,129.05,316.502,129.005,316.385,128.941 M315.47,134.293c0.098,0.192,0.235,0.355,0.405,0.477
						c0.173,0.124,0.366,0.212,0.584,0.273c0.214,0.059,0.439,0.091,0.676,0.091c0.442,0,0.826-0.073,1.156-0.218
						c0.328-0.143,0.604-0.324,0.824-0.547c0.219-0.222,0.385-0.468,0.492-0.739c0.107-0.272,0.165-0.541,0.165-0.807
						c0-0.294-0.069-0.521-0.201-0.68c-0.132-0.159-0.299-0.271-0.502-0.339c-0.2-0.069-0.419-0.112-0.653-0.118
						c-0.237-0.011-0.454-0.015-0.649-0.015c-0.196,0-0.452,0.008-0.764,0.029c-0.316,0.019-0.6,0.12-0.854,0.297
						c-0.177,0.117-0.32,0.248-0.427,0.392c-0.107,0.143-0.193,0.288-0.252,0.435c-0.057,0.148-0.098,0.287-0.117,0.422
						c-0.02,0.132-0.03,0.245-0.03,0.333C315.323,133.857,315.372,134.092,315.47,134.293z M316.848,128.204
						c0.083,0.19,0.19,0.344,0.324,0.457c0.135,0.114,0.277,0.195,0.435,0.245c0.155,0.048,0.314,0.071,0.471,0.071
						c0.354,0,0.654-0.087,0.906-0.265c0.252-0.175,0.453-0.39,0.611-0.646c0.156-0.254,0.269-0.526,0.339-0.817
						c0.068-0.291,0.103-0.544,0.103-0.773c0-0.443-0.114-0.786-0.339-1.031c-0.227-0.248-0.547-0.367-0.959-0.367
						c-0.371,0-0.687,0.086-0.943,0.257c-0.254,0.171-0.462,0.382-0.624,0.633c-0.16,0.249-0.279,0.516-0.347,0.796
						c-0.069,0.277-0.102,0.526-0.102,0.743C316.722,127.781,316.765,128.012,316.848,128.204z"/>
					<path style="fill:#715F6A;" d="M326.934,129.323c0.211-0.359,0.416-0.718,0.613-1.083c0.303-0.559,0.552-1.012,0.741-1.362
						c0.195-0.347,0.347-0.633,0.465-0.854c0.117-0.222,0.205-0.394,0.268-0.524c0.054-0.125,0.109-0.25,0.159-0.37l0.146-0.351
						c0.15,0.041,0.32,0.058,0.517,0.058c0.197,0,0.352-0.018,0.471-0.058c-0.537,0.853-1.09,1.733-1.649,2.637
						c-0.56,0.903-1.11,1.815-1.649,2.738c-0.54,0.922-1.062,1.836-1.57,2.74c-0.505,0.902-0.971,1.787-1.393,2.65
						c-0.107-0.038-0.264-0.06-0.469-0.06c-0.197,0-0.35,0.022-0.456,0.06c0.412-0.645,0.822-1.3,1.238-1.959
						c0.409-0.656,0.804-1.285,1.175-1.884c-0.295-1.207-0.584-2.37-0.873-3.482c-0.291-1.117-0.593-2.262-0.907-3.44
						c0.088,0.02,0.185,0.034,0.292,0.046c0.11,0.01,0.218,0.012,0.326,0.012c0.237,0,0.426-0.018,0.575-0.058
						c0.117,0.677,0.283,1.491,0.501,2.444c0.215,0.954,0.479,2.008,0.793,3.165h0.075
						C326.52,130.036,326.724,129.682,326.934,129.323"/>
					<path style="fill:#715F6A;" d="M341.787,122.322c-0.294-0.188-0.638-0.28-1.031-0.28c-0.307,0-0.592,0.06-0.851,0.177
						c-0.264,0.118-0.492,0.273-0.683,0.464c-0.195,0.193-0.344,0.416-0.446,0.672c-0.103,0.254-0.158,0.521-0.158,0.796
						c0,0.267,0.042,0.491,0.12,0.679c0.083,0.188,0.193,0.352,0.341,0.502c0.147,0.148,0.321,0.287,0.518,0.412
						c0.197,0.129,0.413,0.263,0.65,0.397c0.23,0.139,0.445,0.276,0.652,0.407c0.207,0.133,0.389,0.286,0.547,0.458
						c0.156,0.17,0.286,0.374,0.378,0.605c0.091,0.23,0.139,0.511,0.139,0.846c0,0.393-0.087,0.797-0.267,1.209
						c-0.174,0.412-0.431,0.79-0.77,1.128c-0.339,0.34-0.759,0.612-1.26,0.82c-0.502,0.208-1.081,0.309-1.737,0.309
						c-0.374,0-0.74-0.038-1.099-0.114c-0.359-0.075-0.694-0.207-1.007-0.399c0.097-0.188,0.188-0.377,0.271-0.57
						c0.084-0.19,0.155-0.38,0.214-0.566h0.102c0.112,0.207,0.248,0.377,0.42,0.513c0.174,0.139,0.355,0.249,0.545,0.333
						c0.19,0.084,0.385,0.141,0.582,0.177c0.196,0.035,0.369,0.053,0.516,0.053c0.381,0,0.722-0.078,1.024-0.229
						c0.299-0.154,0.547-0.346,0.741-0.581c0.199-0.235,0.348-0.495,0.452-0.779c0.101-0.284,0.151-0.556,0.151-0.809
						c0-0.264-0.039-0.494-0.121-0.683c-0.084-0.192-0.197-0.36-0.333-0.507c-0.137-0.148-0.301-0.283-0.492-0.415
						c-0.193-0.125-0.39-0.257-0.597-0.394c-0.226-0.137-0.446-0.277-0.656-0.418c-0.211-0.144-0.397-0.305-0.56-0.487
						c-0.16-0.181-0.29-0.392-0.389-0.634c-0.098-0.238-0.15-0.525-0.15-0.86c0-0.422,0.09-0.816,0.267-1.185
						c0.178-0.365,0.424-0.686,0.744-0.955c0.318-0.269,0.696-0.483,1.134-0.639c0.437-0.159,0.914-0.234,1.436-0.234
						c0.48,0,0.872,0.05,1.178,0.156c0.303,0.105,0.54,0.196,0.706,0.272c-0.128,0.223-0.224,0.408-0.287,0.55
						c-0.064,0.144-0.135,0.333-0.212,0.567h-0.105C342.288,122.761,342.08,122.508,341.787,122.322"/>
					<path style="fill:#715F6A;" d="M344.52,127.386c0.189-0.51,0.463-0.968,0.818-1.375c0.352-0.409,0.785-0.737,1.295-0.988
						c0.509-0.249,1.081-0.375,1.707-0.375c0.581,0,1.07,0.082,1.472,0.243c0.404,0.162,0.729,0.375,0.974,0.639
						c0.245,0.268,0.42,0.57,0.529,0.914c0.109,0.343,0.163,0.702,0.163,1.076c0,0.54-0.099,1.073-0.295,1.596
						c-0.197,0.526-0.476,0.994-0.838,1.408c-0.366,0.412-0.801,0.737-1.311,0.979c-0.511,0.241-1.085,0.36-1.723,0.36
						c-0.608,0-1.114-0.09-1.51-0.264c-0.397-0.178-0.711-0.412-0.943-0.701c-0.231-0.29-0.393-0.611-0.486-0.958
						c-0.094-0.345-0.14-0.681-0.14-0.996C344.232,128.417,344.327,127.896,344.52,127.386 M345.827,130.834
						c0.291,0.403,0.771,0.603,1.439,0.603c0.556,0,1.03-0.15,1.411-0.448c0.384-0.302,0.701-0.668,0.945-1.1
						c0.243-0.43,0.42-0.888,0.529-1.367c0.107-0.482,0.162-0.905,0.162-1.266c0-0.303-0.042-0.589-0.125-0.847
						c-0.083-0.258-0.21-0.487-0.377-0.677c-0.165-0.192-0.371-0.34-0.619-0.449c-0.243-0.109-0.524-0.163-0.837-0.163
						c-0.533,0-0.986,0.144-1.362,0.428c-0.381,0.286-0.684,0.637-0.922,1.051c-0.235,0.42-0.408,0.871-0.513,1.355
						c-0.11,0.487-0.166,0.936-0.166,1.348C345.393,129.92,345.539,130.43,345.827,130.834z"/>
					<path style="fill:#715F6A;" d="M356.403,121.651c-0.113,0.475-0.245,1.053-0.399,1.729c-0.154,0.677-0.316,1.417-0.491,2.217
						c-0.178,0.803-0.347,1.586-0.51,2.356c-0.16,0.773-0.307,1.494-0.434,2.163c-0.126,0.673-0.227,1.208-0.294,1.6
						c-0.082-0.01-0.166-0.014-0.258-0.014c-0.092,0-0.209,0-0.344,0c-0.129,0-0.239,0-0.335,0c-0.092,0-0.178,0.004-0.256,0.014
						c0.158-0.569,0.317-1.189,0.477-1.864c0.165-0.671,0.321-1.358,0.48-2.053c0.154-0.696,0.305-1.387,0.448-2.077
						c0.141-0.687,0.275-1.341,0.392-1.96c0.117-0.618,0.22-1.186,0.307-1.707c0.091-0.52,0.159-0.958,0.208-1.309
						c0.147,0.037,0.335,0.057,0.559,0.057c0.107,0,0.22-0.005,0.339-0.014c0.118-0.011,0.229-0.027,0.339-0.044
						C356.592,120.873,356.519,121.177,356.403,121.651"/>
					<path style="fill:#715F6A;" d="M362.36,130.701c-0.117,0.147-0.257,0.292-0.419,0.435c-0.162,0.14-0.347,0.268-0.552,0.384
						c-0.208,0.112-0.435,0.199-0.686,0.264c-0.25,0.064-0.532,0.094-0.847,0.094c-0.245,0-0.492-0.027-0.735-0.088
						c-0.245-0.058-0.467-0.158-0.665-0.301c-0.196-0.141-0.354-0.318-0.477-0.532c-0.122-0.209-0.184-0.453-0.184-0.726
						c0-0.188,0.042-0.472,0.124-0.854c0.084-0.384,0.196-0.876,0.332-1.474c0.03-0.125,0.072-0.311,0.127-0.552
						c0.052-0.241,0.107-0.507,0.162-0.801c0.054-0.297,0.107-0.597,0.161-0.906c0.054-0.309,0.097-0.596,0.125-0.862
						c0.156,0.041,0.374,0.058,0.65,0.058c0.254,0,0.464-0.018,0.631-0.058c-0.098,0.374-0.214,0.805-0.345,1.298
						c-0.132,0.491-0.257,0.978-0.375,1.464c-0.118,0.484-0.219,0.934-0.303,1.34c-0.084,0.408-0.122,0.715-0.122,0.92
						c0,0.473,0.122,0.826,0.374,1.061c0.25,0.238,0.6,0.355,1.051,0.355c0.286,0,0.545-0.046,0.784-0.141
						c0.234-0.091,0.445-0.22,0.631-0.374c0.188-0.156,0.341-0.339,0.472-0.545c0.128-0.205,0.231-0.422,0.309-0.649
						c0.061-0.186,0.125-0.424,0.193-0.721c0.067-0.294,0.136-0.608,0.205-0.944c0.068-0.333,0.132-0.672,0.199-1.016
						c0.065-0.343,0.121-0.658,0.177-0.948c0.054-0.29,0.097-0.535,0.133-0.737c0.033-0.199,0.057-0.32,0.067-0.36
						c0.196,0.041,0.39,0.058,0.586,0.058c0.248,0,0.446-0.018,0.605-0.058c-0.049,0.159-0.113,0.4-0.199,0.73
						c-0.083,0.328-0.178,0.699-0.28,1.119c-0.103,0.416-0.205,0.862-0.31,1.338c-0.101,0.477-0.201,0.948-0.294,1.413
						c-0.092,0.468-0.175,0.905-0.25,1.311c-0.075,0.409-0.126,0.748-0.154,1.023c-0.088-0.01-0.175-0.014-0.258-0.014
						c-0.084,0-0.177,0-0.272,0c-0.107,0-0.212,0-0.309,0c-0.099,0-0.188,0.004-0.267,0.014l0.267-0.956L362.36,130.701"/>
					<path style="fill:#715F6A;" d="M369.097,123.957c-0.075,0.333-0.15,0.671-0.227,1.015c0.224,0,0.471-0.008,0.743-0.023
						c0.269-0.014,0.532-0.026,0.788-0.037c-0.058,0.207-0.09,0.409-0.09,0.604c-0.253-0.008-0.52-0.02-0.801-0.035
						c-0.28-0.015-0.53-0.023-0.756-0.023l-0.575,2.771c-0.03,0.156-0.065,0.332-0.103,0.518c-0.041,0.195-0.076,0.384-0.112,0.567
						c-0.034,0.188-0.064,0.369-0.088,0.539c-0.024,0.173-0.037,0.317-0.037,0.435c0,0.197,0.034,0.363,0.103,0.499
						c0.071,0.139,0.155,0.249,0.258,0.333c0.102,0.084,0.215,0.146,0.339,0.185c0.121,0.038,0.237,0.059,0.345,0.059
						c0.169,0,0.335-0.026,0.502-0.079c0.169-0.056,0.321-0.129,0.469-0.215l-0.029,0.384c-0.197,0.155-0.435,0.263-0.715,0.321
						c-0.277,0.061-0.543,0.09-0.788,0.09c-0.185,0-0.373-0.026-0.562-0.08c-0.19-0.056-0.358-0.136-0.505-0.245
						c-0.144-0.107-0.264-0.246-0.356-0.419c-0.092-0.17-0.137-0.37-0.137-0.596c0-0.197,0.023-0.404,0.067-0.619
						c0.041-0.215,0.087-0.446,0.136-0.692c0.107-0.502,0.193-0.906,0.263-1.221c0.068-0.317,0.127-0.599,0.181-0.847
						c0.053-0.252,0.103-0.501,0.152-0.751c0.049-0.252,0.112-0.56,0.188-0.936c-0.135,0-0.287,0.003-0.454,0.008
						c-0.171,0.004-0.339,0.014-0.502,0.02c0.029-0.078,0.05-0.155,0.065-0.235c0.012-0.078,0.022-0.189,0.022-0.339
						c0.154,0.011,0.316,0.023,0.488,0.037c0.167,0.015,0.317,0.023,0.439,0.023l0.267-1.562l1.281-0.469
						C369.256,123.284,369.17,123.624,369.097,123.957"/>
					<path style="fill:#715F6A;" d="M373.913,125.51c-0.084,0.328-0.175,0.703-0.279,1.126c-0.105,0.42-0.21,0.871-0.313,1.347
						c-0.101,0.476-0.199,0.944-0.294,1.406c-0.092,0.462-0.177,0.898-0.249,1.311c-0.076,0.411-0.127,0.752-0.155,1.015
						c-0.107-0.01-0.223-0.014-0.34-0.014c-0.118,0-0.229,0-0.337,0c-0.117,0-0.223,0-0.317,0c-0.093,0-0.18,0.004-0.256,0.014
						c0.107-0.313,0.22-0.696,0.339-1.148c0.117-0.453,0.23-0.922,0.339-1.413c0.107-0.492,0.211-0.977,0.307-1.458
						c0.097-0.48,0.185-0.925,0.258-1.328c0.072-0.4,0.135-0.741,0.184-1.027c0.049-0.287,0.08-0.473,0.087-0.562
						c0.197,0.041,0.404,0.058,0.619,0.058c0.246,0,0.447-0.018,0.604-0.058C374.063,124.939,373.993,125.18,373.913,125.51
						 M373.507,121.952c0.139-0.136,0.307-0.204,0.499-0.204c0.2,0,0.366,0.068,0.502,0.204c0.139,0.139,0.207,0.306,0.207,0.502
						c0,0.199-0.068,0.363-0.207,0.501c-0.136,0.136-0.302,0.204-0.502,0.204c-0.192,0-0.36-0.068-0.499-0.204
						c-0.136-0.137-0.204-0.302-0.204-0.501C373.303,122.258,373.371,122.091,373.507,121.952z"/>
					<path style="fill:#715F6A;" d="M376.033,127.386c0.192-0.51,0.467-0.968,0.819-1.375c0.352-0.409,0.786-0.737,1.294-0.988
						c0.511-0.249,1.08-0.375,1.711-0.375c0.579,0,1.069,0.082,1.472,0.243c0.401,0.162,0.726,0.375,0.973,0.639
						c0.243,0.268,0.422,0.57,0.528,0.914c0.11,0.343,0.165,0.702,0.165,1.076c0,0.54-0.099,1.073-0.297,1.596
						c-0.196,0.526-0.473,0.994-0.838,1.408c-0.365,0.412-0.803,0.737-1.31,0.979c-0.511,0.241-1.085,0.36-1.723,0.36
						c-0.609,0-1.111-0.09-1.51-0.264c-0.396-0.178-0.713-0.412-0.944-0.701c-0.231-0.29-0.392-0.611-0.486-0.958
						c-0.091-0.345-0.139-0.681-0.139-0.996C375.747,128.417,375.843,127.896,376.033,127.386 M377.344,130.834
						c0.291,0.403,0.767,0.603,1.436,0.603c0.56,0,1.032-0.15,1.415-0.448c0.382-0.302,0.696-0.668,0.94-1.1
						c0.248-0.43,0.423-0.888,0.532-1.367c0.107-0.482,0.162-0.905,0.162-1.266c0-0.303-0.041-0.589-0.125-0.847
						c-0.084-0.258-0.209-0.487-0.375-0.677c-0.167-0.192-0.374-0.34-0.618-0.449c-0.245-0.109-0.525-0.163-0.841-0.163
						c-0.529,0-0.985,0.144-1.363,0.428c-0.378,0.286-0.684,0.637-0.921,1.051c-0.233,0.42-0.407,0.871-0.516,1.355
						c-0.107,0.487-0.16,0.936-0.16,1.348C376.91,129.92,377.054,130.43,377.344,130.834z"/>
					<path style="fill:#715F6A;" d="M386.969,125.901c0.097-0.139,0.229-0.273,0.39-0.415c0.163-0.137,0.343-0.264,0.552-0.381
						c0.205-0.12,0.437-0.214,0.692-0.288c0.253-0.073,0.518-0.109,0.794-0.109c0.265,0,0.521,0.035,0.764,0.109
						c0.246,0.075,0.465,0.185,0.656,0.331c0.192,0.148,0.345,0.333,0.465,0.551c0.114,0.223,0.177,0.483,0.177,0.777
						c0,0.097-0.003,0.186-0.01,0.263c-0.005,0.082-0.019,0.184-0.042,0.31c-0.026,0.128-0.058,0.29-0.103,0.488
						c-0.044,0.195-0.106,0.46-0.185,0.793c-0.041,0.178-0.091,0.426-0.16,0.745c-0.068,0.318-0.14,0.653-0.207,1
						c-0.069,0.35-0.133,0.679-0.193,0.989c-0.057,0.309-0.091,0.526-0.101,0.653c-0.08-0.01-0.167-0.014-0.258-0.014
						c-0.094,0-0.195,0-0.302,0c-0.11,0-0.222,0-0.339,0c-0.117,0-0.219,0.004-0.31,0.014c0.038-0.078,0.094-0.241,0.162-0.484
						c0.069-0.245,0.144-0.526,0.227-0.842c0.086-0.313,0.167-0.65,0.253-1.013c0.082-0.365,0.159-0.715,0.229-1.053
						c0.068-0.34,0.125-0.653,0.167-0.937c0.044-0.283,0.068-0.51,0.068-0.677c0-0.226-0.044-0.42-0.125-0.581
						c-0.086-0.162-0.195-0.295-0.332-0.405c-0.139-0.106-0.294-0.19-0.462-0.242c-0.173-0.054-0.354-0.08-0.539-0.08
						c-0.12,0-0.276,0.016-0.472,0.057c-0.197,0.039-0.399,0.116-0.612,0.227c-0.211,0.114-0.411,0.273-0.603,0.482
						c-0.19,0.203-0.341,0.475-0.449,0.808c-0.06,0.166-0.122,0.39-0.193,0.669c-0.068,0.282-0.139,0.586-0.212,0.917
						c-0.073,0.326-0.146,0.662-0.214,1.004c-0.068,0.348-0.131,0.669-0.186,0.97c-0.05,0.299-0.099,0.555-0.136,0.771
						c-0.042,0.218-0.065,0.351-0.075,0.411c-0.079-0.01-0.162-0.014-0.252-0.014c-0.088,0-0.186,0-0.294,0
						c-0.109,0-0.214,0-0.318,0c-0.101,0-0.192,0.004-0.269,0.014c0.069-0.193,0.15-0.482,0.241-0.862
						c0.094-0.375,0.189-0.79,0.288-1.242c0.097-0.45,0.199-0.921,0.302-1.408c0.103-0.484,0.197-0.948,0.287-1.392
						c0.09-0.443,0.165-0.843,0.226-1.197c0.065-0.36,0.113-0.637,0.141-0.835c0.147,0.041,0.324,0.058,0.531,0.058
						c0.09,0,0.181-0.003,0.28-0.012c0.099-0.012,0.19-0.026,0.28-0.046l-0.28,1.09L386.969,125.901"/>
					<path style="fill:#715F6A;" d="M397.355,125.317c-0.219-0.152-0.473-0.226-0.758-0.226c-0.215,0-0.407,0.038-0.582,0.124
						c-0.171,0.083-0.318,0.19-0.438,0.324c-0.125,0.131-0.219,0.282-0.283,0.446c-0.064,0.17-0.097,0.336-0.097,0.501
						c0,0.18,0.035,0.333,0.103,0.467c0.069,0.135,0.162,0.25,0.279,0.347c0.12,0.097,0.254,0.188,0.405,0.264
						c0.155,0.079,0.313,0.154,0.483,0.222c0.154,0.068,0.314,0.144,0.469,0.227c0.156,0.086,0.299,0.184,0.427,0.302
						c0.128,0.117,0.23,0.263,0.307,0.428c0.079,0.17,0.118,0.369,0.118,0.604c0,0.344-0.078,0.671-0.235,0.978
						c-0.155,0.31-0.37,0.581-0.639,0.816c-0.269,0.237-0.589,0.419-0.956,0.548c-0.37,0.126-0.77,0.189-1.202,0.189
						c-0.303,0-0.581-0.027-0.832-0.091c-0.25-0.06-0.502-0.161-0.756-0.303c0.106-0.177,0.199-0.36,0.279-0.547
						c0.079-0.186,0.141-0.333,0.193-0.441h0.101c0.109,0.291,0.299,0.514,0.569,0.66c0.268,0.15,0.567,0.222,0.888,0.222
						c0.286,0,0.528-0.049,0.732-0.146c0.2-0.098,0.366-0.222,0.492-0.37c0.126-0.146,0.224-0.31,0.288-0.492
						c0.063-0.182,0.093-0.351,0.093-0.507c0-0.316-0.095-0.548-0.291-0.707c-0.197-0.158-0.492-0.325-0.883-0.501
						c-0.159-0.069-0.32-0.147-0.482-0.237c-0.162-0.088-0.306-0.195-0.434-0.324c-0.126-0.128-0.23-0.282-0.309-0.464
						c-0.078-0.182-0.117-0.405-0.117-0.671c0-0.253,0.049-0.52,0.147-0.793c0.098-0.276,0.25-0.533,0.462-0.766
						c0.212-0.237,0.49-0.431,0.832-0.584c0.344-0.152,0.76-0.229,1.253-0.229c0.265,0,0.495,0.023,0.69,0.069
						c0.199,0.046,0.415,0.124,0.65,0.234c-0.148,0.341-0.243,0.575-0.287,0.713c-0.046,0.139-0.078,0.257-0.095,0.354h-0.135
						C397.73,125.683,397.579,125.47,397.355,125.317"/>
				</g>
			</g>
			<g>
				<g>
					<path style="fill:#715F6A;" d="M26.235,67.407c-0.662,1.562-2.691,2.844-4.524,2.844c-1.832,0-2.733-1.283-2.027-2.844
						c0.698-1.538,2.705-2.772,4.491-2.772C25.963,64.635,26.886,65.868,26.235,67.407"/>
				</g>
				<g>
					<path style="fill:#715F6A;" d="M25.532,57.734c-0.982,2.199-3.985,4.015-6.688,4.015c-2.704,0-4-1.816-2.922-4.015
						c1.057-2.153,4.015-3.87,6.619-3.87C25.148,53.864,26.493,55.581,25.532,57.734"/>
				</g>
				<g>
					<path style="fill:#715F6A;" d="M30.029,45.454c-1.27,2.814-5.312,5.157-8.992,5.157c-3.681,0-5.46-2.342-4.007-5.157
						c1.412-2.739,5.37-4.908,8.873-4.908C29.404,40.546,31.266,42.715,30.029,45.454"/>
				</g>
				<g>
					<path style="fill:#715F6A;" d="M39.341,33.009c-1.235,2.859-5.495,5.242-9.482,5.242c-3.985,0-6.014-2.383-4.568-5.242
						c1.402-2.776,5.577-4.968,9.354-4.968C38.422,28.042,40.54,30.233,39.341,33.009"/>
				</g>
				<g>
					<path style="fill:#715F6A;" d="M54.691,22.878c-1.1,2.972-5.577,5.456-9.958,5.456c-4.381,0-6.8-2.484-5.445-5.456
						c1.313-2.876,5.699-5.143,9.83-5.143C53.249,17.735,55.757,20.003,54.691,22.878"/>
				</g>
				<g>
					<path style="fill:#715F6A;" d="M69.651,18.046c-0.661,2.229-3.941,4.082-7.309,4.082c-3.369,0-5.427-1.853-4.617-4.082
						c0.792-2.175,4.029-3.9,7.247-3.9C68.192,14.146,70.293,15.871,69.651,18.046"/>
				</g>
				<g>
					<path style="fill:#715F6A;" d="M80.762,17.138c-0.366,1.57-2.598,2.866-4.974,2.866c-2.379,0-3.942-1.296-3.499-2.866
						c0.435-1.544,2.65-2.775,4.951-2.775S81.121,15.594,80.762,17.138"/>
				</g>
				<g>
					<path style="fill:#715F6A;" d="M88.407,18.847c-0.218,1.151-1.791,2.096-3.512,2.096s-2.905-0.945-2.65-2.096
						c0.252-1.136,1.82-2.044,3.5-2.044C87.427,16.802,88.619,17.711,88.407,18.847"/>
				</g>
				<g>
					<path style="fill:#715F6A;" d="M91.406,64.584c1.643-0.754,3.564-0.309,4.302,1.007c0.748,1.328,0.015,3.05-1.655,3.839
						c-1.679,0.79-3.641,0.318-4.364-1.043C88.975,67.041,89.752,65.342,91.406,64.584"/>
				</g>
				<g>
					<path style="fill:#715F6A;" d="M82.29,73.49c2.667-1.247,5.697-0.507,6.813,1.676c1.137,2.225-0.118,5.132-2.855,6.469
						c-2.768,1.352-5.913,0.548-6.978-1.77C78.224,77.595,79.598,74.751,82.29,73.49"/>
				</g>
				<g>
					<path style="fill:#715F6A;" d="M66.088,82.161c4.087-1.921,8.522-0.785,10.002,2.598c1.522,3.477-0.615,8.073-4.875,10.206
						c-4.334,2.168-9.024,0.877-10.366-2.818C59.544,88.56,61.934,84.117,66.088,82.161"/>
				</g>
				<g>
					<path style="fill:#715F6A;" d="M44.44,87.861c5.017-2.315,10.126-0.945,11.536,3.141c1.461,4.224-1.53,9.843-6.813,12.461
						c-5.392,2.67-10.838,1.081-12.02-3.458C36.003,95.618,39.33,90.222,44.44,87.861"/>
				</g>
				<g>
					<path style="fill:#715F6A;" d="M21.836,84.685c5.97-2.609,11.668-1.069,12.88,3.545c1.261,4.796-2.733,11.211-9.09,14.216
						c-6.507,3.073-12.62,1.239-13.476-3.968C11.329,93.474,15.738,87.349,21.836,84.685"/>
				</g>
				<g>
					<path style="fill:#715F6A;" d="M9.018,75.034c4.675-1.918,8.963-0.783,9.659,2.591c0.717,3.475-2.61,8.076-7.522,10.21
						c-5,2.172-9.516,0.879-9.99-2.82C0.707,81.423,4.263,76.983,9.018,75.034"/>
				</g>
				<g>
					<path style="fill:#715F6A;" d="M5.372,65.18c3.228-1.258,6.147-0.513,6.556,1.692c0.419,2.251-1.918,5.195-5.253,6.549
						c-3.379,1.368-6.403,0.555-6.706-1.794C-0.33,69.33,2.108,66.455,5.372,65.18"/>
				</g>
				<g>
					<path style="fill:#715F6A;" d="M7.631,56.673c2.229-0.841,4.255-0.341,4.542,1.124c0.288,1.488-1.311,3.42-3.594,4.302
						c-2.302,0.891-4.376,0.362-4.611-1.17C3.734,59.421,5.384,57.521,7.631,56.673"/>
				</g>
				<g>
					<path style="fill:#715F6A;" d="M68.591,26.815c-1.132-0.518-1.231-1.659-0.238-2.538c0.979-0.872,2.677-1.173,3.796-0.671
						c1.128,0.506,1.261,1.631,0.291,2.521C71.457,27.026,69.728,27.336,68.591,26.815"/>
				</g>
				<g>
					<path style="fill:#715F6A;" d="M78.805,27.711c-1.783-0.803-2.027-2.556-0.579-3.905c1.427-1.328,3.98-1.776,5.737-1.016
						c1.772,0.767,2.103,2.488,0.701,3.858C83.243,28.036,80.605,28.517,78.805,27.711"/>
				</g>
				<g>
					<path style="fill:#715F6A;" d="M90.366,32.082c-2.688-1.205-3.194-3.817-1.201-5.808c1.951-1.952,5.612-2.61,8.24-1.496
						c2.659,1.125,3.338,3.671,1.447,5.712C96.92,32.574,93.086,33.301,90.366,32.082"/>
				</g>
				<g>
					<path style="fill:#715F6A;" d="M101.534,40.526c-3.311-1.51-4.096-4.774-1.842-7.254c2.193-2.414,6.511-3.228,9.726-1.854
						c3.269,1.397,4.294,4.561,2.194,7.113C109.458,41.149,104.9,42.059,101.534,40.526"/>
				</g>
				<g>
					<path style="fill:#715F6A;" d="M107.836,55.198c-4.173-2.012-5.252-6.343-2.559-9.605c2.608-3.163,7.876-4.219,11.899-2.429
						c4.097,1.825,5.54,5.993,3.084,9.373C117.722,56.029,112.088,57.251,107.836,55.198"/>
				</g>
				<g>
					<path style="fill:#715F6A;" d="M106.182,70.945c-3.557-1.85-4.464-5.848-2.136-8.877c2.265-2.948,6.817-3.937,10.266-2.261
						c3.503,1.702,4.678,5.57,2.526,8.69C114.621,71.707,109.799,72.826,106.182,70.945"/>
				</g>
				<g>
					<path style="fill:#715F6A;" d="M99.521,83.03c-2.64-1.468-3.248-4.663-1.427-7.099c1.789-2.384,5.283-3.19,7.868-1.83
						c2.606,1.381,3.376,4.493,1.647,6.983C105.85,83.633,102.194,84.519,99.521,83.03"/>
				</g>
				<g>
					<path style="fill:#715F6A;" d="M90.07,90.358c-1.918-1.128-2.289-3.584-0.858-5.471c1.409-1.857,4.055-2.488,5.944-1.424
						c1.904,1.073,2.363,3.486,0.985,5.407C94.741,90.818,92.007,91.492,90.07,90.358"/>
				</g>
			</g>
		</g>
	</g>
	<g id="Layer_9">
	</g>
	<g id="Layer_9_copy">
	</g>
</g>
<g id="Layer_5">
</g>
</svg>
