<svg xmlns="http://www.w3.org/2000/svg" width="310" height="136" viewBox="0 0 310 136"><g fill="#ececec"><path d="M26.883 49.298c0 7.18 5.82 13 13 13s13-5.82 13-13-5.82-13-13-13-13 5.82-13 13zm6.5 0a6.5 6.5 0 1 1 13 0 6.5 6.5 0 0 1-13 0z"/><path d="M18.7 49.298c0 11.7 9.484 21.183 21.183 21.183S61.066 60.998 61.066 49.3s-9.484-21.183-21.183-21.183S18.7 37.6 18.7 49.298zm5.683 0c0-8.56 6.94-15.5 15.5-15.5 8.56 0 15.5 6.94 15.5 15.5s-6.94 15.5-15.5 15.5c-8.56 0-15.5-6.94-15.5-15.5z"/><circle cx="39.883" cy="49.298" r="3"/><path d="M92.532 84.04c0 14.91 12.088 27 27 27s27-12.09 27-27-12.088-27-27-27-27 12.087-27 27zm9.5 0c0-9.666 7.835-17.5 17.5-17.5s17.5 7.834 17.5 17.5-7.835 17.5-17.5 17.5-17.5-7.836-17.5-17.5z"/><path d="M84.227 84.04c0 19.498 15.807 35.304 35.305 35.304 19.5 0 35.305-15.807 35.305-35.305s-15.807-35.306-35.305-35.306c-19.5 0-35.305 15.806-35.305 35.305zm5.805 0c0-16.293 13.208-29.5 29.5-29.5s29.5 13.207 29.5 29.5-13.208 29.5-29.5 29.5c-16.293 0-29.5-13.21-29.5-29.5z"/><circle cx="119.532" cy="84.039" r="14.5"/><g><circle cx="216.692" cy="57.207" r="17.5"/><path d="M182.692 57.207c0 18.778 15.222 34 34 34s34-15.222 34-34-15.222-34-34-34-34 15.222-34 34zm13.5 0c0-11.322 9.178-20.5 20.5-20.5s20.5 9.178 20.5 20.5-9.178 20.5-20.5 20.5-20.5-9.18-20.5-20.5z"/><path d="M174.325 57.207c0 23.398 18.968 42.366 42.366 42.366s42.367-18.968 42.367-42.366S240.09 14.84 216.69 14.84s-42.365 18.97-42.365 42.367zm5.367 0c0-20.435 16.565-37 37-37s37 16.565 37 37-16.565 37-37 37-37-16.566-37-37z"/></g><g><path d="M249.73 115.107c0 7.18 5.82 13 13 13s13-5.82 13-13-5.82-13-13-13-13 5.82-13 13zm6.5 0a6.5 6.5 0 1 1 13 0 6.5 6.5 0 0 1-13 0z"/><circle cx="262.73" cy="115.107" r="3.5"/><path d="M241.546 115.107c0 11.7 9.484 21.183 21.183 21.183 11.698 0 21.182-9.484 21.182-21.183 0-11.7-9.484-21.184-21.183-21.184-11.7 0-21.184 9.485-21.184 21.184zm5.184 0c0-8.837 7.163-16 16-16s16 7.163 16 16c0 8.836-7.163 16-16 16s-16-7.163-16-16z"/></g></g><g fill="none" stroke="#ececec" stroke-width="3.107" stroke-miterlimit="10"><path d="M2.167 0l27 36M56.167 54l36 18M149.5 70.833l28.167-9.166M239 90.333l10.73 11.774M281.833 118.167l27.167-3.06"/></g></svg>