<svg xmlns="http://www.w3.org/2000/svg" width="310" height="136" viewBox="0 0 310 136"><g fill="#ececec"><path d="M269.283 36.298c-7.18 0-13 5.82-13 13s5.82 13 13 13 13-5.82 13-13-5.82-13-13-13zm0 19.5a6.5 6.5 0 1 1 0-13 6.5 6.5 0 0 1 0 13z"/><path d="M269.283 28.115c-11.7 0-21.183 9.484-21.183 21.183s9.484 21.183 21.183 21.183 21.183-9.483 21.183-21.182-9.484-21.183-21.183-21.183zm0 36.683c-8.56 0-15.5-6.94-15.5-15.5s6.94-15.5 15.5-15.5c8.56 0 15.5 6.94 15.5 15.5s-6.94 15.5-15.5 15.5z"/><circle cx="269.283" cy="49.298" r="3"/><path d="M189.635 57.04c-14.912 0-27 12.087-27 27s12.088 27 27 27 27-12.09 27-27-12.088-27-27-27zm0 44.5c-9.665 0-17.5-7.836-17.5-17.5s7.835-17.5 17.5-17.5 17.5 7.834 17.5 17.5-7.835 17.5-17.5 17.5z"/><path d="M189.635 48.733c-19.5 0-35.305 15.807-35.305 35.305s15.807 35.305 35.305 35.305c19.498 0 35.305-15.807 35.305-35.305s-15.807-35.305-35.305-35.305zm0 64.806c-16.292 0-29.5-13.21-29.5-29.5s13.208-29.5 29.5-29.5 29.5 13.207 29.5 29.5-13.208 29.5-29.5 29.5z"/><circle cx="189.635" cy="84.039" r="14.5"/><g><circle cx="92.475" cy="57.207" r="17.5"/><path d="M92.475 23.207c-18.778 0-34 15.222-34 34s15.222 34 34 34 34-15.222 34-34-15.222-34-34-34zm0 54.5c-11.322 0-20.5-9.178-20.5-20.5s9.178-20.5 20.5-20.5 20.5 9.178 20.5 20.5-9.178 20.5-20.5 20.5z"/><path d="M92.475 14.84c-23.398 0-42.366 18.968-42.366 42.366s18.967 42.366 42.365 42.366 42.366-18.968 42.366-42.366c0-23.397-18.967-42.366-42.365-42.366zm0 79.367c-20.435 0-37-16.565-37-37s16.565-37 37-37 37 16.565 37 37-16.565 37-37 37z"/></g><g><path d="M46.437 102.107c-7.18 0-13 5.82-13 13s5.82 13 13 13 13-5.82 13-13-5.82-13-13-13zm0 19.5a6.5 6.5 0 1 1 0-13 6.5 6.5 0 0 1 0 13z"/><circle cx="46.437" cy="115.107" r="3.5"/><path d="M46.437 93.924c-11.7 0-21.183 9.484-21.183 21.184 0 11.7 9.484 21.183 21.183 21.183s21.183-9.483 21.183-21.182c0-11.7-9.484-21.184-21.183-21.184zm0 37.183c-8.837 0-16-7.164-16-16 0-8.837 7.163-16 16-16s16 7.163 16 16-7.163 16-16 16z"/></g></g><g fill="none" stroke="#ececec" stroke-width="3.107" stroke-miterlimit="10"><path d="M307 0l-27 36M253 54l-36 18M159.667 70.833L131.5 61.667M70.167 90.333l-10.73 11.774M27.333 118.167l-27.166-3.06"/></g></svg>