<svg xmlns="http://www.w3.org/2000/svg" width="174" height="174" viewBox="0 0 174 174"><g fill="#cda68b"><circle cx="70.755" cy="82.766" r="5.522"/><circle cx="87.322" cy="82.766" r="5.522"/><path d="M87.322.996c-47.536 0-86.07 38.535-86.07 86.07 0 47.537 38.534 86.072 86.07 86.072s86.07-38.535 86.07-86.07C173.395 39.53 134.86.995 87.323.995zm0 109.742c-1.95 0-3.852-.158-5.718-.398-5.31 5.435-13.422 8.077-22.638 8.765 3.774-3.774 6.474-9.25 7.32-13.898C57.62 100.11 51.98 91.97 51.98 82.767c0-15.45 15.822-27.973 35.342-27.973s35.343 12.523 35.343 27.972c0 15.45-15.823 27.972-35.343 27.972z"/><circle cx="103.89" cy="82.766" r="5.522"/></g></svg>