<svg xmlns="http://www.w3.org/2000/svg" width="400" height="136" viewBox="0 0 400 136"><g fill="#715f6a"><path d="M187.222 9.525c-.214.978-.437 1.97-.667 2.975.66 0 1.386-.02 2.178-.063.792-.045 1.56-.08 2.306-.11a6.47 6.47 0 0 0-.26 1.768c-.746-.03-1.53-.064-2.35-.107-.818-.044-1.558-.064-2.22-.064l-1.682 8.106c-.084.46-.186.973-.302 1.533a98.3 98.3 0 0 0-.322 1.66c-.1.544-.186 1.07-.258 1.573a9.198 9.198 0 0 0-.107 1.272c0 .577.1 1.066.3 1.466.2.403.454.726.756.97s.63.425.992.54c.36.114.696.17 1.013.17.49 0 .978-.078 1.467-.234.488-.16.95-.366 1.378-.626l-.084 1.12c-.574.46-1.272.778-2.09.95-.82.172-1.59.26-2.31.26-.544 0-1.095-.08-1.65-.24a4.462 4.462 0 0 1-1.472-.71 3.638 3.638 0 0 1-1.043-1.228c-.27-.503-.403-1.085-.403-1.748 0-.574.063-1.178.19-1.81.128-.633.263-1.307.403-2.025.313-1.468.566-2.66.766-3.58.198-.92.376-1.747.53-2.478.158-.735.306-1.468.447-2.2.143-.734.326-1.648.552-2.74-.398 0-.843.008-1.34.02a52.85 52.85 0 0 0-1.464.066 4.17 4.17 0 0 0 .19-.69c.044-.228.064-.56.064-.99.454.028.93.063 1.427.108.494.042.93.063 1.298.063l.773-4.568 3.754-1.38a47.608 47.608 0 0 0-.76 2.973M198.866 13.364a10.4 10.4 0 0 1 1.986-1.077 8.19 8.19 0 0 1 1.832-.518 10.59 10.59 0 0 1 1.552-.13c1.092 0 2.02.173 2.782.517.762.345 1.38.77 1.854 1.273.475.503.82 1.05 1.034 1.64.22.59.325 1.127.325 1.615 0 .23-.014.46-.04.69-.032.23-.095.585-.197 1.058-.102.473-.237 1.113-.408 1.918-.173.806-.405 1.886-.692 3.234-.23 1.21-.473 2.402-.733 3.58a57.498 57.498 0 0 0-.646 3.452c-.058.4-.1.722-.13.97-.028.245-.058.467-.084.667-.233-.027-.498-.042-.8-.042H204.56c-.302 0-.58.016-.84.043.057-.17.18-.604.366-1.292.185-.69.394-1.51.624-2.458.233-.95.476-1.968.736-3.06.258-1.095.495-2.152.71-3.172a71.24 71.24 0 0 0 .54-2.803c.143-.85.214-1.487.214-1.918 0-.518-.084-1.006-.257-1.467a3.78 3.78 0 0 0-.777-1.25 3.61 3.61 0 0 0-1.317-.885c-.533-.215-1.157-.322-1.875-.322-.318 0-.778.052-1.38.15-.606.102-1.244.345-1.92.735-.676.39-1.32.97-1.94 1.746-.62.778-1.1 1.842-1.446 3.192-.145.574-.332 1.394-.56 2.457-.23 1.065-.468 2.208-.713 3.43-.243 1.222-.473 2.46-.69 3.71a73.998 73.998 0 0 0-.494 3.21 6.56 6.56 0 0 0-.756-.04h-1.834c-.343 0-.66.014-.947.04.114-.316.33-1.118.646-2.413.317-1.294.683-2.867 1.1-4.723.417-1.855.87-3.895 1.36-6.123.487-2.227.954-4.47 1.4-6.73a518.3 518.3 0 0 0 1.25-6.55c.39-2.115.697-3.977.927-5.586.46.115 1.033.174 1.725.174.284 0 .594-.015.925-.044.332-.03.627-.07.884-.13a432.673 432.673 0 0 0-.926 3.69c-.302 1.22-.6 2.477-.883 3.77a49.62 49.62 0 0 0-.453 1.962c-.13.62-.26 1.22-.39 1.812-.13.59-.257 1.185-.388 1.79a79.81 79.81 0 0 1-.452 1.985l.17.085c.635-.78 1.29-1.4 1.964-1.86M223.06 32.23a16.29 16.29 0 0 1-3.646.41c-.918 0-1.88-.124-2.888-.366a7.076 7.076 0 0 1-2.78-1.38c-.85-.676-1.545-1.583-2.09-2.717-.55-1.136-.82-2.567-.82-4.29 0-1.696.264-3.293.795-4.788.534-1.496 1.288-2.795 2.264-3.902a10.798 10.798 0 0 1 3.516-2.63c1.366-.648 2.867-.972 4.506-.972 1.035 0 2.012.124 2.933.367.92.245 1.737.646 2.457 1.207.72.562 1.287 1.295 1.7 2.198.42.907.63 2.006.63 3.3 0 .807-.06 1.496-.175 2.07a41.32 41.32 0 0 1-.3 1.423c-.6-.026-1.147-.056-1.63-.086a74.22 74.22 0 0 0-1.444-.064c-.472-.014-.966-.03-1.484-.04a57.26 57.26 0 0 0-1.76-.025h-4.516c-.69 0-1.378.015-2.066.045-.686.027-1.29.042-1.805.042a12 12 0 0 0-.15 1.03 13.7 13.7 0 0 0-.065 1.46c0 1.402.215 2.534.645 3.39.428.86.95 1.533 1.567 2.02.62.486 1.29.816 2.023.985a8.713 8.713 0 0 0 1.998.258c.827 0 1.583-.084 2.254-.253.672-.17 1.276-.367 1.805-.592.53-.227.99-.472 1.377-.74.385-.27.706-.488.966-.657h.13l-.56 1.94a11.772 11.772 0 0 1-3.39 1.357M220 13.17c-.703.215-1.395.603-2.07 1.163-.676.562-1.3 1.324-1.877 2.287-.573.963-1.018 2.19-1.333 3.686.89.06 1.868.1 2.933.13 1.06.028 2.04.043 2.93.043h1.38c.72 0 1.483-.006 2.286-.023a15.962 15.962 0 0 0 2.07-.15c.057-.26.114-.568.173-.927a9.44 9.44 0 0 0 .083-1.4c0-.95-.133-1.754-.407-2.418-.275-.66-.634-1.192-1.08-1.594-.447-.4-.944-.69-1.488-.862a5.52 5.52 0 0 0-1.68-.258c-.58 0-1.217.106-1.92.32z"/></g><g fill="#715f6a"><path d="M131.9 30.98a312.925 312.925 0 0 0-.434-9.372c.82.097 1.71.18 2.678.253.963.073 2.05.11 3.258.11 1.59 0 3.376-.06 5.357-.18 1.977-.122 4.557-.182 7.743-.182 4.15 0 7.925.374 11.328 1.122 3.404.747 6.336 2.014 8.798 3.8 2.46 1.785 4.366 4.187 5.717 7.2 1.35 3.018 2.028 6.82 2.028 11.402 0 4.006-.665 7.625-1.99 10.857-1.33 3.234-3.138 5.996-5.43 8.287a23.468 23.468 0 0 1-7.96 5.25c-3.018 1.204-6.242 1.808-9.667 1.808-3.617 0-6.706-.026-9.263-.072-2.56-.048-4.777-.072-6.66-.072h-3.258c-.967 0-1.858.05-2.678.145.192-2.993.337-6.043.434-9.156.096-3.115.145-6.673.145-10.68v-9.844c0-4.003-.05-7.562-.145-10.675m10.86 25.808v4.343c0 1.4.01 2.68.033 3.837.024 1.16.038 1.907.038 2.244.723.05 1.592.098 2.607.145 1.012.05 2.266.072 3.762.072 5.45 0 9.77-1.857 12.957-5.573 3.186-3.715 4.776-9.338 4.776-16.867 0-2.99-.397-5.67-1.193-8.034-.797-2.365-1.92-4.38-3.365-6.046a14.643 14.643 0 0 0-5.212-3.834c-2.028-.894-4.296-1.34-6.805-1.34-1.737 0-3.148.035-4.233.11-1.085.07-2.183.157-3.293.252 0 .337-.014 1.085-.038 2.244-.023 1.157-.034 2.458-.034 3.908v24.54zM186.876 36.88c2.34-.867 4.668-1.302 6.985-1.302 1.93 0 3.706.218 5.322.652 1.616.435 3.016 1.12 4.2 2.063 1.18.94 2.1 2.16 2.748 3.655.653 1.498.98 3.307.98 5.427 0 3.09-.038 5.95-.11 8.58-.073 2.63-.11 5.248-.11 7.854 0 1.157.084 2.062.254 2.713.167.652.42 1.147.762 1.484.335.337.782.554 1.336.652.556.096 1.196.145 1.92.145v1.736c-1.402.582-2.583 1.016-3.547 1.305a10.85 10.85 0 0 1-3.112.435c-1.786 0-3.235-.435-4.345-1.304-1.11-.868-1.955-2.123-2.533-3.764-1.11 1.544-2.402 2.776-3.873 3.692-1.473.915-3.32 1.377-5.54 1.377-1.833 0-3.4-.242-4.703-.724-1.305-.483-2.38-1.17-3.223-2.062a8.218 8.218 0 0 1-1.844-3.043 10.51 10.51 0 0 1-.58-3.438c0-1.59.254-2.965.76-4.126a8.293 8.293 0 0 1 2.173-2.967c.94-.82 2.062-1.51 3.365-2.064 1.304-.554 2.775-1.024 4.416-1.41 2.028-.483 3.63-.906 4.814-1.27 1.182-.36 2.062-.723 2.642-1.084.58-.362.952-.76 1.122-1.196.17-.433.254-.963.254-1.59 0-1.738-.618-3.222-1.846-4.452-1.23-1.23-2.933-1.847-5.104-1.847-.822 0-1.665.11-2.533.328-.87.216-1.703.518-2.5.903-.796.388-1.518.808-2.17 1.268-.652.458-1.147.954-1.485 1.483h-.507l-.94-4.344c2.03-1.64 4.212-2.896 6.553-3.765m10.64 18.712c.024-1.085.038-2.038.038-2.86a16.74 16.74 0 0 1-3.22 1.414 15.02 15.02 0 0 0-3.113 1.375 6.75 6.75 0 0 0-2.317 2.28c-.602.967-.903 2.365-.903 4.2 0 1.786.37 3.148 1.12 4.09.75.94 1.75 1.41 3.003 1.41 1.594 0 2.886-.603 3.875-1.808.988-1.208 1.484-2.992 1.484-5.358 0-2.075.012-3.655.034-4.742zM232.662 66.126c-1.35 2.027-2.93 3.56-4.742 4.595-1.81 1.04-3.873 1.56-6.19 1.56-3.62 0-6.406-1.015-8.36-3.04-1.954-2.028-2.932-5.382-2.932-10.063 0-2.462.048-4.633.147-6.515.094-1.883.143-3.765.143-5.645 0-1.545-.037-3.222-.11-5.03a417.65 417.65 0 0 0-.253-5.467c.627.098 1.423.18 2.39.253.963.072 1.978.11 3.04.11 1.063 0 2.074-.038 3.04-.11a31.2 31.2 0 0 0 2.39-.253c-.34 2.606-.556 5.623-.653 9.048a427.667 427.667 0 0 0-.144 11.727c0 3.04.518 5.272 1.556 6.695 1.036 1.424 2.497 2.137 4.38 2.137 2.17 0 3.764-.94 4.776-2.824 1.015-1.883 1.522-4.49 1.522-7.817V52.59c0-2.942-.037-5.706-.11-8.29-.072-2.578-.23-5.173-.47-7.78 1.35.24 3.158.362 5.43.362a39.075 39.075 0 0 0 5.426-.362 120.54 120.54 0 0 0-.468 7.78c-.075 2.584-.11 5.348-.11 8.29v2.896c0 2.944.035 5.718.11 8.325.07 2.606.227 5.115.468 7.528a23.132 23.132 0 0 0-2.568-.144h-5.138c-.846 0-1.75.048-2.716.144l.29-5.21h-.144M256.55 41.948c1.348-2.027 2.93-3.594 4.74-4.705 1.81-1.11 3.874-1.665 6.19-1.665 3.617 0 6.405 1.05 8.36 3.15 1.955 2.098 2.93 5.49 2.93 10.168 0 2.462-.05 4.634-.142 6.515a108.61 108.61 0 0 0-.146 5.647c0 1.547.037 3.22.11 5.033.07 1.81.153 3.557.25 5.246-.627-.097-1.424-.144-2.388-.144h-6.08c-.965 0-1.76.048-2.388.144.336-2.508.554-5.464.65-8.866.097-3.403.146-7.3.146-11.693 0-3.04-.52-5.27-1.556-6.695-1.04-1.423-2.497-2.136-4.383-2.136-2.17 0-3.762.94-4.776 2.822-1.012 1.884-1.518 4.49-1.518 7.82v2.895c0 2.944.033 5.718.108 8.325.072 2.605.23 5.114.47 7.527-.63-.097-1.416-.144-2.354-.144h-6.115c-.92 0-1.715.05-2.39.145.24-2.413.398-4.923.47-7.527.073-2.606.108-5.38.108-8.325v-2.896c0-2.942-.035-5.706-.107-8.29-.072-2.578-.23-5.173-.47-7.78.868.098 1.724.18 2.568.253a30.305 30.305 0 0 0 5.14 0c.845-.072 1.747-.155 2.714-.253l-.29 5.43h.148M300.994 38.834c0 .628.072 1.23.216 1.81l-6.37-.144a103.78 103.78 0 0 0-.253 3.834c-.073 1.45-.12 2.92-.146 4.417-.023 1.497-.05 2.946-.07 4.344-.025 1.4-.035 2.583-.035 3.547 0 2.51.056 4.54.178 6.083.12 1.542.328 2.725.615 3.546.29.82.7 1.374 1.23 1.663.533.29 1.208.435 2.03.435.914 0 1.59-.06 2.027-.18.434-.12.868-.302 1.303-.544v2.967c-.967.436-2.172.823-3.622 1.16-1.446.337-2.87.508-4.27.508-6.13 0-9.192-3.67-9.192-11.006 0-1.397.023-2.978.072-4.74.048-1.76.107-3.57.18-5.43.073-1.857.132-3.69.182-5.5.048-1.81.073-3.487.073-5.032l-5.07.073c.147-.58.22-1.182.22-1.81 0-.578-.073-1.23-.22-1.953l5.07.218c0-1.496-.025-2.897-.072-4.2-.05-1.302-.122-2.87-.216-4.705a111.416 111.416 0 0 0 4.993-2.134c1.64-.748 3.28-1.533 4.923-2.354l.722.507c-.098.77-.182 1.677-.252 2.715a480.948 480.948 0 0 0-.215 3.258 78.98 78.98 0 0 0-.148 3.473 158.902 158.902 0 0 0-.034 3.366l6.37-.144a10.087 10.087 0 0 0-.216 1.952M304.612 28.774a521.185 521.185 0 0 0-.435-12.016c.627.097 1.424.18 2.39.254.965.072 1.978.11 3.04.11 1.063 0 2.075-.038 3.04-.11a32.702 32.702 0 0 0 2.39-.254c-.193 4.053-.34 8.06-.435 12.016a530.25 530.25 0 0 0-.144 13.03v4.705c0 4.73.046 9.072.144 13.027.097 3.958.242 7.89.435 11.8-.628-.097-1.427-.144-2.39-.144h-6.08c-.965 0-1.762.048-2.39.144.193-3.91.34-7.842.435-11.8.097-3.956.146-8.3.146-13.028v-4.706c0-4.73-.05-9.073-.146-13.03M329.007 59.465c.385 1.69.975 3.15 1.772 4.38.796 1.23 1.807 2.195 3.038 2.896 1.23.7 2.666 1.05 4.31 1.05 3.327 0 6.297-1.087 8.902-3.256l.87.652-1.594 4.053c-1.207.916-2.654 1.652-4.343 2.207-1.69.554-3.91.834-6.66.834-2.364 0-4.61-.325-6.73-.98a14.25 14.25 0 0 1-5.61-3.22c-1.62-1.495-2.897-3.388-3.84-5.68-.94-2.293-1.41-5.034-1.41-8.218 0-3.137.423-5.86 1.266-8.18.845-2.315 2.015-4.244 3.51-5.79a14.355 14.355 0 0 1 5.32-3.474c2.05-.77 4.283-1.158 6.696-1.158 4.78 0 8.432 1.4 10.968 4.2 2.534 2.798 3.8 6.755 3.8 11.87v1.52c0 .435-.025.723-.073.867H328.43c0 1.93.19 3.74.58 5.428m9.226-17.373c-.794-2.17-2.134-3.258-4.017-3.258-1.064 0-1.955.362-2.678 1.087-.726.725-1.304 1.654-1.738 2.788-.435 1.134-.762 2.413-.98 3.837a36.082 36.082 0 0 0-.395 4.233h11.148c-.1-3.62-.545-6.515-1.34-8.686zM354.74 64.642a8.3 8.3 0 0 0 1.7 1.88c.674.557 1.485 1.002 2.424 1.34.943.34 2.038.507 3.296.507 1.688 0 2.99-.436 3.908-1.304.918-.868 1.377-1.81 1.377-2.822 0-1.11-.412-2.002-1.23-2.678-.823-.676-1.847-1.29-3.078-1.846a105.224 105.224 0 0 0-4.017-1.703 18.39 18.39 0 0 1-4.018-2.206 11.406 11.406 0 0 1-3.077-3.364c-.822-1.35-1.228-3.088-1.228-5.21 0-2.03.37-3.777 1.12-5.25.75-1.472 1.724-2.68 2.933-3.62a12.39 12.39 0 0 1 4.087-2.1c1.52-.458 3.03-.688 4.525-.688 2.027 0 3.822.29 5.392.87 1.567.578 3.173 1.422 4.815 2.532a19.78 19.78 0 0 0-1.09 3.112 28.007 28.007 0 0 0-.65 3.258h-2.026c-.146-.58-.386-1.217-.724-1.918a8.285 8.285 0 0 0-1.375-1.99 7.22 7.22 0 0 0-2.1-1.556c-.82-.41-1.81-.616-2.967-.616-1.45 0-2.667.388-3.658 1.16-.988.772-1.48 1.785-1.48 3.038 0 1.16.42 2.09 1.263 2.788.847.7 1.895 1.315 3.152 1.846 1.254.53 2.63 1.06 4.126 1.59 1.496.534 2.872 1.22 4.127 2.066 1.254.843 2.304 1.942 3.148 3.293.845 1.352 1.27 3.09 1.27 5.213 0 2.122-.39 3.943-1.16 5.464-.773 1.52-1.81 2.775-3.114 3.765-1.302.988-2.785 1.7-4.45 2.133a20.598 20.598 0 0 1-5.246.654c-2.174 0-4.128-.318-5.864-.944-1.738-.628-3.115-1.277-4.127-1.953.58-2.318.94-4.634 1.085-6.948h1.81c.29.77.663 1.506 1.123 2.207M380.002 64.642c.46.7 1.024 1.328 1.7 1.88.676.557 1.484 1.002 2.427 1.34.94.34 2.038.507 3.29.507 1.692 0 2.992-.436 3.912-1.304.914-.868 1.375-1.81 1.375-2.822 0-1.11-.41-2.002-1.23-2.678-.823-.676-1.848-1.29-3.08-1.846a103.723 103.723 0 0 0-4.014-1.703 18.36 18.36 0 0 1-4.017-2.206 11.393 11.393 0 0 1-3.077-3.364c-.823-1.35-1.232-3.088-1.232-5.21 0-2.03.374-3.777 1.122-5.25.747-1.472 1.726-2.68 2.93-3.62a12.39 12.39 0 0 1 4.09-2.1 15.65 15.65 0 0 1 4.523-.688c2.03 0 3.826.29 5.395.87 1.568.578 3.172 1.422 4.814 2.532a19.877 19.877 0 0 0-1.085 3.112 28.234 28.234 0 0 0-.652 3.258h-2.027c-.144-.58-.386-1.217-.722-1.918a8.27 8.27 0 0 0-1.378-1.99 7.245 7.245 0 0 0-2.096-1.556c-.823-.41-1.812-.616-2.97-.616-1.448 0-2.666.388-3.655 1.16-.99.772-1.484 1.785-1.484 3.038 0 1.16.42 2.09 1.268 2.788.844.7 1.894 1.315 3.15 1.846 1.254.53 2.63 1.06 4.126 1.59 1.495.534 2.87 1.22 4.124 2.066 1.257.843 2.306 1.942 3.15 3.293.843 1.352 1.266 3.09 1.266 5.213 0 2.122-.386 3.943-1.158 5.464-.773 1.52-1.81 2.775-3.114 3.765-1.303.988-2.787 1.7-4.45 2.133a20.608 20.608 0 0 1-5.25.654c-2.17 0-4.126-.318-5.863-.944-1.737-.628-3.113-1.277-4.125-1.953.58-2.318.94-4.634 1.085-6.948h1.81c.29.77.663 1.506 1.122 2.207"/></g><g fill="#715f6a"><path d="M245.11 79.16a10.805 10.805 0 0 0-1.79-1.023c-.705-.326-1.53-.6-2.478-.828-.95-.227-2.043-.342-3.277-.342-2.416 0-4.573.448-6.47 1.337-1.9.887-3.502 2.08-4.81 3.57-1.306 1.497-2.305 3.22-2.996 5.17a18.268 18.268 0 0 0-1.036 6.113c0 1.723.237 3.29.71 4.696.477 1.406 1.194 2.603 2.157 3.594.964.992 2.173 1.76 3.625 2.303 1.45.546 3.154.82 5.11.82 1.15 0 2.288-.086 3.408-.26 1.12-.17 2.227-.457 3.32-.86a88.204 88.204 0 0 0 .904-3.902c.173-.82.338-1.675.495-2.566.16-.89.31-1.785.456-2.674.43.114 1.016.17 1.764.17.404 0 .72-.013.952-.04.227-.03.457-.073.687-.13a60.455 60.455 0 0 0-.515 2.025c-.2.834-.41 1.72-.627 2.655a62.364 62.364 0 0 0-.578 2.8c-.174.938-.305 1.777-.39 2.522-1.466.49-3.062.864-4.787 1.124a37.32 37.32 0 0 1-5.478.386c-3.017 0-5.455-.366-7.31-1.1-1.854-.734-3.36-1.73-4.516-2.998a10.536 10.536 0 0 1-2.398-4.267c-.465-1.61-.696-3.163-.696-4.66 0-2.296.427-4.497 1.285-6.593a15.65 15.65 0 0 1 3.795-5.52c1.673-1.582 3.73-2.84 6.175-3.777 2.442-.933 5.263-1.4 8.45-1.4 2.386 0 4.32.196 5.803.584 1.48.388 2.708.75 3.686 1.098l-1.467 2.89a14.21 14.21 0 0 0-1.164-.92M257.833 88.182a3.396 3.396 0 0 0-.95-.13c-1.01 0-1.99.424-2.953 1.27-.964.85-1.69 2.137-2.178 3.86-.058.117-.15.447-.28.993a145.34 145.34 0 0 0-.993 4.466c-.19.906-.367 1.79-.54 2.65-.172.865-.323 1.663-.453 2.395a68.32 68.32 0 0 0-.28 1.66 5.927 5.927 0 0 0-.734-.045h-1.791c-.302 0-.582.015-.842.044.175-.488.39-1.24.648-2.263.258-1.02.535-2.16.823-3.427.285-1.266.58-2.6.882-4.01.302-1.41.575-2.775.82-4.097.242-1.322.464-2.552.668-3.69.2-1.13.345-2.075.43-2.82.23.057.496.098.8.127.3.03.592.044.88.044.633 0 1.166-.057 1.6-.17-.06.17-.138.42-.242.753-.1.333-.207.71-.32 1.14-.117.434-.223.89-.326 1.36-.1.474-.18.94-.237 1.402h.216c.46-.573.926-1.164 1.402-1.767.477-.607.978-1.144 1.51-1.62a7.18 7.18 0 0 1 1.79-1.163c.66-.3 1.406-.438 2.243-.408a27.965 27.965 0 0 0-.324 1.874c-.07.532-.108 1.07-.108 1.617l-.39.216a11.284 11.284 0 0 0-.77-.258M257.81 92.665a13.08 13.08 0 0 1 2.395-4.03c1.035-1.194 2.297-2.157 3.792-2.89 1.496-.732 3.163-1.1 5.003-1.1 1.696 0 3.137.238 4.312.714 1.178.474 2.13 1.098 2.847 1.873a6.977 6.977 0 0 1 1.55 2.674 10.32 10.32 0 0 1 .477 3.146 13.26 13.26 0 0 1-.864 4.682 13.176 13.176 0 0 1-2.46 4.117 11.656 11.656 0 0 1-3.836 2.867c-1.495.704-3.176 1.056-5.046 1.056-1.78 0-3.253-.26-4.417-.777-1.166-.518-2.087-1.2-2.76-2.048a7.588 7.588 0 0 1-1.423-2.805c-.273-1.02-.41-1.99-.41-2.91 0-1.55.28-3.076.84-4.572m3.838 10.092c.85 1.178 2.248 1.768 4.204 1.768 1.64 0 3.017-.437 4.14-1.314 1.122-.876 2.04-1.948 2.762-3.212a14.624 14.624 0 0 0 1.552-4.01c.314-1.41.47-2.647.47-3.71 0-.89-.12-1.718-.365-2.48a5.54 5.54 0 0 0-1.098-1.98 5.073 5.073 0 0 0-1.81-1.32c-.718-.315-1.538-.472-2.458-.472-1.552 0-2.882.416-3.99 1.25a9.987 9.987 0 0 0-2.696 3.083 14.232 14.232 0 0 0-1.507 3.967c-.317 1.42-.474 2.738-.474 3.945 0 1.812.425 3.308 1.272 4.485zM291.898 102.37a10.17 10.17 0 0 1-1.227 1.272 9 9 0 0 1-1.616 1.12 8.557 8.557 0 0 1-2.008.776c-.732.188-1.56.28-2.48.28a9.184 9.184 0 0 1-2.155-.257 5.45 5.45 0 0 1-1.94-.885 4.958 4.958 0 0 1-1.4-1.552c-.36-.62-.54-1.33-.54-2.134 0-.546.122-1.382.366-2.504.243-1.12.566-2.557.97-4.312.09-.373.207-.91.37-1.616.155-.703.315-1.488.47-2.35.16-.86.318-1.748.474-2.652.158-.905.283-1.747.367-2.522.458.114 1.094.17 1.898.17.747 0 1.364-.056 1.854-.17a581.59 581.59 0 0 1-1.014 3.795 166.88 166.88 0 0 0-1.098 4.288c-.344 1.426-.64 2.734-.884 3.924-.248 1.194-.366 2.092-.366 2.697 0 1.38.366 2.413 1.098 3.102.733.692 1.76 1.036 3.084 1.036.832 0 1.596-.136 2.285-.412a6.616 6.616 0 0 0 3.232-2.694 9.396 9.396 0 0 0 .907-1.896c.173-.548.36-1.25.563-2.112.2-.865.4-1.786.604-2.76.2-.978.395-1.97.58-2.976.188-1.005.36-1.933.517-2.78.16-.852.288-1.57.39-2.157.1-.588.163-.942.192-1.056a8.88 8.88 0 0 0 1.724.17c.718 0 1.31-.056 1.77-.17a45.56 45.56 0 0 0-.582 2.136c-.246.963-.517 2.053-.82 3.275-.298 1.223-.602 2.53-.905 3.924-.3 1.395-.59 2.774-.862 4.14a218.564 218.564 0 0 0-.735 3.837 42.816 42.816 0 0 0-.452 2.997 6.784 6.784 0 0 0-.756-.044h-1.703c-.29 0-.548.015-.776.044l.775-2.803-.172-.17M299.574 109.248c-.517 2.63-.993 5.067-1.423 7.31-.343-.115-.833-.17-1.467-.17-.63 0-1.19.055-1.68.17.373-1.612.762-3.4 1.164-5.37.403-1.968.818-3.98 1.25-6.038.43-2.055.862-4.146 1.295-6.272.43-2.127.847-4.154 1.25-6.083.26-1.292.495-2.586.71-3.88.215-1.295.452-2.587.71-3.88.232.058.497.1.8.128a8.12 8.12 0 0 0 1.68 0c.302-.03.57-.07.8-.128-.174.69-.318 1.28-.433 1.768a36.31 36.31 0 0 0-.39 1.982c.29-.4.655-.84 1.103-1.315.442-.475.98-.918 1.615-1.334.633-.42 1.35-.77 2.155-1.06.805-.284 1.726-.43 2.76-.43.605 0 1.34.087 2.2.258.864.17 1.68.54 2.457 1.1.78.562 1.44 1.358 1.986 2.39.548 1.038.82 2.42.82 4.143 0 1.61-.27 3.21-.797 4.808-.536 1.594-1.29 3.025-2.267 4.29a11.328 11.328 0 0 1-3.557 3.04c-1.396.762-2.97 1.143-4.723 1.143a9.83 9.83 0 0 1-2.05-.215 7.254 7.254 0 0 1-1.874-.67 4.56 4.56 0 0 1-1.51-1.29c-.43-.563-.748-1.26-.947-2.094h-.13c-.49 2.5-.99 5.067-1.51 7.698m2.89-7.786c.344.75.777 1.34 1.294 1.768.52.433 1.08.73 1.683.886a6.5 6.5 0 0 0 1.638.238c1.553 0 2.87-.446 3.947-1.338a10.48 10.48 0 0 0 2.61-3.21 15.62 15.62 0 0 0 1.445-3.905c.302-1.348.45-2.486.45-3.406 0-1.12-.156-2.06-.474-2.822-.317-.762-.724-1.38-1.228-1.853a4.426 4.426 0 0 0-1.68-1.016 5.86 5.86 0 0 0-1.835-.303c-1.15 0-2.155.254-3.02.757a7.855 7.855 0 0 0-2.22 1.92c-.62.774-1.128 1.638-1.532 2.583-.4.952-.717 1.87-.946 2.76a21.31 21.31 0 0 0-.496 2.44c-.1.73-.15 1.27-.15 1.615 0 1.178.17 2.138.515 2.887zM318.55 102.93c.402-.72.774-1.288 1.12-1.704.344-.418.76-.624 1.25-.624.316 0 .624.112.93.344.298.227.448.59.448 1.077a2.1 2.1 0 0 1-.3 1.08c-.202.344-.417.633-.646.86l-6.86 8.234-.558-.427 4.615-8.84M330.062 98.423c.604-2.63 1.193-5.298 1.767-7.998a434.62 434.62 0 0 0 1.596-7.85c.49-2.53.89-4.744 1.208-6.643.257.06.552.105.885.13.328.034.65.05.966.05.345 0 .692-.016 1.036-.05.344-.025.66-.07.948-.13a300.204 300.204 0 0 0-1.768 7.227 491.717 491.717 0 0 0-3.32 15.566c-.49 2.486-.89 4.693-1.207 6.618a7.792 7.792 0 0 0-.864-.044h-2.024c-.344 0-.66.015-.95.044.547-1.986 1.122-4.29 1.726-6.92M342.266 88.31c.286-.402.667-.803 1.143-1.207a10.763 10.763 0 0 1 1.616-1.122 9.39 9.39 0 0 1 2.028-.84 8.328 8.328 0 0 1 2.33-.322c.775 0 1.52.106 2.24.322.715.218 1.358.54 1.918.97.56.432 1.015.97 1.358 1.618.345.647.518 1.402.518 2.265 0 .287-.007.545-.022.775-.012.23-.06.532-.13.906-.072.374-.17.85-.3 1.423-.13.574-.31 1.35-.537 2.33a206.22 206.22 0 0 0-1.08 5.11c-.202 1.02-.39 1.982-.563 2.888-.17.906-.273 1.547-.302 1.918-.23-.03-.48-.044-.755-.044h-1.877c-.344 0-.647.014-.903.043.113-.23.272-.702.475-1.42.2-.72.424-1.54.667-2.462.245-.917.49-1.91.733-2.974.246-1.064.47-2.09.67-3.08.2-.996.366-1.907.497-2.742.128-.832.19-1.494.19-1.983 0-.657-.12-1.227-.363-1.702a3.607 3.607 0 0 0-.972-1.185 4.272 4.272 0 0 0-1.358-.713 5.215 5.215 0 0 0-1.577-.235c-.343 0-.803.056-1.38.17a6.61 6.61 0 0 0-1.788.67c-.62.33-1.21.8-1.767 1.4-.563.604-1 1.397-1.315 2.372a20.438 20.438 0 0 0-.562 1.963c-.2.82-.41 1.71-.623 2.673-.216.964-.426 1.948-.626 2.954-.2 1.008-.383 1.946-.54 2.825l-.408 2.263c-.114.63-.186 1.035-.215 1.207a5.847 5.847 0 0 0-.733-.044h-1.79a6.43 6.43 0 0 0-.797.044c.2-.575.437-1.416.71-2.523.275-1.108.555-2.32.842-3.645.286-1.32.578-2.693.882-4.117.302-1.423.585-2.782.842-4.075.258-1.294.482-2.463.668-3.515a77.9 77.9 0 0 0 .41-2.435c.43.114.948.17 1.554.17.258 0 .53-.013.816-.043.287-.03.562-.07.822-.128l-.822 3.19.174.09M366.07 105.776c-1.324 0-2.567-.16-3.73-.476-1.164-.314-2.18-.84-3.05-1.574-.868-.73-1.55-1.66-2.046-2.78-.498-1.12-.745-2.444-.745-3.966 0-1.35.232-2.753.7-4.206a11.64 11.64 0 0 1 2.244-3.99c1.024-1.207 2.344-2.198 3.953-2.975 1.61-.776 3.552-1.165 5.824-1.165 1.55 0 2.866.15 3.943.453 1.08.3 1.95.58 2.613.84-.147.317-.268.59-.367.818-.104.234-.19.454-.26.67-.073.217-.145.454-.217.71-.073.258-.152.563-.235.907h-.258a5.295 5.295 0 0 0-2.33-2.263 6.967 6.967 0 0 0-3.148-.754c-1.35 0-2.587.317-3.71.95a9.473 9.473 0 0 0-2.868 2.477 11.648 11.648 0 0 0-1.832 3.494 12.808 12.808 0 0 0-.647 4.032c0 1.55.237 2.815.71 3.793.477.977 1.066 1.732 1.77 2.265.704.533 1.45.89 2.243 1.077.79.186 1.485.28 2.09.28.748 0 1.445-.08 2.09-.236.648-.16 1.23-.345 1.748-.563.518-.215.97-.423 1.36-.626.387-.198.694-.357.927-.47l.216.083-.606 1.81c-1.985.922-4.114 1.383-6.384 1.383M376.5 102.616c.43-.446.963-.668 1.595-.668s1.166.215 1.594.646c.432.433.648.963.648 1.594 0 .635-.223 1.144-.67 1.533a2.32 2.32 0 0 1-1.573.582c-.633 0-1.164-.2-1.595-.604a1.984 1.984 0 0 1-.647-1.51c0-.6.218-1.124.647-1.572"/></g><g fill="#715f6a"><path d="M179.63 127.227c.278.14.504.31.678.5.17.192.29.396.36.612.068.215.1.417.1.602 0 .54-.16 1.075-.485 1.598-.322.526-.794.94-1.412 1.245a4.24 4.24 0 0 1-.75.28 5.874 5.874 0 0 1-1.39.197c-.204.004-.372.007-.51.007-.08 0-.206-.004-.383-.01-.177-.002-.362-.003-.56-.003H174.005c-.104 0-.203.003-.3.012.185-.678.38-1.465.587-2.364.208-.896.405-1.808.597-2.73.193-.923.37-1.817.54-2.68s.302-1.62.41-2.27c.11.01.234.023.378.038.14.014.276.02.404.02.285 0 .587-.008.912-.03.325-.02.658-.028 1-.028.78 0 1.38.113 1.813.34.343.185.58.423.713.713.132.29.2.555.2.802 0 .362-.084.702-.25 1.017-.17.312-.378.588-.63.83-.26.24-.545.437-.866.594-.317.16-.624.264-.918.326l-.03.102c.43.042.785.134 1.067.275m-.22 1.046a1.563 1.563 0 0 0-.385-.516 2.002 2.002 0 0 0-.56-.347 2.57 2.57 0 0 0-.685-.175 8.894 8.894 0 0 0-1.016-.06h-.632c-.06 0-.12.005-.19.015-.196.952-.37 1.8-.517 2.54-.147.742-.27 1.407-.367 1.996.186.04.362.06.53.067.165.004.302.007.41.007.248 0 .543-.018.892-.052.348-.035.68-.12.994-.258a2.44 2.44 0 0 0 .64-.412c.2-.175.378-.375.53-.596.153-.22.273-.462.36-.72.09-.264.132-.53.132-.805 0-.255-.045-.484-.137-.684zm.146-5.195c-.34-.23-.76-.35-1.26-.35-.226 0-.45.005-.67.014-.22.01-.446.026-.672.045-.127.518-.234.962-.322 1.326-.09.37-.165.7-.23.993-.064.292-.12.56-.174.807-.054.243-.11.5-.17.762.107.02.222.033.34.037.12.007.26.008.425.008.257 0 .58-.024.974-.073.392-.05.755-.17 1.088-.367.412-.243.71-.555.898-.93.188-.378.28-.747.28-1.107 0-.54-.167-.928-.507-1.165zM187.973 131.255c-.12.148-.26.292-.422.437a2.965 2.965 0 0 1-1.235.646 3.445 3.445 0 0 1-.848.095c-.245 0-.49-.03-.736-.088a1.825 1.825 0 0 1-.663-.3 1.658 1.658 0 0 1-.476-.53 1.412 1.412 0 0 1-.183-.73c0-.187.04-.472.124-.853.083-.385.194-.876.333-1.473l.124-.556c.054-.24.107-.507.162-.8.053-.297.108-.598.16-.907.054-.31.098-.596.126-.86.16.038.374.057.65.057.253 0 .466-.02.63-.058-.096.373-.213.804-.346 1.296-.13.49-.256.98-.373 1.465-.117.483-.22.933-.302 1.34-.084.407-.128.715-.128.918 0 .475.128.827.378 1.06.25.238.6.356 1.05.356.285 0 .545-.044.78-.14a2.25 2.25 0 0 0 .633-.374c.19-.156.347-.34.473-.545.13-.204.232-.42.31-.646.06-.186.122-.426.19-.722a41.77 41.77 0 0 0 .405-1.957c.063-.344.125-.66.177-.95.054-.29.1-.536.133-.737.034-.2.056-.32.067-.36.196.04.392.058.59.058.244 0 .447-.02.6-.058-.048.158-.114.4-.197.73-.084.328-.175.7-.28 1.118-.102.416-.206.862-.308 1.34a81.518 81.518 0 0 0-.545 2.723c-.072.407-.125.747-.156 1.022a2.21 2.21 0 0 0-.254-.012h-.583c-.1 0-.187.003-.266.012l.265-.956-.057-.06M195.74 125.872a1.29 1.29 0 0 0-.758-.227c-.216 0-.41.04-.58.125a1.394 1.394 0 0 0-.818 1.272c0 .178.03.333.1.464.07.135.163.252.282.347.117.1.253.188.405.264.153.08.313.154.478.223.156.067.313.143.472.227.156.084.3.184.426.3.128.12.23.264.31.43.08.17.118.368.118.605 0 .343-.08.668-.237.977-.158.31-.37.58-.642.815-.27.237-.59.42-.956.548-.368.13-.77.19-1.2.19a3.4 3.4 0 0 1-.832-.092 2.948 2.948 0 0 1-.76-.302c.108-.175.202-.36.28-.547.082-.184.144-.332.192-.438h.105c.105.29.295.513.566.658.27.15.568.222.893.222.284 0 .526-.048.726-.146.2-.097.365-.222.494-.37a1.51 1.51 0 0 0 .287-.49c.065-.183.098-.353.098-.51 0-.314-.1-.548-.297-.706-.194-.16-.487-.325-.883-.503a4.973 4.973 0 0 1-.477-.234 1.87 1.87 0 0 1-.434-.324c-.13-.13-.23-.284-.31-.466a1.66 1.66 0 0 1-.12-.67c0-.254.05-.52.15-.794a2.334 2.334 0 0 1 1.296-1.348c.342-.154.76-.23 1.25-.23.265 0 .495.026.694.07.195.045.41.124.646.233-.146.34-.24.577-.286.714a3.403 3.403 0 0 0-.097.35h-.133a1.125 1.125 0 0 0-.447-.638M200.894 126.064l-.28 1.126a82.522 82.522 0 0 0-.604 2.753c-.092.462-.175.898-.25 1.31-.074.413-.123.753-.154 1.016a3.707 3.707 0 0 0-.34-.013h-.655c-.093 0-.18.003-.257.012.107-.314.222-.696.34-1.148.116-.452.23-.922.337-1.413.112-.493.214-.98.31-1.46a99.407 99.407 0 0 0 .442-2.354c.047-.287.08-.473.088-.56.196.038.403.057.62.057.242 0 .444-.02.603-.058-.048.158-.115.4-.2.73m-.403-3.558a.686.686 0 0 1 .5-.205c.196 0 .363.068.502.205.14.137.207.305.207.502s-.07.362-.208.498a.69.69 0 0 1-.5.207.684.684 0 0 1-.502-.207c-.137-.136-.207-.302-.207-.5s.07-.364.207-.5zM205.025 126.456c.1-.14.226-.275.39-.416a3.74 3.74 0 0 1 .554-.38c.202-.12.432-.215.69-.288.254-.075.52-.11.794-.11.265 0 .52.035.767.11.246.073.463.185.658.33.186.15.344.333.46.552.118.223.178.482.178.774 0 .098-.004.19-.005.265a2.728 2.728 0 0 1-.045.31c-.023.126-.06.29-.102.487-.046.196-.106.46-.185.793-.04.18-.094.427-.162.745-.07.318-.137.653-.205 1-.067.35-.132.68-.194.99a7.194 7.194 0 0 0-.102.652 2.034 2.034 0 0 0-.257-.012h-.64c-.118 0-.22.003-.31.012.04-.076.094-.24.162-.484.067-.243.143-.526.226-.84.084-.315.17-.653.252-1.014.083-.366.158-.715.23-1.054.066-.34.124-.65.166-.936.046-.284.07-.51.07-.677 0-.226-.042-.42-.127-.582a1.245 1.245 0 0 0-.33-.405 1.44 1.44 0 0 0-.466-.242c-.17-.054-.35-.08-.536-.08-.116 0-.275.016-.47.058a2.147 2.147 0 0 0-.612.23c-.212.112-.412.27-.607.478a2.22 2.22 0 0 0-.448.81c-.058.166-.122.39-.19.668a55.254 55.254 0 0 0-.43 1.92c-.067.35-.126.67-.184.97-.056.3-.1.556-.137.774-.038.216-.065.352-.075.41a2.007 2.007 0 0 0-.248-.013h-.614c-.102 0-.193.004-.272.013.07-.193.15-.482.243-.86s.188-.793.286-1.245c.1-.45.197-.92.303-1.406.102-.486.196-.95.286-1.393.088-.44.165-.843.226-1.198.065-.36.112-.637.143-.834.146.04.32.058.53.058a2.48 2.48 0 0 0 .558-.06l-.28 1.09.062.03M215.84 132.26a5.298 5.298 0 0 1-1.242.144c-.316 0-.645-.04-.988-.125a2.474 2.474 0 0 1-.952-.473 2.575 2.575 0 0 1-.71-.93c-.19-.385-.28-.872-.28-1.463 0-.58.09-1.124.274-1.634.18-.51.435-.958.773-1.334.332-.377.73-.676 1.198-.898.467-.22.98-.332 1.54-.332.354 0 .686.042 1 .126.314.083.594.222.84.41.245.192.438.442.58.75.144.31.213.687.213 1.127 0 .274-.018.51-.056.708-.04.196-.075.356-.105.486l-.56-.03c-.164-.01-.328-.015-.49-.022l-.508-.015a25.67 25.67 0 0 0-.598-.008h-1.548c-.234 0-.468.006-.703.013-.235.012-.442.018-.617.018-.02.098-.038.215-.052.355a4.85 4.85 0 0 0-.02.495c0 .48.072.866.22 1.158.143.295.324.522.535.69.21.166.44.28.687.336a3 3 0 0 0 1.455.003c.23-.057.435-.125.618-.2.18-.08.336-.163.47-.254.13-.092.24-.17.33-.224h.044l-.193.66c-.36.216-.748.37-1.156.46m-1.045-6.507c-.24.075-.475.208-.706.4-.23.19-.444.45-.644.78-.195.33-.346.75-.454 1.26a36.414 36.414 0 0 0 2.002.06h.473c.242-.002.505-.005.78-.01.274-.003.51-.02.705-.05.02-.088.04-.194.058-.318.02-.12.033-.283.033-.48 0-.32-.05-.597-.14-.822a1.495 1.495 0 0 0-.368-.547 1.43 1.43 0 0 0-.51-.294 1.92 1.92 0 0 0-.573-.087 2.28 2.28 0 0 0-.657.108zM223.513 125.872a1.285 1.285 0 0 0-.758-.227c-.215 0-.41.04-.582.125-.17.084-.32.19-.44.322a1.397 1.397 0 0 0-.376.95 1.032 1.032 0 0 0 .384.81c.117.1.252.19.405.265.15.08.31.154.477.223.156.067.314.143.47.227.16.084.3.184.428.3.13.12.232.264.31.43.076.17.12.368.12.605 0 .343-.08.668-.237.977-.158.31-.37.58-.64.815-.27.237-.59.42-.96.548a3.59 3.59 0 0 1-1.2.19c-.303 0-.58-.03-.83-.092a2.934 2.934 0 0 1-.76-.302c.106-.175.2-.36.282-.547.078-.184.14-.332.19-.438h.104c.106.29.296.513.566.658.268.15.564.222.89.222.284 0 .526-.048.73-.146.2-.097.365-.222.49-.37a1.46 1.46 0 0 0 .29-.49 1.54 1.54 0 0 0 .094-.51c0-.314-.098-.548-.295-.706-.196-.16-.49-.325-.88-.503a4.9 4.9 0 0 1-.48-.234 1.98 1.98 0 0 1-.435-.324 1.53 1.53 0 0 1-.31-.466c-.078-.178-.115-.403-.115-.67 0-.254.046-.52.146-.794.1-.276.254-.53.466-.766.21-.237.488-.43.828-.582.345-.154.764-.23 1.254-.23.263 0 .495.026.69.07.197.045.415.124.647.233-.146.34-.238.577-.284.714a3.677 3.677 0 0 0-.096.35h-.132a1.105 1.105 0 0 0-.45-.638M229.98 125.872a1.3 1.3 0 0 0-.76-.227c-.216 0-.41.04-.58.125-.174.084-.318.19-.442.322a1.403 1.403 0 0 0-.376.95 1.02 1.02 0 0 0 .382.81c.12.1.253.19.405.265a6 6 0 0 0 .476.223c.156.067.316.143.472.227.16.084.3.184.427.3.128.12.23.264.31.43.077.17.12.368.12.605 0 .343-.08.668-.236.977-.16.31-.374.58-.643.815-.27.237-.59.42-.958.548-.37.13-.768.19-1.202.19a3.4 3.4 0 0 1-.83-.092 2.963 2.963 0 0 1-.76-.302c.11-.175.2-.36.28-.547.08-.184.143-.332.192-.438h.103c.105.29.298.513.566.658.27.15.566.222.89.222.287 0 .527-.048.73-.146a1.492 1.492 0 0 0 .782-.86c.066-.183.094-.353.094-.51 0-.314-.098-.548-.297-.706-.196-.16-.49-.325-.88-.503a4.258 4.258 0 0 1-.483-.234 1.93 1.93 0 0 1-.433-.324c-.13-.13-.23-.284-.31-.466a1.717 1.717 0 0 1-.117-.67c0-.254.05-.52.147-.794a2.34 2.34 0 0 1 1.295-1.348c.342-.154.76-.23 1.252-.23.264 0 .494.026.69.07.197.045.413.124.648.233-.146.34-.24.577-.288.714a4.64 4.64 0 0 0-.094.35h-.133a1.114 1.114 0 0 0-.446-.638M242.96 131.557a4.98 4.98 0 0 1-.73.44 4.3 4.3 0 0 1-.94.348c-.35.088-.73.133-1.143.133-.45 0-.83-.065-1.134-.192a1.94 1.94 0 0 1-.735-.516 1.894 1.894 0 0 1-.397-.72 2.577 2.577 0 0 1-.116-.766c0-.464.088-.864.268-1.2.184-.34.42-.642.718-.9a5.572 5.572 0 0 1 1-.7c.37-.206.757-.408 1.148-.604a6.784 6.784 0 0 1-.45-1.015 2.804 2.804 0 0 1-.138-.884c0-.403.07-.758.214-1.067.14-.31.33-.574.566-.794.237-.223.506-.39.81-.502.305-.113.615-.17.928-.17.292 0 .543.044.75.124.21.086.38.196.515.333.137.137.24.29.302.462.063.17.095.343.095.51 0 .392-.098.746-.3 1.06a3.73 3.73 0 0 1-.716.823 5.7 5.7 0 0 1-.828.6 9.4 9.4 0 0 1-.67.36c.24.42.442.765.593 1.03a24.905 24.905 0 0 0 .876 1.414c.158.237.358.537.604.898.155-.126.322-.288.5-.48a15.317 15.317 0 0 0 1.046-1.295c.166-.23.316-.448.456-.656.048.11.102.21.16.304.06.092.133.19.222.288-.365.41-.71.8-1.053 1.17-.338.37-.693.705-1.068 1.01a8.71 8.71 0 0 0 .48.727c.103.142.224.31.363.495.137.184.31.4.514.645-.217-.01-.45-.013-.708-.013h-.373c-.128 0-.25.003-.38.012l-.75-1.104c-.125.108-.295.24-.5.39m-3.607-3.122c-.346.41-.517.892-.517 1.45 0 .306.05.58.147.82a1.814 1.814 0 0 0 1.032 1.015c.237.09.494.14.767.14.256 0 .498-.033.73-.098a4.083 4.083 0 0 0 1.237-.574c.18-.12.347-.237.506-.347-.384-.596-.77-1.21-1.164-1.84-.392-.625-.73-1.22-1.013-1.78h-.02c-.795.403-1.363.807-1.707 1.214zm3.093-2.422a4.04 4.04 0 0 0 .638-.522c.204-.203.37-.43.502-.692.135-.26.2-.555.2-.89 0-.317-.093-.57-.272-.768-.18-.196-.437-.292-.76-.292-.423 0-.778.156-1.075.47-.296.315-.443.735-.443 1.265 0 .324.053.62.156.884.1.265.242.573.42.93h.03l.603-.385zM256.734 124.35a102.3 102.3 0 0 0-.536 2.45c-.177.85-.35 1.7-.517 2.556-.165.858-.308 1.642-.426 2.36a2.48 2.48 0 0 0-.28-.014h-.707c-.116 0-.226.004-.322.014a89.98 89.98 0 0 0 .604-2.427c.207-.88.4-1.75.58-2.61.18-.86.346-1.673.495-2.442.148-.766.264-1.41.355-1.934-.386 0-.85.012-1.402.035-.55.02-1.175.06-1.883.113a5.06 5.06 0 0 0 .105-.384c.016-.1.037-.232.057-.4.53.03 1.095.048 1.7.052a178.83 178.83 0 0 0 4.006-.006c.583-.01 1.115-.026 1.6-.046-.05.13-.085.242-.104.34a4.5 4.5 0 0 0-.06.442c-.177-.01-.384-.024-.618-.042-.237-.014-.48-.03-.73-.048a32.3 32.3 0 0 0-.75-.04c-.25-.013-.475-.02-.67-.02-.147.586-.312 1.267-.494 2.047M263.376 131.708a5.466 5.466 0 0 1-1.245.143c-.312 0-.642-.043-.987-.127a2.38 2.38 0 0 1-.948-.47 2.59 2.59 0 0 1-.715-.93c-.188-.387-.28-.872-.28-1.464 0-.58.09-1.125.273-1.636a4.1 4.1 0 0 1 .77-1.332 3.73 3.73 0 0 1 1.203-.9c.467-.218.978-.33 1.538-.33.355 0 .688.042 1 .125.314.084.594.222.842.41.245.194.438.444.58.753.143.31.213.686.213 1.126a3.7 3.7 0 0 1-.058.707c-.04.196-.075.358-.103.487l-.56-.03c-.166-.01-.33-.016-.49-.02a25.898 25.898 0 0 0-1.11-.024h-1.54c-.235 0-.472.006-.707.013-.235.013-.44.018-.616.018a4.153 4.153 0 0 0-.074.85c0 .478.073.864.22 1.157.148.295.325.522.535.69.21.166.442.28.692.335.25.06.475.09.68.09.284 0 .54-.03.77-.087.23-.056.437-.125.618-.2.18-.078.34-.162.47-.254.134-.092.242-.168.33-.225h.044l-.19.662c-.363.214-.748.37-1.156.46m-1.045-6.51c-.24.077-.478.21-.71.4a3.02 3.02 0 0 0-.637.783c-.2.326-.35.747-.457 1.258a32.763 32.763 0 0 0 2.002.06H263c.245 0 .506-.004.78-.008.274-.005.51-.022.706-.052a3.36 3.36 0 0 0 .09-.796c0-.323-.048-.598-.143-.822a1.483 1.483 0 0 0-.367-.548 1.37 1.37 0 0 0-.506-.295c-.19-.058-.378-.086-.575-.086s-.413.035-.654.108zM270.703 131.864c-.452 0-.877-.056-1.275-.162a2.67 2.67 0 0 1-1.04-.537 2.576 2.576 0 0 1-.702-.948c-.17-.385-.254-.837-.254-1.357 0-.46.08-.94.238-1.435.162-.495.418-.95.77-1.363.35-.41.797-.75 1.347-1.015.55-.267 1.215-.4 1.99-.4.53 0 .98.05 1.348.156.367.102.662.2.89.288-.05.106-.09.2-.125.278a1.815 1.815 0 0 0-.088.23c-.023.07-.05.15-.072.244-.026.088-.053.19-.082.31h-.09a1.81 1.81 0 0 0-.796-.775 2.353 2.353 0 0 0-1.073-.258c-.462 0-.884.11-1.27.324-.383.216-.708.498-.976.845-.272.35-.482.746-.63 1.195a4.36 4.36 0 0 0-.218 1.375c0 .53.082.962.242 1.296.16.335.36.592.605.773.24.18.494.305.764.368a2.965 2.965 0 0 0 1.427.015c.22-.056.423-.12.597-.192.18-.072.33-.145.466-.214l.314-.16.075.03-.207.616c-.674.314-1.4.472-2.175.472M278.058 125.267c.23-.155.457-.282.676-.37.222-.087.43-.147.627-.174a3.7 3.7 0 0 1 .53-.046c.372 0 .692.058.95.177.26.118.472.264.635.435.16.17.277.36.352.56.072.2.112.384.112.55 0 .08-.006.157-.016.236-.012.08-.034.197-.067.36l-.143.656-.234 1.105c-.078.412-.162.82-.25 1.224-.087.402-.162.794-.22 1.175-.02.14-.035.25-.045.333l-.03.227a2.205 2.205 0 0 0-.274-.014h-.659c-.102 0-.2.005-.286.015a39.17 39.17 0 0 0 .337-1.28c.076-.325.162-.672.25-1.046.09-.374.17-.734.245-1.082.073-.35.133-.67.182-.96.05-.29.076-.506.076-.652 0-.178-.03-.345-.09-.5a1.24 1.24 0 0 0-.712-.73 1.717 1.717 0 0 0-.64-.113c-.108 0-.265.02-.473.052a1.983 1.983 0 0 0-.656.252c-.23.132-.45.328-.66.594-.213.268-.377.63-.495 1.09-.046.2-.112.48-.19.84a54.578 54.578 0 0 0-.48 2.437c-.07.428-.13.793-.165 1.098a2.126 2.126 0 0 0-.26-.014h-.626c-.118 0-.224.005-.322.015.038-.107.11-.38.22-.826.107-.44.23-.976.374-1.613.143-.634.3-1.328.464-2.09.17-.76.328-1.525.48-2.296.152-.77.29-1.517.427-2.237.13-.722.237-1.358.316-1.907.155.037.352.057.588.057a3.08 3.08 0 0 0 .62-.058l-.317 1.256c-.1.416-.204.85-.302 1.29-.055.233-.106.46-.153.668-.045.214-.087.416-.132.618-.042.203-.087.405-.133.613a23.35 23.35 0 0 1-.154.677l.058.03c.218-.264.44-.474.672-.63M286.34 125.9c.1-.138.23-.272.392-.414a3.434 3.434 0 0 1 1.244-.67 2.86 2.86 0 0 1 1.56 0c.245.076.464.186.656.332.193.148.344.333.464.55.117.224.178.484.178.778a2.97 2.97 0 0 1-.052.573l-.105.487-.182.793c-.042.178-.095.426-.165.745-.065.318-.136.653-.204 1-.07.35-.133.68-.195.99-.056.308-.09.525-.1.652a2.08 2.08 0 0 0-.258-.014h-.642c-.116 0-.22.004-.306.014.038-.078.09-.24.16-.484.068-.245.143-.526.23-.842a39.972 39.972 0 0 0 .478-2.065c.068-.34.122-.653.17-.937.044-.283.067-.51.067-.677a1.217 1.217 0 0 0-.457-.986 1.458 1.458 0 0 0-.465-.24 1.79 1.79 0 0 0-.54-.08 2.377 2.377 0 0 0-1.082.283c-.21.114-.41.273-.603.482-.193.202-.34.474-.45.807-.06.166-.12.39-.19.67s-.142.585-.215.916c-.075.326-.147.662-.216 1.004-.064.348-.128.67-.182.97l-.14.77c-.038.22-.066.352-.074.412a1.977 1.977 0 0 0-.25-.015h-.611c-.103 0-.196.004-.275.014.072-.194.152-.483.245-.863.095-.375.19-.79.287-1.242.098-.45.2-.92.302-1.408a101.76 101.76 0 0 0 .516-2.59c.065-.36.113-.636.14-.834.148.04.324.058.53.058.087 0 .182-.002.28-.01a2.8 2.8 0 0 0 .28-.047l-.28 1.09.06.028M293.256 127.386c.192-.51.464-.968.816-1.375a4.08 4.08 0 0 1 1.298-.987c.51-.25 1.08-.375 1.707-.375.58 0 1.07.082 1.473.243.4.163.726.376.97.64.25.268.423.57.533.914.107.343.16.702.16 1.076 0 .54-.096 1.073-.292 1.596-.196.526-.478.994-.838 1.408-.365.412-.8.737-1.314.98-.51.24-1.084.36-1.72.36-.61 0-1.112-.09-1.514-.265a2.462 2.462 0 0 1-1.425-1.66 3.686 3.686 0 0 1-.142-.996c0-.527.095-1.048.288-1.558m1.31 3.448c.29.403.768.603 1.436.603.56 0 1.03-.15 1.413-.448.384-.303.698-.67.943-1.1a4.95 4.95 0 0 0 .53-1.368c.11-.482.165-.905.165-1.266 0-.303-.045-.59-.128-.847a1.91 1.91 0 0 0-.375-.678 1.737 1.737 0 0 0-.62-.45 2.034 2.034 0 0 0-.837-.162c-.532 0-.983.144-1.364.428a3.468 3.468 0 0 0-.922 1.05c-.234.42-.405.872-.513 1.356a6.2 6.2 0 0 0-.163 1.348c0 .618.145 1.128.435 1.532zM305.142 121.65c-.114.476-.246 1.054-.4 1.73l-.493 2.217a199.696 199.696 0 0 0-.944 4.52c-.128.672-.224 1.207-.294 1.6a2.07 2.07 0 0 0-.26-.015h-.675a2.07 2.07 0 0 0-.26.014c.16-.57.317-1.19.48-1.864a131.516 131.516 0 0 0 1.32-6.09c.118-.62.22-1.187.31-1.708.087-.52.155-.958.205-1.31.147.038.332.058.56.058.105 0 .22-.005.338-.014.116-.012.23-.028.34-.045-.04.128-.118.432-.228.906M306.466 127.386c.19-.51.465-.968.816-1.375a4.07 4.07 0 0 1 1.298-.987c.51-.25 1.08-.375 1.706-.375.582 0 1.072.082 1.473.243.4.163.727.376.972.64.246.268.423.57.532.914.106.343.16.702.16 1.076 0 .54-.097 1.073-.295 1.596a4.44 4.44 0 0 1-.84 1.408c-.366.412-.8.737-1.312.98-.51.24-1.083.36-1.72.36-.612 0-1.115-.09-1.51-.265a2.454 2.454 0 0 1-.944-.702 2.63 2.63 0 0 1-.487-.958 3.803 3.803 0 0 1-.14-.996c.002-.527.098-1.048.29-1.558m1.31 3.448c.29.403.766.603 1.434.603.56 0 1.032-.15 1.413-.448.386-.303.7-.67.947-1.1.243-.43.42-.89.528-1.368.11-.482.165-.905.165-1.266a2.8 2.8 0 0 0-.126-.847 1.93 1.93 0 0 0-.377-.678 1.746 1.746 0 0 0-.62-.45 2.03 2.03 0 0 0-.838-.162c-.53 0-.983.144-1.363.428a3.475 3.475 0 0 0-.92 1.05 4.94 4.94 0 0 0-.513 1.356c-.11.487-.165.936-.165 1.348 0 .618.146 1.128.434 1.532zM316.385 128.94a1.484 1.484 0 0 1-.356-.28 1.614 1.614 0 0 1-.308-.48c-.088-.192-.133-.444-.133-.748a2.627 2.627 0 0 1 .824-1.91c.274-.257.61-.468 1.008-.63.397-.162.86-.243 1.39-.243.25 0 .438.014.583.045.14.03.32.072.537.132.137.038.256.06.36.065.102.003.234.005.39.005.088 0 .196-.003.324-.005.13-.005.26-.014.4-.023.135-.01.268-.02.395-.023.13-.005.242-.008.342-.008 0 .05-.007.1-.016.146a.843.843 0 0 0-.014.162c0 .06.004.116.014.165.01.05.016.097.016.146l-.832-.046c-.203-.01-.39-.018-.57-.03.08.11.167.254.266.434.098.184.148.44.148.775 0 .207-.027.423-.08.65-.054.225-.14.442-.257.652-.12.214-.267.415-.446.604a2.438 2.438 0 0 1-.63.494 2.967 2.967 0 0 1-1.073.346c-.375.044-.68.067-.914.067-.166 0-.328-.003-.473-.007a6.82 6.82 0 0 1-.382-.022c-.04.03-.094.067-.16.107-.068.046-.136.1-.2.165a.98.98 0 0 0-.17.23.605.605 0 0 0-.075.306.54.54 0 0 0 .106.35c.067.082.155.14.263.174.11.035.224.058.355.067.125.01.25.012.367.012.41 0 .763.002 1.053.01.288.004.535.022.737.043.2.024.374.06.522.103.147.046.29.107.424.184a1.396 1.396 0 0 1 .532.613c.05.102.083.21.1.322.013.114.02.214.02.302 0 .284-.066.613-.198.98a3.21 3.21 0 0 1-.642 1.044c-.297.33-.684.608-1.17.833-.487.226-1.085.337-1.79.337-.344 0-.68-.035-1-.107a2.116 2.116 0 0 1-.855-.407 1.627 1.627 0 0 1-.465-.604 1.89 1.89 0 0 1-.17-.794c0-.346.084-.667.25-.97.166-.305.395-.547.68-.724.166-.107.314-.182.448-.222.132-.038.238-.075.316-.102l.016-.105a1.246 1.246 0 0 1-.487-.212.896.896 0 0 1-.227-.25.75.75 0 0 1-.095-.39c0-.225.044-.423.132-.59.088-.166.2-.307.332-.42a2.31 2.31 0 0 1 .42-.286c.146-.08.272-.144.38-.193v-.1c-.058-.034-.145-.08-.262-.143m-.915 5.353c.098.192.235.355.405.477.173.124.366.212.584.273.213.06.438.09.675.09.442 0 .826-.072 1.156-.217a2.6 2.6 0 0 0 .825-.547c.22-.223.385-.47.492-.74a2.2 2.2 0 0 0 .165-.807c0-.294-.07-.52-.2-.68-.133-.16-.3-.27-.503-.34a2.17 2.17 0 0 0-.654-.117 11.598 11.598 0 0 0-1.413.014c-.316.02-.6.12-.854.298-.178.117-.32.248-.428.392a1.94 1.94 0 0 0-.252.434 1.932 1.932 0 0 0-.117.422c-.02.132-.03.245-.03.333 0 .277.05.512.147.713zm1.378-6.09c.083.19.19.345.324.458.135.115.277.196.435.246.155.048.314.07.47.07.355 0 .655-.086.907-.264a2.15 2.15 0 0 0 .61-.646c.157-.254.27-.526.34-.817a3.42 3.42 0 0 0 .103-.774c0-.443-.114-.786-.34-1.03-.226-.25-.546-.368-.958-.368-.372 0-.688.086-.944.257-.254.17-.462.382-.624.633-.16.25-.28.516-.347.796a3.11 3.11 0 0 0-.102.743c0 .274.042.505.125.697zM326.934 129.323c.21-.36.416-.718.613-1.083.303-.56.552-1.012.74-1.362.196-.347.348-.633.466-.854.117-.222.205-.394.268-.524.055-.125.11-.25.16-.37l.146-.35c.15.04.32.057.517.057s.352-.018.47-.058c-.536.852-1.09 1.732-1.648 2.636a120.3 120.3 0 0 0-1.65 2.738 176.66 176.66 0 0 0-1.57 2.74c-.504.902-.97 1.787-1.392 2.65a1.464 1.464 0 0 0-.47-.06c-.196 0-.35.022-.455.06.412-.645.822-1.3 1.238-1.96.41-.655.804-1.284 1.175-1.883-.294-1.206-.583-2.37-.872-3.48-.29-1.118-.593-2.263-.907-3.44a2.68 2.68 0 0 0 .62.057c.236 0 .425-.018.574-.058.117.676.283 1.49.5 2.443.216.954.48 2.008.794 3.165h.075c.197-.352.4-.706.61-1.065M341.787 122.322a1.872 1.872 0 0 0-1.03-.28c-.308 0-.593.06-.852.177a2.26 2.26 0 0 0-.683.463 1.95 1.95 0 0 0-.446.672c-.103.254-.158.52-.158.796 0 .268.042.492.12.68.083.188.193.352.34.502.148.148.322.287.52.412.196.13.412.263.65.397.23.14.444.277.65.408.208.133.39.286.548.458.156.17.286.374.378.605.09.23.14.512.14.847 0 .393-.088.797-.268 1.21-.174.41-.43.79-.77 1.127-.34.34-.76.612-1.26.82-.502.208-1.08.31-1.737.31a5.29 5.29 0 0 1-1.1-.115 3.134 3.134 0 0 1-1.007-.4 8.98 8.98 0 0 0 .27-.57c.085-.19.156-.38.215-.566h.102c.112.207.248.377.42.513a2.47 2.47 0 0 0 1.127.51c.196.035.37.053.516.053a2.258 2.258 0 0 0 1.765-.81 2.553 2.553 0 0 0 .603-1.588c0-.264-.038-.494-.12-.683a1.812 1.812 0 0 0-.333-.508 2.94 2.94 0 0 0-.492-.415c-.193-.125-.39-.257-.597-.394a16.848 16.848 0 0 1-.656-.418 3.062 3.062 0 0 1-.56-.487c-.16-.18-.29-.392-.39-.634a2.255 2.255 0 0 1-.15-.86c0-.422.09-.816.268-1.185.178-.366.424-.687.744-.956.318-.27.696-.483 1.134-.64.437-.158.914-.233 1.436-.233.48 0 .872.05 1.178.157.303.105.54.196.706.272a6.273 6.273 0 0 0-.287.55 6.242 6.242 0 0 0-.21.566h-.106a1.47 1.47 0 0 0-.617-.764M344.52 127.386c.19-.51.463-.968.818-1.375.352-.408.785-.736 1.295-.987.51-.25 1.08-.375 1.707-.375.58 0 1.07.082 1.472.243.404.163.73.376.974.64.245.268.42.57.53.914.108.343.162.702.162 1.076 0 .54-.1 1.073-.295 1.596a4.533 4.533 0 0 1-.838 1.408c-.366.412-.8.737-1.31.98-.512.24-1.086.36-1.724.36-.607 0-1.113-.09-1.51-.265a2.485 2.485 0 0 1-.942-.702c-.23-.29-.393-.61-.486-.958a3.806 3.806 0 0 1-.14-.996c0-.527.095-1.048.288-1.558m1.307 3.448c.29.403.77.603 1.44.603.555 0 1.03-.15 1.41-.448.384-.303.7-.67.945-1.1.243-.43.42-.89.53-1.368.106-.482.16-.905.16-1.266 0-.303-.04-.59-.124-.847a1.9 1.9 0 0 0-.377-.678 1.703 1.703 0 0 0-.618-.45 2.033 2.033 0 0 0-.837-.162c-.533 0-.986.144-1.362.428a3.43 3.43 0 0 0-.922 1.05c-.234.42-.407.872-.512 1.356-.11.487-.166.936-.166 1.348 0 .618.147 1.128.435 1.532zM356.403 121.65c-.113.476-.245 1.054-.4 1.73-.153.677-.315 1.417-.49 2.217a252.22 252.22 0 0 0-.51 2.356c-.16.773-.307 1.494-.434 2.163-.127.673-.228 1.208-.295 1.6a2.114 2.114 0 0 0-.258-.014h-.679c-.092 0-.178.004-.256.014.158-.57.317-1.19.477-1.864.164-.67.32-1.358.48-2.053.153-.697.304-1.388.447-2.078.14-.687.275-1.34.392-1.96a80.996 80.996 0 0 0 .514-3.016c.147.037.335.057.56.057.106 0 .22-.005.338-.014.118-.012.23-.028.34-.045-.04.128-.113.432-.23.906M362.36 130.7a3.458 3.458 0 0 1-.42.436c-.16.14-.346.268-.55.384-.21.112-.436.2-.687.264-.25.064-.532.094-.847.094-.245 0-.492-.027-.735-.088a1.853 1.853 0 0 1-.664-.3 1.67 1.67 0 0 1-.477-.533 1.42 1.42 0 0 1-.185-.726c0-.187.042-.47.124-.853.083-.384.195-.876.33-1.474.03-.125.073-.31.128-.552.052-.24.107-.506.162-.8.054-.297.107-.597.16-.906.055-.31.098-.596.126-.862.156.04.374.058.65.058.254 0 .464-.018.63-.058-.097.374-.213.805-.344 1.298-.132.49-.257.978-.375 1.464-.118.484-.22.934-.303 1.34-.084.408-.122.715-.122.92 0 .473.122.826.374 1.06.25.24.6.356 1.05.356.287 0 .546-.046.785-.14.235-.092.446-.22.632-.375a2.3 2.3 0 0 0 .472-.545c.128-.205.23-.422.31-.65.06-.185.124-.423.192-.72.067-.294.136-.608.205-.944.07-.333.133-.672.2-1.016.065-.343.12-.658.177-.948.054-.29.097-.535.133-.737.033-.2.057-.32.067-.36.196.04.39.058.586.058.248 0 .446-.018.605-.058-.05.16-.113.4-.2.73-.082.328-.177.7-.28 1.12-.102.415-.204.86-.31 1.337-.1.477-.2.948-.293 1.413-.092.468-.175.905-.25 1.31-.075.41-.126.75-.154 1.024a2.292 2.292 0 0 0-.257-.015H362.423c-.1 0-.188.004-.267.014l.267-.957-.062-.062M369.097 123.957l-.227 1.015c.224 0 .47-.008.743-.023.27-.015.532-.027.788-.038-.057.207-.09.41-.09.604-.252-.008-.52-.02-.8-.035-.28-.014-.53-.022-.756-.022l-.575 2.77a46.5 46.5 0 0 1-.104.52c-.04.194-.076.383-.112.566-.034.188-.064.37-.088.54a3.272 3.272 0 0 0-.037.434c0 .197.033.363.102.5.07.138.155.248.258.332.102.084.215.146.34.185.12.038.236.06.344.06.17 0 .335-.027.502-.08.17-.056.32-.13.47-.215l-.03.384a1.693 1.693 0 0 1-.715.32c-.276.062-.542.09-.787.09a2.04 2.04 0 0 1-.562-.08 1.592 1.592 0 0 1-.504-.244 1.237 1.237 0 0 1-.493-1.015c0-.197.023-.404.067-.62.04-.214.087-.445.136-.69.107-.503.193-.907.263-1.222.067-.317.126-.6.18-.847.053-.252.103-.5.152-.75l.188-.937c-.135 0-.287.002-.454.007-.17.004-.34.014-.502.02.03-.078.05-.155.065-.235.01-.078.02-.19.02-.34l.49.038c.166.015.316.023.438.023l.267-1.562 1.28-.468c-.1.342-.185.682-.258 1.015M373.913 125.51c-.084.328-.175.703-.28 1.126-.104.42-.21.87-.312 1.347-.1.476-.198.944-.293 1.406-.092.46-.177.897-.25 1.31-.075.41-.126.752-.154 1.015a3.71 3.71 0 0 0-.34-.014h-.654c-.094 0-.18.005-.257.015.107-.313.22-.696.34-1.148.116-.453.23-.922.338-1.413a87.083 87.083 0 0 0 .566-2.786c.072-.4.135-.74.184-1.027.05-.286.08-.472.087-.56.197.04.404.057.62.057.245 0 .446-.018.603-.058-.047.16-.117.4-.197.73m-.406-3.558a.69.69 0 0 1 .5-.204c.2 0 .365.068.5.204.14.14.208.306.208.502 0 .2-.068.363-.207.5a.68.68 0 0 1-.502.205.69.69 0 0 1-.5-.205.68.68 0 0 1-.203-.5.69.69 0 0 1 .204-.503zM376.033 127.386c.192-.51.467-.968.82-1.375.35-.408.785-.736 1.293-.987a3.85 3.85 0 0 1 1.71-.375c.58 0 1.07.082 1.473.243.4.163.725.376.972.64a2.4 2.4 0 0 1 .528.914c.11.343.165.702.165 1.076 0 .54-.1 1.073-.297 1.596a4.457 4.457 0 0 1-.838 1.408 4.072 4.072 0 0 1-1.31.98c-.51.24-1.085.36-1.723.36-.61 0-1.11-.09-1.51-.265-.396-.18-.713-.413-.944-.702-.23-.29-.392-.61-.486-.958-.09-.345-.14-.68-.14-.996 0-.527.096-1.048.286-1.558m1.31 3.448c.292.403.768.603 1.437.603.56 0 1.032-.15 1.415-.448a3.72 3.72 0 0 0 .94-1.1c.248-.43.423-.89.532-1.368.107-.482.162-.905.162-1.266 0-.303-.042-.59-.126-.847a1.926 1.926 0 0 0-.375-.678 1.75 1.75 0 0 0-.62-.45 2.05 2.05 0 0 0-.84-.162c-.53 0-.985.144-1.363.428a3.454 3.454 0 0 0-.92 1.05 5.08 5.08 0 0 0-.517 1.356 6.31 6.31 0 0 0-.16 1.348c0 .618.144 1.128.434 1.532zM386.97 125.9c.096-.138.228-.272.39-.414.162-.137.342-.264.55-.38a3.045 3.045 0 0 1 1.487-.398c.265 0 .52.035.764.11.247.074.466.184.657.33.192.148.345.333.465.55.114.224.177.484.177.778a2.97 2.97 0 0 1-.053.573c-.026.127-.058.29-.103.487a79.5 79.5 0 0 1-.185.793c-.042.178-.092.426-.16.745-.07.318-.14.653-.208 1-.07.35-.133.68-.193.99-.058.308-.092.525-.102.652a2.103 2.103 0 0 0-.258-.014h-.642c-.116 0-.218.004-.31.014a3.42 3.42 0 0 0 .163-.484 50.87 50.87 0 0 0 .48-1.855c.083-.365.16-.715.23-1.053.068-.34.125-.653.167-.937.044-.283.068-.51.068-.677 0-.225-.044-.42-.125-.58a1.276 1.276 0 0 0-.332-.405 1.49 1.49 0 0 0-.462-.242 1.804 1.804 0 0 0-.54-.08c-.12 0-.275.016-.47.057a2.3 2.3 0 0 0-.613.227 2.32 2.32 0 0 0-.603.482 2.13 2.13 0 0 0-.45.807c-.06.166-.12.39-.192.67-.068.28-.14.585-.212.916a42.7 42.7 0 0 0-.214 1.004c-.068.348-.13.67-.186.97-.05.3-.1.555-.136.77-.042.22-.065.352-.075.412a2.004 2.004 0 0 0-.252-.015h-.614c-.1 0-.19.004-.268.014.07-.194.15-.483.24-.863.095-.375.19-.79.29-1.242.096-.45.198-.92.3-1.408.104-.484.198-.948.288-1.392.09-.443.165-.843.226-1.197.065-.36.113-.637.14-.835.148.04.325.058.532.058.09 0 .18-.002.28-.01.1-.013.19-.027.28-.047l-.28 1.09.06.028M397.355 125.317a1.298 1.298 0 0 0-.758-.226c-.215 0-.407.04-.582.125a1.4 1.4 0 0 0-.438.324c-.125.13-.22.28-.283.445-.064.17-.097.336-.097.5a1.01 1.01 0 0 0 .382.815c.12.097.253.188.404.264.155.08.313.154.483.222.154.068.314.144.47.227.155.086.298.184.426.302.128.117.23.263.307.428.08.17.118.37.118.604 0 .344-.078.67-.235.978-.155.31-.37.58-.64.816-.268.238-.588.42-.955.55-.37.125-.77.188-1.202.188-.303 0-.58-.027-.832-.09-.25-.06-.502-.162-.756-.304.106-.177.2-.36.28-.547.078-.186.14-.333.192-.44h.1c.11.29.3.513.57.66.268.15.567.22.888.22.286 0 .528-.048.732-.145a1.51 1.51 0 0 0 .78-.862c.063-.182.093-.35.093-.507 0-.316-.095-.548-.29-.707-.198-.158-.493-.325-.884-.5a5.49 5.49 0 0 1-.483-.238 1.848 1.848 0 0 1-.434-.324 1.512 1.512 0 0 1-.31-.464 1.702 1.702 0 0 1-.116-.67c0-.254.05-.52.147-.794.098-.276.25-.533.462-.766.212-.237.49-.43.832-.584.344-.152.76-.23 1.253-.23.266 0 .496.024.69.07.2.046.416.124.65.234a9.06 9.06 0 0 0-.286.713c-.046.14-.078.257-.095.354h-.136a1.095 1.095 0 0 0-.45-.64"/></g><path d="M26.235 67.407c-.662 1.562-2.69 2.844-4.524 2.844-1.83 0-2.732-1.282-2.026-2.843.698-1.538 2.705-2.772 4.49-2.772 1.79 0 2.712 1.233 2.06 2.772M25.532 57.734c-.982 2.2-3.985 4.015-6.688 4.015-2.704 0-4-1.817-2.922-4.016 1.057-2.153 4.015-3.87 6.62-3.87 2.606 0 3.95 1.717 2.99 3.87M30.03 45.454c-1.27 2.814-5.313 5.157-8.993 5.157-3.68 0-5.46-2.34-4.007-5.156 1.412-2.74 5.37-4.908 8.873-4.908 3.5 0 5.363 2.17 4.126 4.908M39.34 33.01c-1.234 2.858-5.494 5.24-9.48 5.24-3.986 0-6.015-2.382-4.57-5.24 1.403-2.777 5.578-4.97 9.355-4.97 3.777.002 5.895 2.193 4.696 4.97M54.69 22.878c-1.1 2.972-5.576 5.456-9.957 5.456-4.38 0-6.8-2.484-5.445-5.456 1.313-2.876 5.7-5.143 9.83-5.143s6.64 2.268 5.573 5.143M69.65 18.046c-.66 2.23-3.94 4.082-7.308 4.082-3.37 0-5.427-1.853-4.617-4.082.792-2.175 4.03-3.9 7.247-3.9 3.22 0 5.32 1.725 4.68 3.9M80.762 17.138c-.366 1.57-2.598 2.866-4.974 2.866-2.38 0-3.942-1.296-3.5-2.866.436-1.544 2.65-2.775 4.952-2.775s3.88 1.23 3.522 2.775M88.407 18.847c-.218 1.15-1.79 2.096-3.512 2.096s-2.905-.945-2.65-2.096c.252-1.136 1.82-2.044 3.5-2.044 1.682 0 2.874.908 2.662 2.044M91.406 64.584c1.643-.754 3.564-.31 4.302 1.007.748 1.33.015 3.05-1.655 3.84-1.68.79-3.64.318-4.364-1.043-.715-1.346.062-3.045 1.716-3.803M82.29 73.49c2.667-1.247 5.697-.507 6.813 1.676 1.137 2.225-.118 5.132-2.855 6.47-2.768 1.35-5.913.547-6.978-1.77-1.046-2.27.328-5.115 3.02-6.376M66.088 82.16c4.087-1.92 8.522-.784 10.002 2.6 1.522 3.476-.615 8.072-4.875 10.205-4.334 2.168-9.024.877-10.366-2.818-1.306-3.587 1.084-8.03 5.238-9.986M44.44 87.86c5.017-2.314 10.126-.944 11.536 3.142 1.46 4.224-1.53 9.843-6.813 12.46-5.392 2.67-10.838 1.082-12.02-3.457-1.14-4.387 2.187-9.783 7.297-12.144M21.836 84.685c5.97-2.61 11.668-1.07 12.88 3.545 1.26 4.796-2.733 11.21-9.09 14.216-6.507 3.073-12.62 1.24-13.476-3.968-.82-5.004 3.588-11.13 9.686-13.793M9.018 75.034c4.675-1.918 8.963-.783 9.66 2.59.716 3.476-2.61 8.077-7.523 10.21-5 2.173-9.516.88-9.99-2.82-.458-3.59 3.098-8.03 7.853-9.98M5.372 65.18c3.228-1.258 6.147-.513 6.556 1.692.42 2.25-1.918 5.195-5.253 6.55-3.38 1.367-6.403.554-6.706-1.795-.3-2.297 2.138-5.172 5.402-6.447M7.63 56.673c2.23-.84 4.256-.34 4.543 1.124.288 1.488-1.31 3.42-3.594 4.302-2.303.89-4.377.36-4.612-1.17-.234-1.51 1.416-3.41 3.663-4.257M68.59 26.815c-1.13-.518-1.23-1.66-.237-2.538.98-.872 2.677-1.173 3.796-.67 1.127.505 1.26 1.63.29 2.52-.983.9-2.712 1.21-3.85.688M78.805 27.71c-1.783-.802-2.027-2.555-.58-3.904 1.428-1.328 3.98-1.776 5.738-1.016 1.772.767 2.103 2.488.7 3.858-1.42 1.388-4.058 1.87-5.858 1.063M90.366 32.082c-2.688-1.205-3.194-3.817-1.2-5.808 1.95-1.952 5.61-2.61 8.24-1.496 2.658 1.125 3.337 3.67 1.446 5.712-1.932 2.084-5.766 2.81-8.486 1.592M101.534 40.526c-3.31-1.51-4.096-4.774-1.842-7.254 2.193-2.414 6.51-3.228 9.726-1.854 3.27 1.397 4.294 4.56 2.194 7.113-2.154 2.62-6.712 3.53-10.078 1.996M107.836 55.198c-4.173-2.012-5.252-6.343-2.56-9.605 2.61-3.163 7.877-4.22 11.9-2.43 4.097 1.826 5.54 5.994 3.084 9.374-2.538 3.492-8.172 4.714-12.424 2.66M106.182 70.945c-3.557-1.85-4.464-5.848-2.136-8.877 2.265-2.948 6.817-3.937 10.266-2.26 3.503 1.7 4.678 5.57 2.526 8.69-2.217 3.21-7.04 4.328-10.656 2.447M99.52 83.03c-2.64-1.468-3.247-4.663-1.426-7.1 1.79-2.383 5.283-3.19 7.868-1.83 2.606 1.382 3.376 4.494 1.647 6.984-1.76 2.55-5.416 3.435-8.09 1.946M90.07 90.358c-1.918-1.128-2.29-3.584-.858-5.47 1.41-1.858 4.055-2.49 5.944-1.425 1.904 1.073 2.363 3.486.985 5.407-1.4 1.948-4.133 2.622-6.07 1.488" fill="#715f6a"/></svg>